<?xml version="1.0" encoding="utf-8" standalone="no"?>
<!DOCTYPE svg PUBLIC "-//W3C//DTD SVG 1.1//EN"
  "http://www.w3.org/Graphics/SVG/1.1/DTD/svg11.dtd">
<svg xmlns:xlink="http://www.w3.org/1999/xlink" width="1623.6pt" height="1623.6pt" viewBox="0 0 1623.6 1623.6" xmlns="http://www.w3.org/2000/svg" version="1.1">
 <metadata>
  <rdf:RDF xmlns:dc="http://purl.org/dc/elements/1.1/" xmlns:cc="http://creativecommons.org/ns#" xmlns:rdf="http://www.w3.org/1999/02/22-rdf-syntax-ns#">
   <cc:Work>
    <dc:type rdf:resource="http://purl.org/dc/dcmitype/StillImage"/>
    <dc:date>2024-02-12T20:20:19.958525</dc:date>
    <dc:format>image/svg+xml</dc:format>
    <dc:creator>
     <cc:Agent>
      <dc:title>Matplotlib v3.8.2, https://matplotlib.org/</dc:title>
     </cc:Agent>
    </dc:creator>
   </cc:Work>
  </rdf:RDF>
 </metadata>
 <defs>
  <style type="text/css">*{stroke-linejoin: round; stroke-linecap: butt}</style>
 </defs>
 <g id="figure_1">
  <g id="patch_1">
   <path d="M 0 1623.6 
L 1623.6 1623.6 
L 1623.6 0 
L 0 0 
L 0 1623.6 
z
" style="fill: none"/>
  </g>
  <g id="axes_1">
   <g id="LineCollection_1">
    <path d="M 100.181411 19.8 
L 101.069076 26.1767 
L 101.472124 30.546118 
L 101.575173 34.007582 
L 101.45255 37.033329 
L 101.087941 40.074158 
L 100.55143 42.705549 
L 99.780634 45.371352 
L 98.749475 48.082334 
L 97.431878 50.849263 
L 95.830565 53.674289 
L 92.047986 60.192212 
L 91.102531 62.374396 
L 90.64666 64.022898 
L 90.524654 65.189761 
L 90.610235 66.28961 
L 90.892896 67.31946 
L 91.358844 68.276762 
L 91.994281 69.158968 
L 93.081339 70.214026 
L 94.412488 71.125013 
L 95.955028 71.885892 
L 97.676258 72.490624 
L 100.025227 73.035265 
L 103.528752 73.551836 
L 108.527603 74.26551 
L 110.829633 74.820496 
L 112.503629 75.438259 
L 114.401271 76.417265 
L 116.135981 77.576739 
L 118.400237 79.402484 
L 123.932285 84.052685 
L 127.818052 86.952227 
L 132.681004 90.278673 
L 138.579755 94.01879 
L 146.766793 98.917846 
L 162.993566 108.565381 
L 173.948636 115.479131 
L 184.440749 122.018445 
L 190.980459 125.834 
L 196.390156 128.749604 
L 201.489685 131.254054 
L 206.707349 133.557902 
L 216.850271 137.702895 
L 222.942295 140.316892 
L 227.595079 142.55701 
L 231.272448 144.57572 
L 234.417357 146.55038 
L 237.05628 148.443713 
L 239.575106 150.514053 
L 241.959754 152.782911 
L 243.88627 154.901956 
L 245.69789 157.190717 
L 247.972738 160.428666 
L 253.47036 168.434189 
L 255.210223 170.526138 
L 256.738129 172.068682 
L 258.358586 173.385769 
L 259.735211 174.250046 
L 261.193518 174.925684 
L 262.733337 175.415957 
L 264.763586 175.793261 
L 266.899942 175.93924 
L 269.586906 175.8549 
L 272.389033 175.540577 
L 276.268865 174.860954 
L 283.827617 173.218392 
L 288.942231 172.213637 
L 293.524004 171.55686 
L 297.562429 171.186693 
L 301.556346 171.022531 
L 305.493984 171.069113 
L 309.363572 171.331181 
L 313.153341 171.813475 
L 316.851519 172.520733 
L 320.446337 173.457697 
L 323.497761 174.469697 
L 326.453152 175.664369 
L 329.304625 177.04489 
L 332.044295 178.614434 
L 334.664276 180.376177 
L 337.156683 182.333295 
L 339.51724 184.484768 
L 342.077359 187.146251 
L 344.829719 190.332632 
L 348.972115 195.513784 
L 354.048817 201.792648 
L 358.405958 206.703903 
L 362.310684 211.205206 
L 364.492297 214.044775 
L 366.186042 216.621779 
L 367.435165 218.926524 
L 368.464745 221.340142 
L 369.29121 223.847492 
L 370.16642 227.26589 
L 374.188974 245.521002 
L 374.472182 248.722379 
L 374.577338 252.449897 
L 374.488581 258.027582 
L 374.315782 267.821922 
L 374.53241 275.028003 
L 374.562053 279.831603 
L 374.388953 282.755993 
L 374.059977 285.150659 
L 373.51915 287.42009 
L 372.875779 289.200652 
L 372.030846 290.867837 
L 370.96072 292.41025 
L 369.666804 293.830169 
L 368.175175 295.143345 
L 366.162425 296.601237 
L 363.566266 298.175175 
L 359.950547 300.066886 
L 349.115631 305.521192 
L 345.191213 307.864732 
L 341.030781 310.623593 
L 336.621397 313.837438 
L 331.922756 317.544063 
L 325.765544 322.715882 
L 306.290805 339.607148 
L 303.066363 342.681875 
L 300.934301 344.984565 
L 299.456783 346.870699 
L 298.523183 348.365835 
L 297.901303 349.77926 
L 297.649898 350.838033 
L 297.623542 351.806839 
L 297.825796 352.658733 
L 298.260221 353.366772 
L 298.740543 353.787189 
L 299.354964 354.100165 
L 300.38539 354.330691 
L 301.658601 354.326301 
L 303.556158 354.021062 
L 306.182917 353.335946 
L 316.617563 350.349225 
L 320.628786 349.528804 
L 325.112919 348.851656 
L 329.562921 348.418063 
L 333.974676 348.21065 
L 338.344067 348.212041 
L 343.144254 348.437349 
L 347.881413 348.875158 
L 353.012752 349.573738 
L 358.506975 350.55891 
L 364.326046 351.842392 
L 369.090524 353.097288 
L 371.44899 353.963544 
L 372.834799 354.6759 
L 374.021551 355.530522 
L 374.755278 356.28258 
L 375.334972 357.143672 
L 375.743777 358.125406 
L 375.983942 359.225914 
L 376.072642 360.855802 
L 375.936361 362.642905 
L 375.515467 365.050419 
L 374.609782 368.636051 
L 371.516428 379.998093 
L 370.3668 385.395689 
L 369.564187 390.176178 
L 368.987975 394.872295 
L 368.633755 399.518902 
L 368.497116 404.150862 
L 368.572795 408.80212 
L 368.903175 414.421175 
L 369.555229 421.46364 
L 371.236404 438.587774 
L 372.641898 456.508425 
L 373.310305 461.429686 
L 374.129491 465.931324 
L 375.350828 471.360586 
L 377.118172 478.154034 
L 383.140943 499.817152 
L 384.542701 504.00583 
L 386.002145 507.665777 
L 387.508866 510.817925 
L 389.024679 513.488525 
L 390.992719 516.441735 
L 394.483357 521.592628 
L 395.730455 523.904933 
L 396.549866 525.924146 
L 397.2859 528.454431 
L 398.238223 532.814783 
L 399.093781 536.309427 
L 399.818113 538.443467 
L 400.74972 540.516726 
L 402.103837 542.937128 
L 403.926845 545.69624 
L 407.081557 549.973594 
L 410.510511 554.701911 
L 412.303851 557.559181 
L 413.622038 560.099964 
L 414.713031 562.731113 
L 415.770707 565.87965 
L 417.313403 571.34535 
L 418.785086 576.258984 
L 419.928392 579.251939 
L 421.12459 581.691945 
L 422.320537 583.6144 
L 423.735098 585.417945 
L 425.379838 587.097875 
L 427.596246 588.984098 
L 430.819869 591.356964 
L 437.800309 596.342948 
L 440.017851 598.241191 
L 441.663873 599.934693 
L 442.813086 601.381713 
L 444.027213 603.309458 
L 445.007294 605.355561 
L 445.768023 607.504738 
L 446.324093 609.741708 
L 446.690199 612.051188 
L 446.899462 614.89676 
L 446.881726 617.798331 
L 446.608006 621.219045 
L 446.100194 624.6381 
L 445.28509 628.490046 
L 444.028601 633.172208 
L 441.283938 643.016701 
L 440.686826 646.041205 
L 440.374427 648.600386 
L 440.292846 651.132974 
L 440.433131 653.225953 
L 440.789755 655.305407 
L 441.367741 657.373456 
L 442.315902 659.842756 
L 443.493996 662.301676 
L 445.33501 665.569766 
L 448.166666 670.057089 
L 452.315767 676.609393 
L 454.155573 679.912963 
L 455.996803 683.654775 
L 458.009853 688.260161 
L 461.035917 695.858352 
L 463.995486 703.08595 
L 466.532962 708.637289 
L 470.541859 716.798004 
L 476.509784 728.964426 
L 479.066033 734.685218 
L 481.020179 739.568188 
L 482.577217 744.044326 
L 483.761527 748.105502 
L 484.614212 751.743168 
L 485.25763 755.40886 
L 485.749909 759.574416 
L 486.069793 764.270234 
L 486.242028 770.510307 
L 486.555827 788.791433 
L 486.858502 791.671771 
L 487.27506 793.788372 
L 487.744527 795.22572 
L 488.357157 796.381452 
L 488.922841 797.033387 
L 489.589115 797.477738 
L 490.363457 797.695421 
L 491.239004 797.692849 
L 492.198976 797.49406 
L 493.58093 796.965935 
L 495.415702 795.964277 
L 497.671111 794.410459 
L 500.212704 792.348587 
L 502.580114 790.142373 
L 504.780057 787.803844 
L 506.821735 785.341702 
L 508.973091 782.387622 
L 510.943487 779.29644 
L 512.74666 776.081141 
L 514.592447 772.331745 
L 516.439275 768.023283 
L 518.09725 763.589379 
L 519.734917 758.597473 
L 521.466407 752.587993 
L 523.376547 745.106289 
L 525.189734 737.124976 
L 526.563021 730.068074 
L 527.612086 723.475376 
L 528.35269 717.352959 
L 528.811034 711.704763 
L 529.021184 706.532959 
L 529.012395 701.369288 
L 528.767128 696.216342 
L 528.324191 691.543334 
L 527.658146 686.883279 
L 526.756367 682.237653 
L 525.514979 677.113353 
L 523.137982 668.477571 
L 521.411299 661.934513 
L 520.532287 657.835347 
L 519.975199 654.242428 
L 519.708925 651.182969 
L 519.668445 648.241219 
L 519.867051 645.599796 
L 520.224229 643.762864 
L 520.640649 642.609614 
L 521.177247 641.797508 
L 521.660795 641.445617 
L 522.215524 641.339725 
L 522.839195 641.481981 
L 523.764664 642.008621 
L 524.779855 642.854032 
L 526.428867 644.561555 
L 529.948107 648.68006 
L 544.142327 665.255191 
L 558.590943 682.234909 
L 566.979434 692.440409 
L 573.964169 701.275248 
L 580.492679 709.895004 
L 586.355152 717.998889 
L 591.86762 725.984434 
L 599.6222 737.684719 
L 607.712672 749.78167 
L 612.168587 756.059595 
L 615.823877 760.843947 
L 619.176366 764.861688 
L 620.731712 766.835328 
L 621.884822 768.685146 
L 623.239884 771.418809 
L 625.988606 777.114618 
L 629.849264 784.90395 
L 631.60781 789.082241 
L 634.079163 795.692502 
L 636.241763 801.262326 
L 637.798249 804.670862 
L 639.167953 807.201161 
L 640.920491 809.955015 
L 643.045502 813.31033 
L 643.908724 815.011679 
L 644.539485 816.763558 
L 644.902431 818.58104 
L 645.077817 820.829899 
L 645.400188 828.867917 
L 645.964351 831.899126 
L 647.794595 840.660399 
L 648.713427 845.737346 
L 649.404656 848.191082 
L 650.199604 850.130162 
L 651.013567 851.590372 
L 652.234832 853.310542 
L 653.941553 855.25072 
L 656.169792 857.393069 
L 664.730338 865.225365 
L 666.084534 866.888122 
L 667.250457 868.650504 
L 668.233935 870.509762 
L 669.193569 872.858645 
L 669.93613 875.324295 
L 670.486516 877.894314 
L 670.918966 881.008036 
L 671.185123 884.694598 
L 671.264306 888.970076 
L 671.131835 895.303113 
L 671.059878 900.146063 
L 671.245329 902.854942 
L 671.539966 904.512407 
L 672.013819 906.013914 
L 672.703244 907.327582 
L 673.383653 908.170386 
L 674.220536 908.87659 
L 675.213145 909.445105 
L 676.748194 910.009643 
L 678.484806 910.380369 
L 680.87216 910.61661 
L 683.941498 910.643731 
L 688.669665 910.387925 
L 692.732024 910.222062 
L 695.094091 910.327315 
L 696.838819 910.604097 
L 698.422814 911.104315 
L 699.489154 911.652776 
L 700.755428 912.607756 
L 701.87114 913.780327 
L 702.866082 915.128732 
L 703.985316 916.997891 
L 705.827346 920.630123 
L 708.938093 926.706347 
L 711.180243 930.587249 
L 713.128966 933.519168 
L 714.979191 935.917203 
L 716.692891 937.822483 
L 718.541266 939.567564 
L 720.539811 941.132415 
L 722.684907 942.519862 
L 725.329052 943.964578 
L 729.265072 945.825376 
L 736.343302 949.122764 
L 738.928024 950.577993 
L 741.003267 951.977796 
L 742.921451 953.550824 
L 744.695154 955.28586 
L 746.611649 957.485768 
L 748.643814 960.189284 
L 751.024362 963.777046 
L 759.100809 976.428423 
L 762.030613 980.35157 
L 764.877404 983.793047 
L 767.914726 987.096772 
L 770.823961 989.9374 
L 773.909798 992.639693 
L 777.164731 995.204354 
L 780.956693 997.903651 
L 785.310866 1000.704786 
L 789.82302 1003.346225 
L 795.311656 1006.28516 
L 801.349007 1009.259157 
L 808.755409 1012.653239 
L 818.705702 1016.959638 
L 825.984612 1019.90011 
L 831.982901 1022.0958 
L 837.158759 1023.77334 
L 841.95334 1025.115895 
L 846.815213 1026.245925 
L 851.309353 1027.067715 
L 855.888848 1027.674323 
L 860.095078 1028.020728 
L 864.868724 1028.184132 
L 877.930808 1028.463984 
L 881.730675 1028.831944 
L 884.987527 1029.376421 
L 887.713109 1030.051356 
L 890.365615 1030.949283 
L 893.366972 1032.221564 
L 902.64709 1036.36953 
L 904.571561 1036.920298 
L 906.471268 1037.229752 
L 907.975779 1037.268147 
L 909.468861 1037.091876 
L 910.952784 1036.695599 
L 912.798874 1035.926373 
L 914.64009 1034.898708 
L 916.850531 1033.393569 
L 919.8144 1031.064687 
L 927.440881 1024.87999 
L 930.223245 1022.990556 
L 933.463429 1021.056138 
L 937.973706 1018.659529 
L 948.096429 1013.40938 
L 951.181188 1011.506297 
L 953.358166 1009.896392 
L 955.027437 1008.383214 
L 956.239298 1007.033423 
L 957.319202 1005.539105 
L 958.255321 1003.889964 
L 959.271611 1001.663473 
L 962.55887 993.913072 
L 963.544029 992.316571 
L 964.690643 990.893395 
L 965.990336 989.635061 
L 967.424458 988.522161 
L 969.377739 987.305985 
L 971.909184 986.053128 
L 975.041513 984.793469 
L 986.329001 980.537621 
L 989.171815 979.048702 
L 992.243185 977.16463 
L 995.539876 974.866044 
L 1000.163695 971.336552 
L 1006.704731 966.368361 
L 1010.547397 963.758553 
L 1013.72733 961.854955 
L 1016.58048 960.379626 
L 1019.494341 959.127898 
L 1022.036431 958.266219 
L 1024.616239 957.628691 
L 1027.230594 957.242337 
L 1029.876522 957.112125 
L 1032.551297 957.215326 
L 1035.252212 957.527451 
L 1038.432702 958.122984 
L 1042.101079 959.061101 
L 1046.26308 960.375422 
L 1051.387531 962.237748 
L 1067.315266 968.212789 
L 1071.510139 969.454872 
L 1075.216933 970.308563 
L 1078.437879 970.816926 
L 1082.078999 971.14798 
L 1087.407913 971.369526 
L 1093.321534 971.650548 
L 1096.504665 972.034634 
L 1098.779027 972.51293 
L 1100.944852 973.204967 
L 1103.003363 974.126338 
L 1104.974313 975.245276 
L 1107.191623 976.752446 
L 1109.964765 978.921604 
L 1118.785726 986.070263 
L 1121.566835 987.87541 
L 1124.503276 989.504559 
L 1127.972857 991.153272 
L 1132.007869 992.791934 
L 1136.629562 994.407287 
L 1142.284535 996.136642 
L 1151.696207 998.740428 
L 1161.200747 1001.444111 
L 1167.006385 1003.335275 
L 1172.25972 1005.295289 
L 1177.839889 1007.631112 
L 1183.732691 1010.357457 
L 1189.927614 1013.476213 
L 1196.821058 1017.196416 
L 1205.579996 1022.189517 
L 1223.141856 1032.528933 
L 1262.422396 1055.961402 
L 1267.868616 1059.539198 
L 1272.014431 1062.50704 
L 1275.64447 1065.353974 
L 1279.110991 1068.367364 
L 1282.066055 1071.241449 
L 1284.543199 1073.93966 
L 1286.863434 1076.785623 
L 1289.01206 1079.790497 
L 1290.986323 1082.949419 
L 1292.792767 1086.245055 
L 1294.632872 1090.094066 
L 1296.27884 1094.068597 
L 1297.740336 1098.143497 
L 1299.159621 1102.758288 
L 1300.487399 1107.900637 
L 1301.587739 1113.067681 
L 1302.549456 1118.678662 
L 1303.336148 1124.659574 
L 1303.91915 1130.902249 
L 1304.259412 1136.903538 
L 1304.376221 1142.795884 
L 1304.27259 1149.174953 
L 1303.924373 1156.276729 
L 1303.245332 1168.556993 
L 1303.222021 1173.314461 
L 1303.39785 1177.053599 
L 1303.798724 1180.691017 
L 1304.371957 1183.759611 
L 1305.051318 1186.285612 
L 1306.181553 1189.5134 
L 1308.250923 1194.528235 
L 1309.864067 1198.677859 
L 1310.657014 1201.333469 
L 1311.111651 1203.647547 
L 1311.290292 1205.6174 
L 1311.277351 1207.628375 
L 1311.0328 1210.08744 
L 1310.567769 1212.586251 
L 1309.78805 1215.537185 
L 1308.64463 1218.935447 
L 1306.944838 1223.183977 
L 1304.317826 1229.042741 
L 1294.986827 1249.478835 
L 1292.527566 1255.601114 
L 1284.15965 1277.081412 
L 1281.818416 1282.1123 
L 1278.848669 1287.93454 
L 1274.782047 1295.385295 
L 1265.59575 1312.063616 
L 1262.609195 1318.025859 
L 1260.248567 1323.220167 
L 1258.291945 1328.063481 
L 1256.54318 1332.985342 
L 1254.854784 1338.433286 
L 1253.375496 1343.951244 
L 1251.985311 1349.993668 
L 1250.706274 1356.558453 
L 1249.551001 1363.636555 
L 1248.461619 1371.684024 
L 1247.355541 1381.612054 
L 1246.225322 1393.807748 
L 1245.483048 1404.057363 
L 1245.023776 1413.356421 
L 1244.81357 1422.203177 
L 1244.839512 1430.151293 
L 1245.091972 1438.149992 
L 1245.557518 1445.741448 
L 1246.211792 1452.924654 
L 1247.085398 1460.139598 
L 1248.182173 1467.328692 
L 1249.410514 1473.964085 
L 1250.839624 1480.479393 
L 1252.349112 1486.380625 
L 1254.036823 1492.099989 
L 1255.755022 1497.185366 
L 1257.629109 1502.053984 
L 1259.489745 1506.298572 
L 1260.82513 1508.830753 
L 1261.937261 1510.501712 
L 1263.238837 1512.019837 
L 1264.450616 1513.101737 
L 1265.841012 1514.048061 
L 1267.820942 1515.054095 
L 1270.462526 1516.085412 
L 1279.431627 1519.303217 
L 1282.578015 1520.81315 
L 1285.594195 1522.505269 
L 1288.883449 1524.627228 
L 1292.006187 1526.910833 
L 1295.322589 1529.622427 
L 1298.768581 1532.744645 
L 1303.603379 1537.492089 
L 1308.680335 1542.417943 
L 1311.661807 1545.027705 
L 1314.468781 1547.201095 
L 1317.468561 1549.212059 
L 1321.03817 1551.325817 
L 1328.086464 1555.166429 
L 1333.075992 1558.001725 
L 1336.703096 1560.327972 
L 1339.798415 1562.586037 
L 1343.146902 1565.317339 
L 1346.725156 1568.547976 
L 1350.520399 1572.283996 
L 1355.194166 1577.216535 
L 1368.894729 1591.938758 
L 1375.578684 1598.709845 
L 1376.841821 1600.402693 
L 1377.677997 1601.823206 
L 1378.486591 1603.695317 
L 1378.523102 1603.8 
L 1378.523102 1603.8 
" clip-path="url(#p85de102db4)" style="fill: none; stroke: #0000ff; stroke-width: 0.072"/>
    <path d="M 1496.741244 1603.8 
L 1495.441941 1602.190888 
L 1493.682314 1600.354705 
L 1489.866154 1596.800378 
L 1487.384098 1594.332214 
L 1485.703173 1592.331645 
L 1484.491497 1590.519918 
L 1483.496715 1588.547411 
L 1482.706774 1586.424429 
L 1482.0903 1584.174751 
L 1481.535297 1581.341401 
L 1481.019744 1577.404168 
L 1479.551453 1564.000047 
L 1478.942778 1561.254164 
L 1478.14459 1558.657033 
L 1477.001456 1555.78859 
L 1475.666574 1553.059909 
L 1473.955321 1550.066481 
L 1471.380072 1546.073505 
L 1465.048609 1536.473634 
L 1461.295121 1530.188494 
L 1455.296043 1519.614093 
L 1449.647881 1509.807794 
L 1445.95787 1503.825499 
L 1442.607589 1498.816078 
L 1439.362928 1494.378334 
L 1435.973766 1490.115191 
L 1432.1476 1485.677771 
L 1428.169744 1481.411437 
L 1423.726933 1476.988082 
L 1419.130616 1472.720778 
L 1414.048852 1468.296876 
L 1408.112422 1463.433539 
L 1391.086525 1449.72495 
L 1386.65818 1445.753929 
L 1383.049343 1442.226201 
L 1379.90759 1438.855158 
L 1377.214082 1435.665628 
L 1374.665519 1432.312826 
L 1372.275882 1428.804006 
L 1370.057896 1425.155012 
L 1368.024283 1421.381705 
L 1366.187766 1417.499944 
L 1364.561064 1413.52559 
L 1363.156902 1409.474503 
L 1361.987999 1405.362545 
L 1361.156762 1401.66919 
L 1360.530396 1397.95141 
L 1360.117837 1394.220343 
L 1359.928018 1390.48713 
L 1359.969876 1386.762908 
L 1360.250578 1383.058663 
L 1360.748334 1379.382827 
L 1361.606451 1374.837649 
L 1362.863265 1369.472417 
L 1366.620763 1354.164218 
L 1368.730596 1344.06554 
L 1369.606469 1341.147698 
L 1370.566218 1338.673464 
L 1371.572772 1336.613471 
L 1372.98948 1334.277261 
L 1374.862325 1331.652129 
L 1381.50676 1322.68847 
L 1383.098625 1319.96313 
L 1384.286466 1317.457786 
L 1385.278416 1314.781105 
L 1386.234384 1311.495237 
L 1387.372755 1306.65386 
L 1389.035509 1299.549862 
L 1389.980568 1296.497906 
L 1390.959369 1294.103172 
L 1391.93166 1292.30337 
L 1393.066294 1290.705311 
L 1394.356408 1289.310607 
L 1395.791503 1288.117932 
L 1397.361079 1287.125964 
L 1399.054639 1286.333376 
L 1400.861681 1285.738844 
L 1402.771706 1285.341043 
L 1404.774216 1285.13865 
L 1406.858711 1285.130338 
L 1409.014691 1285.314783 
L 1411.68161 1285.784745 
L 1414.419613 1286.494522 
L 1417.681815 1287.569444 
L 1421.943205 1289.238974 
L 1428.126464 1291.951495 
L 1436.01314 1295.396279 
L 1441.79043 1297.649283 
L 1447.830583 1299.764342 
L 1455.025638 1302.032068 
L 1466.046527 1305.229299 
L 1477.544984 1308.635353 
L 1490.29497 1312.73406 
L 1498.447295 1315.223132 
L 1504.101261 1316.735451 
L 1508.679477 1317.752076 
L 1512.653035 1318.422702 
L 1516.038427 1318.786414 
L 1519.259748 1318.898218 
L 1521.924165 1318.764364 
L 1524.080046 1318.46054 
L 1526.093908 1317.967042 
L 1527.565363 1317.394525 
L 1528.523114 1316.819482 
L 1529.220814 1316.131554 
L 1529.53733 1315.536611 
L 1529.64849 1314.870123 
L 1529.528978 1314.128642 
L 1529.154001 1313.308876 
L 1528.261998 1312.102762 
L 1526.997851 1310.798936 
L 1525.026996 1309.086109 
L 1521.843324 1306.658024 
L 1517.210771 1303.439241 
L 1510.756016 1299.259558 
L 1503.026295 1294.238854 
L 1499.508844 1291.679379 
L 1496.196425 1288.969891 
L 1492.742857 1285.832959 
L 1489.140604 1282.258082 
L 1484.487228 1277.309232 
L 1474.140508 1266.17949 
L 1469.967722 1262.08927 
L 1465.862487 1258.389292 
L 1460.454864 1253.84343 
L 1452.198592 1247.246655 
L 1442.025344 1239.077289 
L 1436.586526 1234.414362 
L 1432.448916 1230.580109 
L 1429.539062 1227.618086 
L 1427.149139 1224.901851 
L 1425.24686 1222.447127 
L 1423.552639 1219.907881 
L 1422.289018 1217.655639 
L 1421.219603 1215.32605 
L 1420.36173 1212.912678 
L 1419.70722 1210.417847 
L 1419.163933 1207.416222 
L 1418.77915 1203.883552 
L 1418.568048 1199.804791 
L 1418.490937 1193.310392 
L 1418.354222 1184.852267 
L 1417.97422 1177.314733 
L 1417.339941 1169.294208 
L 1416.354375 1159.848893 
L 1414.936442 1148.511434 
L 1406.109333 1082.915796 
L 1404.46951 1073.218906 
L 1402.85851 1064.947008 
L 1401.221768 1057.641431 
L 1399.586705 1051.315921 
L 1397.864074 1045.52254 
L 1396.072327 1040.262375 
L 1394.238864 1035.529145 
L 1392.203719 1030.893967 
L 1390.163087 1026.776129 
L 1387.926739 1022.759714 
L 1385.480848 1018.85443 
L 1382.817959 1015.067474 
L 1379.95745 1011.395459 
L 1376.614199 1007.481632 
L 1372.77215 1003.352446 
L 1368.432035 999.032501 
L 1363.268355 994.228824 
L 1356.971942 988.692109 
L 1346.924239 980.200019 
L 1318.629394 956.459049 
L 1311.245823 949.885036 
L 1305.271678 944.266189 
L 1300.396431 939.39021 
L 1295.970926 934.660502 
L 1292.000316 930.098608 
L 1288.47833 925.730048 
L 1285.113496 921.204752 
L 1274.262462 906.187239 
L 1271.854112 903.416841 
L 1269.651664 901.22477 
L 1267.643353 899.52798 
L 1265.528947 898.046024 
L 1263.610207 896.952779 
L 1261.574011 896.028195 
L 1259.402123 895.277268 
L 1257.076308 894.704995 
L 1254.579891 894.314862 
L 1251.46374 894.061433 
L 1247.20271 893.95826 
L 1233.10387 893.835927 
L 1229.613867 893.520457 
L 1226.701442 893.063338 
L 1223.403479 892.31018 
L 1219.743996 891.212309 
L 1215.733724 889.753428 
L 1210.063079 887.411394 
L 1201.816548 884.007471 
L 1195.680854 881.745864 
L 1189.50455 879.699885 
L 1182.858439 877.739105 
L 1176.200082 876.009239 
L 1169.547257 874.501689 
L 1162.477039 873.128993 
L 1148.591403 870.559372 
L 1145.249584 869.596062 
L 1142.393011 868.526799 
L 1140.002981 867.401892 
L 1137.674413 866.055825 
L 1135.05456 864.252616 
L 1132.224724 862.028121 
L 1124.1642 855.444853 
L 1122.203585 854.334058 
L 1120.419461 853.580136 
L 1118.093919 852.868427 
L 1115.165463 852.254267 
L 1111.595336 851.760377 
L 1105.469727 851.197305 
L 1099.21926 850.579387 
L 1095.447043 849.998835 
L 1091.776795 849.214553 
L 1087.295395 848.01717 
L 1080.684044 845.971339 
L 1072.696904 843.538392 
L 1067.684246 842.261267 
L 1062.572865 841.180011 
L 1057.383104 840.298161 
L 1052.135304 839.619255 
L 1046.849808 839.146831 
L 1041.546959 838.884427 
L 1036.247098 838.835581 
L 1030.97057 839.003831 
L 1025.737715 839.392715 
L 1020.568876 840.005771 
L 1015.477309 840.839958 
L 1009.995752 841.970002 
L 1003.665039 843.523281 
L 996.01773 845.656476 
L 968.399144 853.634852 
L 947.777971 859.019815 
L 942.562586 860.664914 
L 938.065287 862.318027 
L 934.63141 863.800543 
L 931.454624 865.421834 
L 928.873688 866.995893 
L 926.513264 868.697279 
L 919.373827 874.081424 
L 916.155435 876.024558 
L 910.198511 879.544217 
L 907.80958 881.217462 
L 905.291152 883.240634 
L 902.064288 886.155066 
L 894.777247 892.907896 
L 892.176032 894.977595 
L 888.995975 897.204797 
L 885.580465 899.331085 
L 881.556111 901.585087 
L 876.48022 904.15418 
L 870.778333 906.788099 
L 866.783886 908.436812 
L 863.7039 909.489531 
L 861.112 910.156177 
L 859.002964 910.501813 
L 856.953898 910.621301 
L 854.977661 910.481524 
L 853.457748 910.160776 
L 851.999258 909.635946 
L 850.607904 908.892363 
L 849.279407 907.941602 
L 847.690916 906.505041 
L 845.862748 904.491088 
L 843.497901 901.472225 
L 838.378953 894.773607 
L 836.421859 892.636291 
L 834.689917 891.056149 
L 832.502063 889.396763 
L 829.858153 887.694324 
L 821.728853 882.696022 
L 819.775403 881.087245 
L 818.30057 879.561752 
L 816.99018 877.827443 
L 815.34658 875.143133 
L 813.204174 871.678222 
L 812.117762 870.281093 
L 810.884051 869.049149 
L 809.477748 868.013985 
L 807.545768 866.924145 
L 802.040479 864.076473 
L 800.693141 863.047823 
L 799.515446 861.848026 
L 798.485381 860.498491 
L 797.368031 858.637644 
L 796.21363 856.211534 
L 794.690836 852.346504 
L 792.80447 847.612745 
L 791.594436 845.192228 
L 790.411109 843.338013 
L 789.315426 841.995075 
L 788.070087 840.794251 
L 786.332668 839.467028 
L 784.05132 838.06804 
L 780.823725 836.399767 
L 776.016892 833.933621 
L 773.823741 832.543178 
L 772.190914 831.226087 
L 771.049599 830.035343 
L 770.070121 828.710128 
L 769.022922 826.915794 
L 767.208673 823.179732 
L 766.079891 821.064453 
L 764.990533 819.500408 
L 763.713966 818.160715 
L 761.988798 816.753894 
L 756.682942 812.758106 
L 755.199548 811.278729 
L 753.543756 809.281978 
L 752.058495 807.078767 
L 750.977741 805.11191 
L 750.062527 803.04909 
L 749.334266 800.911858 
L 748.814376 798.721765 
L 748.524271 796.500363 
L 748.485367 794.269202 
L 748.649499 792.49173 
L 748.999072 790.73284 
L 749.54504 789.003562 
L 750.28843 787.311717 
L 751.452161 785.247002 
L 753.107086 782.834461 
L 755.568505 779.710294 
L 760.104897 774.053197 
L 761.575208 771.832846 
L 762.52674 769.98904 
L 763.064635 768.513979 
L 763.396221 767.038753 
L 763.531174 765.565239 
L 763.479362 764.095334 
L 763.166994 762.26592 
L 762.597502 760.44882 
L 761.790162 758.647742 
L 760.764249 756.866393 
L 759.271777 754.760037 
L 757.525624 752.693839 
L 755.212258 750.342576 
L 752.651833 748.064867 
L 749.490959 745.564887 
L 745.730142 742.902037 
L 741.42893 740.154489 
L 736.726736 737.423189 
L 731.477907 734.636548 
L 723.746778 730.587266 
L 720.994358 728.862246 
L 719.013135 727.382404 
L 717.168781 725.723065 
L 715.694949 724.117347 
L 714.317306 722.311961 
L 712.818741 719.967049 
L 711.224967 717.023311 
L 709.547877 713.449455 
L 707.258756 707.970662 
L 702.516408 696.439169 
L 698.706786 687.404636 
L 697.220263 683.287705 
L 696.108969 679.520457 
L 695.340605 676.098348 
L 693.673239 668.010492 
L 692.920385 665.599712 
L 692.118953 663.687303 
L 691.115134 661.88404 
L 690.138543 660.533465 
L 688.984736 659.275804 
L 687.632519 658.121304 
L 686.064828 657.07795 
L 683.42157 655.656803 
L 679.838588 653.757093 
L 678.231671 652.687179 
L 677.183689 651.789204 
L 676.313484 650.785127 
L 675.631694 649.668789 
L 675.111148 648.45508 
L 674.616326 646.713645 
L 674.218516 644.393514 
L 673.282266 637.668379 
L 672.627093 635.401758 
L 671.73021 633.271384 
L 670.844668 631.678628 
L 669.814706 630.19612 
L 668.644891 628.834107 
L 667.33979 627.602833 
L 665.536238 626.250525 
L 659.343665 622.033257 
L 658.216992 620.821958 
L 657.317904 619.43662 
L 656.626228 617.893197 
L 656.113767 616.21456 
L 655.682253 613.960957 
L 655.398368 611.087808 
L 655.260566 607.097187 
L 655.04811 600.187863 
L 654.721511 597.455761 
L 654.24042 595.365873 
L 653.68146 593.846426 
L 652.963027 592.464924 
L 652.0959 591.210491 
L 650.819557 589.804358 
L 649.349341 588.558042 
L 647.70662 587.450026 
L 645.537734 586.27267 
L 642.781558 585.062034 
L 638.970837 583.672468 
L 626.89636 579.496145 
L 623.439302 577.999246 
L 620.561138 576.51666 
L 618.240693 575.089871 
L 616.086868 573.495999 
L 614.440685 572.024394 
L 612.649092 570.086821 
L 610.750517 567.656755 
L 607.482927 562.968571 
L 605.17188 559.852173 
L 603.501182 557.948621 
L 601.982439 556.519013 
L 600.314483 555.268447 
L 598.474236 554.220228 
L 595.700815 552.970392 
L 592.103394 551.342414 
L 590.238524 550.235903 
L 588.880282 549.163501 
L 587.356199 547.598708 
L 583.167574 542.886061 
L 581.94509 542.009331 
L 580.609133 541.415772 
L 579.17345 541.0447 
L 576.88345 540.721185 
L 573.696584 540.283173 
L 572.097877 539.871984 
L 570.522868 539.236973 
L 568.585349 538.172217 
L 565.903164 536.383303 
L 562.054971 533.801994 
L 559.699837 532.522155 
L 556.915255 531.287014 
L 553.308899 529.973368 
L 544.633209 526.966601 
L 541.992921 525.744747 
L 539.800015 524.492575 
L 537.314657 522.805917 
L 534.548718 520.630309 
L 531.500174 517.939041 
L 527.140401 513.765475 
L 516.888376 503.888111 
L 511.15265 498.206026 
L 507.292913 494.079084 
L 504.262154 490.532622 
L 501.719704 487.236383 
L 499.6354 484.208804 
L 497.741105 481.076707 
L 496.060523 477.827928 
L 494.783957 474.879968 
L 493.703551 471.827393 
L 492.820738 468.6832 
L 492.130283 465.470141 
L 491.569947 461.743045 
L 491.246051 457.989915 
L 491.150698 454.244838 
L 491.275993 450.541902 
L 491.614041 446.915192 
L 492.22503 442.95725 
L 493.507184 436.568783 
L 494.439617 431.524996 
L 494.856364 428.137781 
L 495.006174 425.128517 
L 494.928866 422.498568 
L 494.592127 419.36331 
L 493.892531 415.244725 
L 492.015986 404.934107 
L 491.695727 401.632225 
L 491.643083 398.811963 
L 491.797541 396.475297 
L 492.166119 394.156249 
L 492.762323 391.858158 
L 493.724813 389.126355 
L 495.087409 385.970629 
L 500.3465 374.456525 
L 501.143042 371.825938 
L 501.56195 369.635984 
L 501.717934 367.445979 
L 501.628797 365.25441 
L 501.333162 363.059921 
L 500.760259 360.420767 
L 499.735908 356.888258 
L 496.381128 346.144417 
L 495.829002 343.411787 
L 495.504448 340.656872 
L 495.377517 337.418003 
L 495.483006 333.690143 
L 495.888947 328.532363 
L 496.581105 320.061635 
L 496.651313 316.304202 
L 496.481315 313.028956 
L 496.066575 309.769651 
L 495.362909 306.066333 
L 494.047864 300.558849 
L 492.214184 292.866198 
L 491.591337 289.29549 
L 491.275972 286.199257 
L 491.214793 283.565782 
L 491.38015 280.510252 
L 491.781538 277.463917 
L 492.399107 274.417369 
L 493.34414 270.923271 
L 494.676912 266.959907 
L 496.44309 262.492354 
L 500.977618 251.557996 
L 501.779075 248.867955 
L 502.228612 246.667705 
L 502.43109 244.516834 
L 502.384596 242.839059 
L 502.127536 241.20552 
L 501.636599 239.621832 
L 500.888476 238.093609 
L 499.860475 236.626324 
L 498.566387 235.217049 
L 496.681652 233.512761 
L 489.938946 227.766766 
L 488.34632 225.982767 
L 487.015449 224.142273 
L 485.95805 222.246645 
L 485.316907 220.691362 
L 484.864209 219.102373 
L 484.554772 217.071556 
L 484.485394 214.998021 
L 484.646429 212.464154 
L 485.129421 209.029934 
L 486.268187 201.655044 
L 486.412544 199.070693 
L 486.324336 196.94016 
L 485.991587 194.838775 
L 485.516072 193.183582 
L 484.663622 191.146355 
L 483.574563 189.136789 
L 482.032885 186.750021 
L 479.438278 183.190235 
L 475.951697 178.405825 
L 474.410843 175.964732 
L 473.322751 173.891453 
L 472.460938 171.775664 
L 471.807097 169.622289 
L 471.238772 167.001441 
L 470.73058 163.470375 
L 469.577159 154.26117 
L 468.982693 151.714748 
L 468.300222 149.642889 
L 467.403519 147.626343 
L 466.257078 145.673314 
L 464.603917 143.409344 
L 462.156205 140.498714 
L 458.619381 136.284474 
L 455.835009 132.507437 
L 450.908693 125.708602 
L 446.822087 120.588084 
L 434.124069 104.951392 
L 427.803029 97.023008 
L 424.367951 93.075091 
L 421.364505 89.939084 
L 417.898832 86.658428 
L 414.276592 83.537859 
L 410.162724 80.295289 
L 405.535117 76.946847 
L 400.378251 73.499152 
L 394.300338 69.714017 
L 386.48869 65.135079 
L 378.896698 60.916581 
L 373.593919 58.211166 
L 369.025984 56.111142 
L 364.801193 54.399274 
L 360.934611 53.052807 
L 357.00224 51.920044 
L 353.447747 51.115708 
L 349.834219 50.522983 
L 346.158337 50.161989 
L 342.88818 50.052029 
L 339.096489 50.150834 
L 334.405811 50.251007 
L 332.147562 50.105354 
L 330.409255 49.821006 
L 328.747108 49.344224 
L 327.158971 48.677281 
L 325.248327 47.647178 
L 321.525918 45.2924 
L 318.863041 43.737021 
L 316.488519 42.595531 
L 313.618072 41.468274 
L 310.65127 40.531521 
L 307.158171 39.65421 
L 302.664551 38.779266 
L 296.66598 37.869614 
L 287.811801 36.548274 
L 283.734383 35.6927 
L 280.67651 34.833721 
L 278.161451 33.922637 
L 275.765714 32.818267 
L 273.875071 31.728556 
L 271.73851 30.212164 
L 269.723574 28.509484 
L 267.179117 26.034823 
L 263.235908 21.796099 
L 261.3675 19.8 
L 261.3675 19.8 
" clip-path="url(#p85de102db4)" style="fill: none; stroke: #0000ff; stroke-width: 0.072"/>
   </g>
   <g id="LineCollection_2">
    <path d="M 119.094256 19.8 
L 119.43882 21.33037 
L 119.578372 23.042674 
L 119.497548 24.805988 
L 119.150809 27.068466 
L 118.483038 29.84632 
L 115.610491 40.633385 
L 114.979484 44.272669 
L 114.689345 47.347058 
L 114.675675 49.875268 
L 114.854417 51.891398 
L 115.225738 53.812717 
L 115.808134 55.62765 
L 116.620102 57.324624 
L 117.447397 58.589495 
L 118.438883 59.768185 
L 119.888728 61.134117 
L 121.890251 62.647128 
L 124.508428 64.290472 
L 128.591832 66.53473 
L 134.077894 69.555439 
L 136.9163 71.363223 
L 139.597494 73.341981 
L 142.86967 76.069935 
L 148.46236 81.132892 
L 152.359325 84.523603 
L 155.321798 86.828147 
L 158.796783 89.245658 
L 162.805624 91.751043 
L 167.775302 94.565182 
L 174.14816 97.893685 
L 182.374929 101.934981 
L 194.238059 107.487527 
L 211.822023 115.72546 
L 220.026243 119.820272 
L 226.794863 123.436374 
L 232.57983 126.764084 
L 237.812828 130.018521 
L 242.506257 133.184603 
L 247.051345 136.525734 
L 251.07295 139.758984 
L 253.871694 142.258216 
L 255.845878 144.278226 
L 257.670513 146.47225 
L 259.049721 148.464573 
L 261.036741 151.844971 
L 262.738417 154.637888 
L 264.042683 156.325708 
L 265.191685 157.390255 
L 266.450937 158.163981 
L 267.803611 158.667256 
L 269.230546 158.924415 
L 270.712579 158.959798 
L 272.230551 158.79774 
L 274.150534 158.355419 
L 276.475991 157.562405 
L 283.787085 154.832262 
L 286.825937 154.08814 
L 289.965749 153.574105 
L 293.191345 153.27744 
L 296.487548 153.185424 
L 300.321628 153.314541 
L 304.205452 153.675358 
L 308.116366 154.248891 
L 312.520319 155.12474 
L 316.897631 156.218747 
L 321.690832 157.657299 
L 326.367074 159.294731 
L 330.883155 161.094885 
L 335.219912 163.042824 
L 339.382198 165.144809 
L 343.375907 167.408022 
L 347.206936 169.839646 
L 350.881179 172.446863 
L 354.404533 175.236855 
L 357.782892 178.216806 
L 361.022153 181.393896 
L 364.128211 184.77531 
L 367.101258 188.365192 
L 369.631588 191.7608 
L 371.98236 195.293259 
L 373.888574 198.533127 
L 375.59269 201.853465 
L 377.066369 205.241254 
L 378.292705 208.684058 
L 379.301726 212.171812 
L 380.22949 216.137494 
L 381.224998 221.471685 
L 387.20024 257.882095 
L 387.93448 264.127681 
L 388.360093 269.519895 
L 388.54533 274.503525 
L 388.499525 279.533819 
L 388.25628 283.657803 
L 387.846371 287.26484 
L 387.220278 290.75649 
L 386.469536 293.671664 
L 385.657963 296.035598 
L 384.676754 298.249416 
L 383.512185 300.288771 
L 382.153099 302.142432 
L 380.598455 303.850853 
L 378.539471 305.73139 
L 375.865782 307.835469 
L 370.800298 311.465641 
L 365.367008 315.435275 
L 361.135661 318.806369 
L 358.089674 321.513773 
L 355.840142 323.808112 
L 354.330293 325.652022 
L 353.421159 327.055616 
L 352.823794 328.374825 
L 352.606032 329.297303 
L 352.605636 330.153415 
L 352.84054 330.935087 
L 353.316989 331.639013 
L 354.015931 332.272205 
L 355.255319 333.020881 
L 356.797523 333.678487 
L 359.070389 334.402615 
L 362.711151 335.303045 
L 371.620818 337.396324 
L 374.645478 338.391121 
L 376.875859 339.366333 
L 378.848137 340.471309 
L 380.576025 341.699878 
L 382.073235 343.045873 
L 383.353477 344.503124 
L 384.430465 346.065461 
L 385.31791 347.726717 
L 386.029523 349.480721 
L 386.670669 351.699269 
L 387.102056 354.031831 
L 387.371841 356.883034 
L 387.425997 359.857985 
L 387.272122 363.387743 
L 386.838395 367.957647 
L 385.845156 375.517629 
L 384.765101 384.172456 
L 384.113561 391.402979 
L 383.693084 398.639369 
L 383.49975 405.87539 
L 383.529636 413.104805 
L 383.778823 420.321381 
L 384.24339 427.51888 
L 384.919416 434.691068 
L 385.80298 441.831708 
L 386.969783 449.406594 
L 388.3635 456.930923 
L 389.979371 464.397129 
L 391.812638 471.797642 
L 393.858543 479.124897 
L 396.112327 486.371325 
L 398.569232 493.529358 
L 401.224554 500.5921 
L 404.074131 507.559323 
L 407.114107 514.434611 
L 410.548398 521.642931 
L 414.188669 528.755916 
L 418.030302 535.77792 
L 422.068678 542.713296 
L 426.553918 549.967053 
L 431.249071 557.133739 
L 436.148653 564.218523 
L 441.53616 571.613763 
L 447.138132 578.929833 
L 452.123053 585.481014 
L 454.517806 589.029559 
L 456.169121 591.859478 
L 457.393604 594.348466 
L 458.406959 596.90758 
L 459.19055 599.542826 
L 459.763555 602.246998 
L 460.199662 605.476511 
L 460.42376 608.772276 
L 460.471815 612.600948 
L 460.307657 617.44746 
L 459.677076 627.178286 
L 459.380178 633.883948 
L 459.367147 639.066755 
L 459.575019 643.716361 
L 459.976969 647.852998 
L 460.530876 651.493622 
L 461.292261 655.101565 
L 462.280953 658.678477 
L 463.485277 662.228777 
L 465.233672 666.639687 
L 467.583916 671.911128 
L 474.257966 685.993449 
L 477.074316 691.612468 
L 479.184967 695.358984 
L 481.228939 698.544212 
L 483.182368 701.190723 
L 485.611179 704.053664 
L 489.809883 708.547597 
L 493.364546 712.454364 
L 495.515782 715.109205 
L 497.237542 717.546251 
L 498.814037 720.155284 
L 500.697087 723.768785 
L 503.300436 729.379993 
L 505.150056 733.200376 
L 506.199352 734.87654 
L 506.902454 735.603949 
L 507.443122 735.857915 
L 507.838414 735.838136 
L 508.352386 735.534279 
L 508.85006 734.936387 
L 509.446963 733.814264 
L 510.122467 731.983606 
L 510.847975 729.288784 
L 511.584833 725.638595 
L 512.281886 721.047959 
L 512.872687 715.685589 
L 513.274199 709.903425 
L 513.409791 704.900775 
L 513.336696 700.10722 
L 513.026952 695.033261 
L 512.489594 690.121715 
L 511.737684 685.325115 
L 510.619321 679.721423 
L 507.933537 666.712877 
L 507.181172 661.816895 
L 506.675194 657.134041 
L 506.380351 652.241929 
L 506.330511 647.856185 
L 506.511938 643.565471 
L 506.884181 639.987193 
L 507.377971 637.117478 
L 508.046517 634.485553 
L 508.746341 632.511924 
L 509.58377 630.77048 
L 510.566192 629.2917 
L 511.459233 628.31412 
L 512.441196 627.516917 
L 513.504013 626.893844 
L 514.63962 626.43865 
L 516.149197 626.096217 
L 517.744147 625.994125 
L 519.408714 626.120168 
L 521.127144 626.462141 
L 523.238175 627.140348 
L 525.376855 628.090826 
L 527.516149 629.292413 
L 529.63817 630.720591 
L 532.085665 632.634062 
L 534.838183 635.089244 
L 537.867045 638.109403 
L 541.453436 642.030757 
L 546.103927 647.484572 
L 561.618111 666.003842 
L 567.422075 672.302969 
L 589.42703 695.82757 
L 594.350027 701.628002 
L 599.133797 707.619299 
L 603.445174 713.379078 
L 607.278467 718.854254 
L 610.891455 724.401935 
L 614.01819 729.598253 
L 616.905424 734.814879 
L 624.059875 748.003115 
L 626.322374 751.579135 
L 628.504948 754.629785 
L 632.099283 759.207445 
L 636.541531 764.899341 
L 638.817516 768.153037 
L 640.742978 771.272091 
L 642.784879 775.03045 
L 645.132386 779.839005 
L 657.428518 806.415588 
L 658.813891 810.178081 
L 660.004666 814.116695 
L 661.244232 819.051789 
L 663.21444 828.071915 
L 664.946907 835.553549 
L 666.284441 840.397049 
L 667.727831 844.757904 
L 669.080276 848.194544 
L 670.641772 851.566575 
L 672.203723 854.450789 
L 674.222785 857.66303 
L 681.306303 868.424712 
L 682.555953 870.942528 
L 683.409122 873.112629 
L 684.053653 875.362209 
L 684.454536 877.704355 
L 684.620501 880.121521 
L 684.907029 887.293073 
L 685.247227 888.692463 
L 685.651795 889.576078 
L 686.211614 890.29645 
L 686.926215 890.860594 
L 687.779769 891.291501 
L 689.106233 891.698941 
L 691.013553 892.017124 
L 699.509784 893.071927 
L 701.706426 893.711376 
L 703.339903 894.424481 
L 704.816704 895.35364 
L 705.795609 896.212786 
L 706.648217 897.222842 
L 707.612216 898.774463 
L 708.616452 900.954472 
L 710.18545 905.178702 
L 711.31775 907.913156 
L 712.211872 909.583396 
L 713.499914 911.483089 
L 714.953897 913.20007 
L 716.548732 914.762552 
L 718.613138 916.473315 
L 721.17447 918.304405 
L 725.75765 921.244931 
L 730.300523 924.253309 
L 734.31785 927.19645 
L 738.557694 930.590358 
L 743.007964 934.455448 
L 747.66603 938.802427 
L 752.863037 943.956482 
L 759.564463 950.929662 
L 775.306597 967.430457 
L 780.670991 972.67892 
L 785.526612 977.137323 
L 790.203024 981.12996 
L 794.686499 984.660903 
L 798.936835 987.730193 
L 802.906061 990.34438 
L 806.965189 992.757477 
L 810.686979 994.730619 
L 814.891026 996.689862 
L 819.596776 998.616503 
L 825.266449 1000.688503 
L 836.033946 1004.327684 
L 844.323121 1006.953055 
L 850.38172 1008.635512 
L 855.533496 1009.830963 
L 860.222937 1010.67944 
L 864.438204 1011.208215 
L 868.173701 1011.462241 
L 871.892149 1011.487518 
L 875.127039 1011.302778 
L 878.340172 1010.907818 
L 881.527044 1010.293053 
L 886.458203 1009.057399 
L 891.680626 1007.7834 
L 894.627236 1007.293362 
L 897.082573 1007.128064 
L 899.073108 1007.223898 
L 901.008007 1007.563034 
L 904.32667 1008.473364 
L 906.401404 1008.944389 
L 907.714715 1009.049921 
L 908.970639 1008.919331 
L 910.183995 1008.57394 
L 911.669863 1007.905004 
L 913.759243 1006.674755 
L 917.626554 1004.354736 
L 921.595784 1002.331249 
L 931.786726 997.282751 
L 934.925032 995.450734 
L 937.970251 993.404103 
L 941.284989 990.864875 
L 945.233643 987.519736 
L 958.961215 975.575008 
L 964.266892 971.421746 
L 969.715762 967.450624 
L 974.900462 963.939965 
L 980.20258 960.61246 
L 985.619202 957.480677 
L 991.147334 954.557644 
L 996.34385 952.071639 
L 1001.178933 950.010633 
L 1005.628136 948.348406 
L 1010.123295 946.914909 
L 1014.204103 945.842227 
L 1018.31445 944.995595 
L 1021.989948 944.448422 
L 1025.683352 944.108688 
L 1029.392105 943.98996 
L 1033.113652 944.105804 
L 1036.845443 944.4696 
L 1040.585702 945.077061 
L 1044.803141 946.006612 
L 1049.500761 947.279314 
L 1055.625134 949.188543 
L 1072.204317 954.509785 
L 1076.963413 955.743757 
L 1081.254304 956.627033 
L 1085.073859 957.186103 
L 1089.832284 957.624909 
L 1100.401065 958.497921 
L 1103.42924 958.991066 
L 1105.926595 959.586875 
L 1108.319806 960.385006 
L 1110.609698 961.394575 
L 1113.177503 962.792737 
L 1116.017158 964.606667 
L 1120.542362 967.819735 
L 1125.147772 971.021614 
L 1128.480946 973.056463 
L 1132.331207 975.123943 
L 1136.320064 977.009879 
L 1140.848299 978.902008 
L 1145.931143 980.782921 
L 1152.012825 982.786989 
L 1160.002863 985.159032 
L 1181.547444 991.388542 
L 1187.261932 993.359006 
L 1192.001532 995.221735 
L 1196.213197 997.108665 
L 1199.909638 998.991871 
L 1203.503689 1001.074512 
L 1206.602089 1003.112044 
L 1209.601671 1005.339024 
L 1213.23128 1008.332945 
L 1224.184527 1017.623289 
L 1227.07168 1019.665614 
L 1230.389628 1021.719926 
L 1234.160591 1023.782409 
L 1239.583423 1026.459714 
L 1250.058962 1031.572367 
L 1257.469552 1035.483762 
L 1264.394963 1039.386771 
L 1270.325382 1042.964378 
L 1274.906455 1045.972114 
L 1278.957735 1048.899111 
L 1282.503024 1051.741538 
L 1285.571864 1054.471906 
L 1288.841765 1057.694008 
L 1291.961437 1061.102895 
L 1294.927836 1064.686688 
L 1297.737916 1068.433504 
L 1300.388632 1072.331461 
L 1302.876939 1076.36868 
L 1305.199792 1080.533277 
L 1307.560197 1085.247276 
L 1309.712666 1090.085213 
L 1311.653144 1095.031274 
L 1313.37758 1100.069644 
L 1314.881921 1105.18451 
L 1316.162113 1110.360056 
L 1317.214103 1115.580469 
L 1318.033839 1120.829935 
L 1318.617267 1126.092638 
L 1318.960335 1131.352766 
L 1319.060227 1136.119158 
L 1318.95508 1140.85847 
L 1318.644289 1145.559194 
L 1317.271766 1162.207574 
L 1317.329297 1165.876483 
L 1317.605803 1169.085481 
L 1318.133288 1172.296199 
L 1319.00229 1175.968476 
L 1320.342559 1180.562131 
L 1323.372393 1190.674639 
L 1324.190854 1194.351911 
L 1324.660153 1197.568598 
L 1324.880638 1200.783377 
L 1324.876336 1203.994811 
L 1324.628478 1207.659065 
L 1324.157512 1211.314889 
L 1323.407801 1215.414921 
L 1322.250715 1220.403367 
L 1320.537823 1226.70809 
L 1318.368661 1233.852038 
L 1315.980512 1240.943719 
L 1313.372741 1247.997797 
L 1310.369308 1255.466294 
L 1306.780414 1263.792336 
L 1302.002241 1274.294046 
L 1286.415496 1308.118801 
L 1282.881697 1316.554192 
L 1279.942349 1324.149879 
L 1277.564957 1330.896285 
L 1275.560668 1337.235384 
L 1273.910153 1343.162303 
L 1272.478055 1349.130198 
L 1271.260565 1355.136462 
L 1270.250914 1361.1778 
L 1269.388265 1367.719298 
L 1268.75035 1374.293532 
L 1268.328712 1380.896386 
L 1268.10735 1387.997953 
L 1268.114157 1395.122583 
L 1268.338731 1402.265213 
L 1268.806585 1409.898153 
L 1269.497751 1417.539666 
L 1270.46268 1425.661292 
L 1271.650317 1433.778286 
L 1273.133731 1442.359511 
L 1274.932152 1451.393202 
L 1277.150723 1461.329839 
L 1279.381831 1471.571529 
L 1280.354041 1477.020344 
L 1280.943308 1481.458578 
L 1281.253371 1485.357839 
L 1281.603451 1490.689254 
L 1281.96945 1492.545819 
L 1282.450042 1493.917931 
L 1283.145638 1495.171796 
L 1284.058099 1496.312764 
L 1285.443835 1497.620274 
L 1287.361086 1499.085029 
L 1294.29275 1504.108683 
L 1298.791318 1507.744737 
L 1304.324513 1512.532956 
L 1312.327867 1519.807635 
L 1323.348241 1529.806814 
L 1330.295985 1535.774667 
L 1341.058373 1544.67875 
L 1353.59462 1555.110249 
L 1360.409074 1561.080427 
L 1365.969849 1566.253852 
L 1370.664191 1570.926033 
L 1374.852129 1575.412434 
L 1378.550051 1579.700647 
L 1381.781405 1583.771345 
L 1384.846024 1587.990195 
L 1387.475034 1591.965604 
L 1390.18637 1596.492765 
L 1392.708377 1601.163737 
L 1394.021129 1603.8 
L 1394.021129 1603.8 
" clip-path="url(#p85de102db4)" style="fill: none; stroke: #ff0000; stroke-width: 0.072"/>
    <path d="M 1479.675477 1603.8 
L 1477.794126 1597.940645 
L 1475.581944 1591.75654 
L 1472.96709 1585.123779 
L 1470.10623 1578.468035 
L 1466.81692 1571.387773 
L 1463.291323 1564.31622 
L 1459.32451 1556.858025 
L 1454.90388 1549.041208 
L 1450.272777 1541.306105 
L 1445.203303 1533.279568 
L 1439.968382 1525.400258 
L 1434.328889 1517.316329 
L 1429.096725 1510.185022 
L 1424.000032 1503.594821 
L 1419.039145 1497.523356 
L 1413.914211 1491.604365 
L 1408.922521 1486.176543 
L 1403.750251 1480.890902 
L 1398.722039 1476.067814 
L 1393.505997 1471.375568 
L 1388.088037 1466.817009 
L 1382.836669 1462.685478 
L 1377.385833 1458.675117 
L 1362.05226 1447.67198 
L 1358.833399 1444.99066 
L 1356.176465 1442.510178 
L 1354.043656 1440.24748 
L 1352.119396 1437.88384 
L 1350.657247 1435.7668 
L 1349.38653 1433.556301 
L 1348.324883 1431.243436 
L 1347.489941 1428.819299 
L 1346.888099 1426.280287 
L 1346.488114 1423.640559 
L 1346.22441 1420.457426 
L 1346.110897 1416.244812 
L 1345.954768 1401.965383 
L 1345.489675 1396.418025 
L 1344.117758 1381.773055 
L 1344.046038 1377.917588 
L 1344.19927 1374.534798 
L 1344.581707 1371.190552 
L 1345.177706 1367.881045 
L 1346.080029 1364.194557 
L 1347.201992 1360.541632 
L 1348.673605 1356.51549 
L 1350.523434 1352.117718 
L 1352.956635 1346.948842 
L 1356.204957 1340.606147 
L 1371.024032 1312.303881 
L 1376.741533 1300.695835 
L 1385.493092 1282.702638 
L 1387.00129 1280.307405 
L 1388.629468 1278.161829 
L 1390.096396 1276.61032 
L 1391.352676 1275.550322 
L 1392.690714 1274.67176 
L 1394.117231 1273.991697 
L 1395.628916 1273.507058 
L 1397.215977 1273.201757 
L 1399.290718 1273.047489 
L 1401.448427 1273.11612 
L 1404.11997 1273.447871 
L 1407.307999 1274.109229 
L 1410.980418 1275.11981 
L 1416.386142 1276.876626 
L 1425.853109 1280.237479 
L 1433.896857 1282.999541 
L 1439.516371 1284.677472 
L 1445.340601 1286.173649 
L 1451.941089 1287.628041 
L 1459.503906 1289.059817 
L 1465.633249 1290.02083 
L 1469.74878 1290.454107 
L 1472.396254 1290.529043 
L 1474.133306 1290.360593 
L 1474.96026 1290.109086 
L 1475.484041 1289.733115 
L 1475.658164 1289.362701 
L 1475.632604 1288.912365 
L 1475.303605 1288.193649 
L 1474.46988 1287.124486 
L 1472.944241 1285.626442 
L 1470.221911 1283.340237 
L 1464.824097 1279.184822 
L 1458.486451 1274.234403 
L 1453.505787 1270.051777 
L 1448.235657 1265.3415 
L 1441.409892 1258.912531 
L 1430.970771 1249.056781 
L 1421.467162 1240.296439 
L 1419.0596 1237.713924 
L 1417.128764 1235.350635 
L 1415.408578 1232.869777 
L 1414.128947 1230.637696 
L 1412.850679 1227.916958 
L 1411.774231 1225.085018 
L 1410.751634 1221.731769 
L 1409.810999 1217.837521 
L 1408.870824 1212.947995 
L 1407.410291 1203.860841 
L 1405.623332 1191.377193 
L 1403.645132 1175.904939 
L 1400.604002 1150.00496 
L 1398.277618 1130.955975 
L 1396.66346 1119.547177 
L 1395.110393 1110.11949 
L 1393.501535 1101.732657 
L 1391.766338 1093.923545 
L 1389.829311 1086.226632 
L 1387.583615 1078.188773 
L 1384.883882 1069.364162 
L 1381.694378 1059.712748 
L 1377.9826 1049.170729 
L 1375.253878 1042.011769 
L 1372.804609 1036.190835 
L 1370.515419 1031.294859 
L 1368.231995 1026.910323 
L 1365.979592 1023.030753 
L 1363.53845 1019.27084 
L 1361.163588 1016.003903 
L 1358.605193 1012.861221 
L 1355.855397 1009.85027 
L 1352.600048 1006.640405 
L 1348.818874 1003.240819 
L 1344.145352 999.348932 
L 1336.701697 993.486581 
L 1328.104245 986.663613 
L 1323.386007 982.644518 
L 1318.468599 978.153164 
L 1313.364159 973.187159 
L 1307.749289 967.414762 
L 1301.003395 960.153883 
L 1278.75062 935.908278 
L 1273.320185 930.486032 
L 1268.42626 925.919688 
L 1264.41672 922.465137 
L 1262.345454 920.9479 
L 1260.557449 919.913011 
L 1259.074056 919.289653 
L 1257.533982 918.889968 
L 1255.932705 918.729351 
L 1253.857601 918.783577 
L 1249.977723 919.213462 
L 1246.894827 919.447324 
L 1244.689723 919.364082 
L 1242.489239 919.048598 
L 1239.854014 918.40694 
L 1237.223749 917.528852 
L 1234.160129 916.277015 
L 1229.790094 914.225377 
L 1221.057176 910.056881 
L 1214.934548 907.429238 
L 1208.350184 904.851747 
L 1201.282639 902.321073 
L 1192.80622 899.53077 
L 1181.466689 896.059681 
L 1146.605865 885.557683 
L 1137.823129 882.600262 
L 1128.919348 879.351765 
L 1115.665141 874.241593 
L 1101.432367 868.820477 
L 1092.733638 865.748789 
L 1085.584879 863.457553 
L 1079.229792 861.654614 
L 1073.732625 860.309776 
L 1068.20963 859.192278 
L 1063.140603 858.401784 
L 1058.540022 857.904022 
L 1053.958191 857.640534 
L 1049.858398 857.618689 
L 1045.32634 857.814078 
L 1040.358648 858.251322 
L 1034.495045 858.999751 
L 1026.806812 860.221987 
L 1010.721908 862.84253 
L 1004.125541 863.650033 
L 995.523564 864.460493 
L 976.789674 866.147643 
L 970.15653 867.001683 
L 964.557322 867.942631 
L 959.516759 869.022796 
L 955.029135 870.217541 
L 950.664958 871.613594 
L 946.465106 873.194143 
L 942.470521 874.942269 
L 938.72214 876.841054 
L 935.589865 878.665074 
L 932.344189 880.810645 
L 928.639635 883.54501 
L 923.107775 887.959185 
L 915.697557 893.810684 
L 909.751763 898.226076 
L 904.24283 902.057862 
L 898.926988 905.490837 
L 893.891893 908.476341 
L 889.201874 910.998867 
L 884.90191 913.069002 
L 880.589559 914.88788 
L 876.711217 916.290396 
L 872.845681 917.458122 
L 869.002753 918.378893 
L 865.613719 918.980199 
L 862.257174 919.368222 
L 858.940001 919.534417 
L 855.669083 919.47024 
L 852.451304 919.167146 
L 849.684749 918.699235 
L 846.968759 918.036136 
L 844.307945 917.172127 
L 841.706768 916.101882 
L 839.165473 914.831249 
L 836.328765 913.157158 
L 833.557511 911.273342 
L 830.509406 908.938457 
L 827.197351 906.12348 
L 823.308141 902.513995 
L 818.228554 897.464672 
L 807.598202 886.798513 
L 801.944725 881.558731 
L 793.368384 873.961743 
L 783.652728 865.292505 
L 777.704306 859.675027 
L 772.372024 854.321428 
L 767.418521 849.023068 
L 762.90665 843.863439 
L 758.871189 838.910658 
L 755.32378 834.219499 
L 751.988694 829.430915 
L 749.152785 824.970054 
L 746.785519 820.866682 
L 744.643365 816.727538 
L 742.749858 812.562286 
L 741.277747 808.799221 
L 740.043259 805.029879 
L 739.063552 801.261302 
L 738.420462 797.917793 
L 738.004286 794.585401 
L 737.827075 791.269074 
L 737.877513 788.384356 
L 738.128206 785.519038 
L 738.585466 782.676562 
L 739.48782 778.671017 
L 740.614559 773.61234 
L 740.968626 770.982419 
L 741.019839 768.79236 
L 740.830194 767.018311 
L 740.385572 765.295247 
L 739.667892 763.624081 
L 738.701968 761.999333 
L 737.517314 760.414823 
L 735.848566 758.557822 
L 733.625369 756.439057 
L 730.45439 753.764362 
L 722.544881 747.550427 
L 718.10153 743.891674 
L 714.942067 741.038976 
L 712.324967 738.396747 
L 710.224486 735.984881 
L 708.04798 733.112242 
L 706.070935 730.135013 
L 703.813621 726.298863 
L 701.102876 721.185793 
L 689.586675 698.888106 
L 681.481409 683.794293 
L 673.389649 669.190281 
L 665.125679 654.730257 
L 656.714195 640.466378 
L 650.225649 629.845626 
L 645.643265 622.771934 
L 641.590394 616.928501 
L 637.851068 611.917906 
L 634.18262 607.363546 
L 630.601631 603.253453 
L 626.819342 599.241303 
L 622.51482 595.009732 
L 618.023448 590.901542 
L 613.011144 586.619862 
L 607.479421 582.201854 
L 601.824629 577.965145 
L 595.706152 573.650925 
L 588.751005 569.025612 
L 580.564135 563.86644 
L 569.96713 557.477303 
L 545.641283 542.915681 
L 537.502475 537.724568 
L 530.60313 533.062172 
L 524.545825 528.707576 
L 518.959273 524.423756 
L 513.863053 520.244869 
L 509.263626 516.204944 
L 504.820352 512.008327 
L 500.881323 507.992862 
L 497.120552 503.838979 
L 493.848305 499.907646 
L 490.76079 495.85621 
L 487.874719 491.68286 
L 485.439888 487.781584 
L 483.19791 483.77669 
L 481.161341 479.666816 
L 479.342737 475.450599 
L 477.902732 471.563954 
L 476.658604 467.589073 
L 475.619507 463.524965 
L 474.794213 459.370955 
L 474.174467 455.140677 
L 473.64967 449.915574 
L 473.280675 443.744717 
L 473.039806 435.394565 
L 472.910328 423.584253 
L 473.044015 416.329861 
L 473.387369 409.824535 
L 474.008853 402.663434 
L 475.1447 392.497072 
L 477.316701 373.410624 
L 477.961195 365.683745 
L 478.309389 358.932149 
L 478.398283 353.175552 
L 478.262523 347.463845 
L 477.864629 340.853962 
L 477.109211 332.419746 
L 475.306811 313.332397 
L 474.965295 306.807828 
L 474.895113 301.195278 
L 475.061196 296.02645 
L 475.435445 291.302762 
L 476.174595 285.139497 
L 478.230781 269.128289 
L 478.529859 264.512002 
L 478.569859 260.412787 
L 478.373329 255.908738 
L 477.911223 250.993644 
L 477.17512 245.649572 
L 476.019077 238.946363 
L 473.800496 227.595727 
L 471.417836 216.551601 
L 468.90277 205.963681 
L 466.408627 196.399554 
L 463.85795 187.471311 
L 461.267293 179.208764 
L 458.775176 171.981011 
L 456.244738 165.295639 
L 453.503314 158.700923 
L 450.714021 152.580667 
L 447.896223 146.906059 
L 444.850125 141.252393 
L 441.563121 135.617077 
L 438.040128 130.024337 
L 434.288349 124.501888 
L 430.60599 119.461064 
L 426.738334 114.526934 
L 422.691145 109.721688 
L 418.470189 105.067516 
L 414.424676 100.924637 
L 410.240548 96.946844 
L 405.922338 93.151589 
L 401.474581 89.556327 
L 397.28754 86.451262 
L 392.998945 83.542355 
L 388.612291 80.843047 
L 384.131145 78.366096 
L 379.56085 76.108511 
L 374.908515 74.051588 
L 369.748117 72.013751 
L 364.067976 70.020359 
L 357.859828 68.087055 
L 350.667722 66.098482 
L 342.47926 64.071705 
L 330.531276 61.370769 
L 312.071898 57.200215 
L 303.356364 54.981439 
L 296.08105 52.892959 
L 289.334062 50.714574 
L 283.116665 48.478398 
L 276.990593 46.03749 
L 271.396067 43.580173 
L 265.903488 40.932172 
L 260.524028 38.08667 
L 255.668434 35.278862 
L 250.927531 32.291602 
L 246.310105 29.119528 
L 241.824943 25.757281 
L 237.837238 22.503579 
L 234.75974 19.8 
L 234.75974 19.8 
" clip-path="url(#p85de102db4)" style="fill: none; stroke: #ff0000; stroke-width: 0.072"/>
   </g>
   <g id="LineCollection_3">
    <path d="M 19.8 19.8 
L 1603.8 19.8 
L 1603.8 1603.8 
L 19.8 1603.8 
L 19.8 19.8 
" clip-path="url(#p85de102db4)" style="fill: none; stroke: #ff0000; stroke-width: 0.072"/>
   </g>
  </g>
 </g>
 <defs>
  <clipPath id="p85de102db4">
   <rect x="0" y="0" width="1623.6" height="1623.6"/>
  </clipPath>
 </defs>
</svg>
