<?xml version="1.0" encoding="utf-8" standalone="no"?>
<!DOCTYPE svg PUBLIC "-//W3C//DTD SVG 1.1//EN"
  "http://www.w3.org/Graphics/SVG/1.1/DTD/svg11.dtd">
<svg xmlns:xlink="http://www.w3.org/1999/xlink" width="1623.6pt" height="1623.6pt" viewBox="0 0 1623.6 1623.6" xmlns="http://www.w3.org/2000/svg" version="1.1">
 <metadata>
  <rdf:RDF xmlns:dc="http://purl.org/dc/elements/1.1/" xmlns:cc="http://creativecommons.org/ns#" xmlns:rdf="http://www.w3.org/1999/02/22-rdf-syntax-ns#">
   <cc:Work>
    <dc:type rdf:resource="http://purl.org/dc/dcmitype/StillImage"/>
    <dc:date>2024-02-12T20:20:20.116103</dc:date>
    <dc:format>image/svg+xml</dc:format>
    <dc:creator>
     <cc:Agent>
      <dc:title>Matplotlib v3.8.2, https://matplotlib.org/</dc:title>
     </cc:Agent>
    </dc:creator>
   </cc:Work>
  </rdf:RDF>
 </metadata>
 <defs>
  <style type="text/css">*{stroke-linejoin: round; stroke-linecap: butt}</style>
 </defs>
 <g id="figure_1">
  <g id="patch_1">
   <path d="M 0 1623.6 
L 1623.6 1623.6 
L 1623.6 0 
L 0 0 
L 0 1623.6 
z
" style="fill: none"/>
  </g>
  <g id="axes_1">
   <g id="LineCollection_1">
    <path d="M 88.056497 19.8 
L 89.12232 21.640655 
L 89.877068 23.297584 
L 90.390032 24.941646 
L 90.659545 26.572546 
L 90.706171 28.19163 
L 90.550723 29.800263 
L 90.103953 31.798437 
L 89.414612 33.785077 
L 88.324447 36.157575 
L 86.778806 38.915493 
L 84.271214 42.850598 
L 80.733118 48.38731 
L 78.969578 51.581179 
L 76.414708 56.769508 
L 74.025655 61.468988 
L 72.217925 64.507239 
L 70.667069 66.716803 
L 68.894845 68.854334 
L 67.213712 70.572284 
L 65.316901 72.225573 
L 62.759725 74.117548 
L 59.523149 76.195944 
L 54.779156 78.921295 
L 47.797284 82.884327 
L 45.834016 84.266578 
L 44.914219 85.163441 
L 44.519863 85.826221 
L 44.445209 86.29088 
L 44.562031 86.722044 
L 44.859886 87.109825 
L 45.520034 87.542083 
L 46.457381 87.855693 
L 47.646419 88.026929 
L 49.061642 88.032063 
L 50.677543 87.847367 
L 52.46833 87.450403 
L 55.400472 86.523971 
L 61.550382 84.478119 
L 63.506027 84.040429 
L 65.333167 83.861889 
L 66.589829 83.947506 
L 67.727636 84.256995 
L 68.749517 84.779858 
L 69.675389 85.472973 
L 70.795718 86.585973 
L 72.577772 88.760499 
L 74.091009 90.494241 
L 75.177968 91.39879 
L 76.068509 91.871191 
L 77.045585 92.119753 
L 78.11417 92.138666 
L 79.264498 91.958697 
L 80.90743 91.465289 
L 83.101837 90.549053 
L 91.589907 86.68636 
L 94.429426 85.771716 
L 97.236891 85.110556 
L 99.999458 84.709261 
L 102.704285 84.57421 
L 104.904936 84.669652 
L 107.049138 84.958108 
L 109.129461 85.44327 
L 111.138473 86.128831 
L 113.06874 87.018483 
L 114.912831 88.115917 
L 116.663889 89.423985 
L 118.328127 90.926425 
L 120.237706 92.936194 
L 122.691403 95.86451 
L 129.191682 103.877726 
L 131.214128 105.981245 
L 133.372631 107.887796 
L 135.298531 109.283493 
L 137.337518 110.503984 
L 139.903974 111.781031 
L 143.016303 113.081739 
L 148.484599 115.079032 
L 153.427464 116.973478 
L 156.430029 118.370859 
L 158.861632 119.766675 
L 161.136032 121.383229 
L 163.274365 123.185936 
L 165.638352 125.458178 
L 169.182074 129.214818 
L 173.331172 133.577251 
L 175.651345 135.725447 
L 177.736375 137.377242 
L 179.564727 138.583492 
L 181.872876 139.823708 
L 184.290178 140.873253 
L 187.225767 141.908429 
L 191.141388 143.034542 
L 203.745247 146.427259 
L 206.85554 147.570011 
L 209.899801 148.916522 
L 212.858646 150.45778 
L 215.712844 152.183305 
L 218.443165 154.082617 
L 221.030379 156.145237 
L 223.455256 158.360685 
L 225.698566 160.718481 
L 227.742313 163.207583 
L 229.860431 166.176134 
L 233.038299 171.104894 
L 235.988525 175.537015 
L 237.848921 177.970271 
L 239.585787 179.920846 
L 241.496375 181.714578 
L 243.25023 183.067562 
L 245.168996 184.276995 
L 247.239466 185.347231 
L 249.89452 186.460631 
L 252.701075 187.40252 
L 256.118146 188.305672 
L 260.140612 189.110441 
L 264.711897 189.770579 
L 269.703682 190.262004 
L 275.79705 190.632843 
L 280.978684 190.754105 
L 285.513541 190.656934 
L 289.99638 190.337408 
L 294.576292 189.77312 
L 299.401331 188.942704 
L 309.244514 187.128561 
L 312.531715 186.758055 
L 315.285433 186.642643 
L 317.945971 186.770051 
L 320.068521 187.100127 
L 322.085097 187.666619 
L 323.609451 188.310739 
L 325.04438 189.14165 
L 326.384978 190.166318 
L 327.638979 191.367997 
L 329.099699 193.087478 
L 330.721327 195.41631 
L 332.47427 198.41098 
L 334.589372 202.529913 
L 338.532785 210.348345 
L 340.278975 213.283341 
L 341.888414 215.548085 
L 343.880124 217.911521 
L 346.528007 220.643636 
L 351.627915 225.780178 
L 353.364294 227.914325 
L 354.670882 229.907945 
L 355.602207 231.727545 
L 356.367326 233.723529 
L 356.96287 235.881247 
L 357.476537 238.594988 
L 357.836122 241.789692 
L 357.988575 245.258654 
L 357.91007 249.69076 
L 357.984221 252.327592 
L 358.227395 253.982538 
L 358.702646 255.718472 
L 359.464793 257.592223 
L 361.49778 261.693956 
L 362.659898 264.26833 
L 363.375082 266.413299 
L 363.678512 268.09853 
L 363.701872 269.330406 
L 363.537521 270.529412 
L 363.056037 272.079431 
L 362.315257 273.577677 
L 361.359395 275.028331 
L 359.929466 276.781091 
L 357.982727 278.806364 
L 354.193397 282.34051 
L 349.655101 286.271869 
L 344.70825 290.260689 
L 338.983474 294.582519 
L 331.728096 299.759045 
L 309.04532 315.71762 
L 304.263565 319.456612 
L 300.370508 322.774532 
L 297.011167 325.930978 
L 294.175887 328.898503 
L 291.83512 331.646106 
L 289.6893 334.504909 
L 287.991264 337.103512 
L 286.478346 339.798081 
L 285.167282 342.59367 
L 284.074808 345.495332 
L 283.325067 348.070727 
L 282.758757 350.730949 
L 282.386417 353.479179 
L 282.21858 356.318597 
L 282.274746 359.744538 
L 282.582676 363.782525 
L 284.005553 378.941242 
L 284.416228 386.721144 
L 284.806558 389.162831 
L 285.332087 390.900676 
L 285.920595 392.06075 
L 286.67743 392.993122 
L 287.586944 393.69222 
L 288.626667 394.155714 
L 289.77413 394.381274 
L 291.006864 394.366569 
L 292.3024 394.10927 
L 293.638268 393.607045 
L 294.992265 392.858103 
L 296.349705 391.875816 
L 298.041782 390.366038 
L 300.050208 388.221156 
L 302.337897 385.392368 
L 305.146906 381.492501 
L 311.369852 372.615006 
L 313.498253 370.082897 
L 315.078591 368.502207 
L 316.727645 367.153223 
L 318.107435 366.265612 
L 319.550183 365.568719 
L 321.064324 365.0814 
L 322.658266 364.822373 
L 324.336222 364.788956 
L 326.544865 364.992187 
L 330.310103 365.641826 
L 334.837738 366.389735 
L 337.464286 366.602463 
L 340.152846 366.55689 
L 343.399556 366.223651 
L 352.338327 365.066588 
L 353.977448 365.105564 
L 355.434617 365.351646 
L 356.711073 365.803385 
L 357.813364 366.449999 
L 358.748039 367.280706 
L 359.521647 368.284723 
L 360.140737 369.451269 
L 360.611858 370.76956 
L 361.002688 372.614198 
L 361.186504 374.651668 
L 361.178503 376.847757 
L 360.937202 379.643715 
L 360.468056 382.558453 
L 359.667951 386.029325 
L 358.636604 389.488772 
L 357.068723 393.860068 
L 351.791486 407.823233 
L 350.97343 410.952491 
L 350.516236 413.597533 
L 350.34257 415.775997 
L 350.385895 417.931448 
L 350.67294 420.064246 
L 351.226832 422.174837 
L 352.024795 424.264739 
L 353.227794 426.748493 
L 355.09201 430.025669 
L 358.86653 436.496663 
L 360.006972 438.906633 
L 360.73369 440.912503 
L 361.198333 442.918581 
L 361.344337 444.52512 
L 361.259155 446.134412 
L 360.915054 447.747616 
L 360.321333 449.365689 
L 359.123362 451.803241 
L 356.59524 456.723012 
L 356.002086 458.378265 
L 355.664945 460.042135 
L 355.62668 461.296017 
L 355.78087 462.554584 
L 356.235216 464.237692 
L 357.098989 466.345099 
L 358.601779 469.290748 
L 360.276542 472.63028 
L 361.057526 474.692033 
L 361.594154 476.727674 
L 362.164417 479.919142 
L 362.877866 483.770258 
L 363.443046 485.627908 
L 364.255651 487.436877 
L 365.697795 489.938621 
L 367.378194 492.884736 
L 368.22665 494.844355 
L 368.690433 496.511079 
L 368.870601 497.832593 
L 368.880612 499.688696 
L 368.643666 502.105146 
L 367.970668 507.877792 
L 368.035662 509.648179 
L 368.274953 510.882325 
L 368.720702 512.01673 
L 369.411728 513.033867 
L 370.377727 513.92022 
L 371.584542 514.690351 
L 373.462021 515.582311 
L 377.076167 516.949333 
L 380.003099 518.142383 
L 381.608417 519.060345 
L 382.530331 519.856694 
L 383.195887 520.753451 
L 383.636003 521.740066 
L 383.882641 522.80557 
L 383.965764 524.330004 
L 383.781287 526.365744 
L 383.089204 530.24108 
L 382.722094 532.85471 
L 382.612541 535.428607 
L 382.726239 537.538386 
L 383.028643 539.613696 
L 383.521951 541.652165 
L 384.208364 543.651425 
L 385.090084 545.609103 
L 386.397955 547.90408 
L 388.203706 550.526514 
L 390.825944 553.855615 
L 397.211932 561.76454 
L 399.097905 564.546577 
L 400.498696 567.026422 
L 401.471042 569.173393 
L 402.406994 571.841596 
L 403.256731 575.046963 
L 404.204828 579.715332 
L 405.504062 586.205172 
L 406.358938 589.332753 
L 407.301144 591.906323 
L 408.281271 593.954234 
L 409.476823 595.897133 
L 410.612432 597.365085 
L 411.922951 598.749087 
L 413.779157 600.371103 
L 416.245451 602.189801 
L 419.764847 604.464012 
L 426.255737 608.57427 
L 428.513342 610.275527 
L 430.129676 611.762552 
L 431.205051 613.014292 
L 432.052848 614.334155 
L 432.651731 615.730379 
L 433.014965 617.198646 
L 433.163212 618.73195 
L 433.117131 620.323289 
L 432.81773 622.383402 
L 432.287323 624.509571 
L 431.402722 627.128906 
L 430.116719 630.248586 
L 427.79893 635.203059 
L 424.926722 641.396605 
L 423.771973 644.362765 
L 422.887375 647.225871 
L 422.277375 650.004051 
L 421.97573 652.33187 
L 421.880611 654.622702 
L 421.994223 656.888273 
L 422.318775 659.14031 
L 422.856471 661.39054 
L 423.609519 663.65069 
L 424.580124 665.932484 
L 425.982833 668.634045 
L 427.889273 671.769591 
L 430.326704 675.344757 
L 434.478504 680.969527 
L 440.421251 689.030611 
L 443.079865 693.026144 
L 445.712213 697.38274 
L 448.518685 702.484671 
L 451.86893 709.090298 
L 461.69364 729.242861 
L 464.174595 734.971856 
L 466.151573 740.115605 
L 467.806238 745.062011 
L 469.287655 750.197363 
L 470.578582 755.456031 
L 471.661804 760.772188 
L 472.520105 766.080006 
L 473.136269 771.313655 
L 473.470882 775.952164 
L 473.550186 779.998977 
L 473.39024 783.483943 
L 473.034031 786.439994 
L 472.443176 789.303263 
L 471.726232 791.67952 
L 470.794168 793.98018 
L 469.627264 796.201814 
L 468.461225 797.990333 
L 467.106996 799.719606 
L 465.227538 801.717868 
L 460.22243 806.747716 
L 459.095632 808.219486 
L 458.165876 809.793677 
L 457.632237 811.056436 
L 457.265674 812.401193 
L 457.041804 814.324733 
L 456.681994 820.38372 
L 456.275717 821.80852 
L 455.658235 823.147403 
L 454.418187 825.178074 
L 453.171804 827.27012 
L 452.859434 828.170744 
L 452.776207 828.975788 
L 452.906805 829.6875 
L 453.235911 830.308127 
L 453.748205 830.839917 
L 454.689747 831.414662 
L 455.893416 831.840796 
L 457.322899 832.123644 
L 459.371991 832.283825 
L 461.646266 832.23885 
L 464.572785 831.928722 
L 467.598899 831.356128 
L 470.60206 830.539046 
L 472.998751 829.684352 
L 475.239038 828.68532 
L 477.730555 827.328596 
L 480.411745 825.583767 
L 483.248952 823.461769 
L 491.477245 817.073424 
L 493.511029 815.841678 
L 495.642005 814.817004 
L 497.888527 814.014021 
L 500.632305 813.298355 
L 504.302088 812.603837 
L 513.101582 811.055629 
L 515.988634 810.27747 
L 518.40111 809.402101 
L 520.351388 808.487063 
L 522.237 807.387817 
L 524.408794 805.843032 
L 526.475655 804.07598 
L 528.431524 802.112012 
L 530.270339 799.976477 
L 532.259594 797.301996 
L 534.071652 794.468752 
L 535.696888 791.516997 
L 537.125809 788.486786 
L 538.357522 785.405036 
L 539.540273 781.827411 
L 540.503261 778.196226 
L 541.350116 774.054624 
L 541.975383 769.861437 
L 542.446652 765.152272 
L 542.740785 759.92491 
L 542.858104 753.704062 
L 542.769092 745.059531 
L 542.579774 729.800129 
L 542.743763 723.712997 
L 543.092429 718.641884 
L 543.623738 714.108385 
L 544.703376 705.937751 
L 544.865698 702.61717 
L 544.766485 699.649881 
L 544.465153 697.06831 
L 543.924523 694.369198 
L 542.977052 691.019728 
L 541.484555 686.694183 
L 539.383867 680.654425 
L 539.278567 679.699558 
L 539.422751 679.452877 
L 539.713711 679.431774 
L 540.308225 679.714287 
L 541.341402 680.489066 
L 543.527442 682.449024 
L 550.809359 689.395199 
L 553.226635 692.017171 
L 555.109198 694.368925 
L 556.762676 696.805212 
L 558.443133 699.72915 
L 560.112226 703.140037 
L 562.134051 707.867882 
L 565.156004 714.999944 
L 566.753219 718.173233 
L 568.338171 720.806513 
L 570.359602 723.663049 
L 572.835365 726.732787 
L 576.632655 731.018049 
L 581.916798 736.973647 
L 584.393894 740.097177 
L 586.4284 743.013108 
L 588.781122 746.819015 
L 591.652887 751.935217 
L 596.516193 760.65751 
L 598.929498 764.495111 
L 601.298601 767.811524 
L 604.393121 771.702573 
L 613.005873 782.27818 
L 614.899692 785.048478 
L 616.352338 787.527992 
L 617.578318 790.076128 
L 618.741333 793.068207 
L 620.102024 797.284908 
L 622.220758 803.918904 
L 623.459312 807.041161 
L 624.779431 809.750514 
L 626.139515 812.044977 
L 630.320856 818.554281 
L 631.018446 820.153892 
L 631.476947 821.803571 
L 631.626375 823.080662 
L 631.592786 824.394197 
L 631.314021 826.18735 
L 630.712816 828.460977 
L 629.010751 834.206558 
L 628.788221 835.829404 
L 628.810078 836.97462 
L 629.015039 838.053632 
L 629.534855 839.407852 
L 630.279306 840.692047 
L 631.680867 842.550288 
L 634.73847 846.379564 
L 635.604596 847.795422 
L 636.302315 849.322599 
L 636.966466 851.364157 
L 637.650437 854.372934 
L 638.848816 859.957986 
L 639.523387 861.942878 
L 640.232447 863.408402 
L 641.120276 864.745767 
L 642.167586 865.967379 
L 643.660056 867.358238 
L 645.650628 868.87263 
L 648.494538 870.726239 
L 653.06274 873.670199 
L 654.933549 875.140564 
L 656.285556 876.479788 
L 657.193882 877.650308 
L 657.91907 878.927884 
L 658.442442 880.324924 
L 658.776718 881.834429 
L 658.959472 883.861717 
L 658.9179 886.023779 
L 658.627549 888.764125 
L 658.043568 892.112635 
L 656.728375 898.05947 
L 655.486902 903.996371 
L 655.014013 907.329913 
L 654.858813 910.052049 
L 654.958025 912.195142 
L 655.303693 914.201314 
L 655.900917 916.06073 
L 656.738532 917.769662 
L 657.805224 919.324438 
L 659.089683 920.721383 
L 660.580597 921.956824 
L 662.266653 923.027088 
L 664.136539 923.9285 
L 666.178945 924.657388 
L 668.382558 925.210078 
L 670.736065 925.582897 
L 673.228157 925.77217 
L 675.84752 925.774224 
L 679.126513 925.544027 
L 688.465456 924.711016 
L 690.136303 924.804874 
L 691.557745 925.104178 
L 692.432235 925.491949 
L 693.13917 926.026677 
L 693.700549 926.694026 
L 694.263253 927.763212 
L 694.664676 929.003578 
L 695.086264 931.104348 
L 695.866143 935.326982 
L 696.46071 937.245951 
L 697.249719 939.122665 
L 698.430892 941.313265 
L 699.841881 943.430235 
L 701.455314 945.466604 
L 703.557 947.731195 
L 705.853511 949.865519 
L 708.301379 951.858504 
L 711.228519 953.948931 
L 714.231765 955.824129 
L 718.005726 957.901332 
L 725.628745 962.00495 
L 728.293716 963.738699 
L 730.462526 965.442583 
L 732.176621 967.089399 
L 733.488504 968.621874 
L 734.913928 970.673364 
L 736.635492 973.656169 
L 739.792711 979.25352 
L 741.204874 981.21803 
L 742.746153 982.951489 
L 747.617378 988.111236 
L 748.672518 989.698218 
L 749.558868 991.487396 
L 750.942441 994.993595 
L 751.93451 997.294815 
L 752.938911 999.043467 
L 753.925047 1000.259644 
L 754.802123 1001.031525 
L 755.819107 1001.659191 
L 756.982083 1002.136051 
L 758.708746 1002.592957 
L 761.984892 1003.150811 
L 764.768404 1003.691938 
L 766.466634 1004.242847 
L 767.599504 1004.819239 
L 768.573353 1005.577313 
L 769.357026 1006.55094 
L 769.958351 1007.730433 
L 770.410342 1009.077977 
L 770.838478 1011.069941 
L 771.267684 1014.29191 
L 771.8584 1018.548253 
L 772.339964 1020.455251 
L 772.847607 1021.714289 
L 773.517943 1022.784035 
L 774.374296 1023.637386 
L 775.402813 1024.288381 
L 776.581094 1024.760515 
L 777.88674 1025.077284 
L 779.78701 1025.298573 
L 782.343873 1025.330357 
L 786.076496 1025.112769 
L 793.243443 1024.672018 
L 797.514483 1024.638882 
L 801.116026 1024.847719 
L 804.13295 1025.258132 
L 806.629475 1025.807456 
L 809.052196 1026.562851 
L 811.40938 1027.546794 
L 813.709295 1028.781762 
L 815.960493 1030.286139 
L 818.542053 1032.32913 
L 822.192089 1035.550629 
L 826.975968 1039.728124 
L 829.619484 1041.718274 
L 831.554316 1042.937844 
L 833.537984 1043.93763 
L 835.166008 1044.548688 
L 836.835377 1044.967131 
L 838.546769 1045.189677 
L 840.737647 1045.231558 
L 843.428762 1045.007023 
L 846.631342 1044.484954 
L 856.369698 1042.687635 
L 859.111998 1042.509821 
L 861.359329 1042.603233 
L 863.124917 1042.875249 
L 864.856509 1043.35018 
L 866.980187 1044.182106 
L 872.881305 1046.697887 
L 874.608791 1047.132715 
L 875.930792 1047.286955 
L 877.281241 1047.257535 
L 878.662009 1047.031285 
L 880.535672 1046.503235 
L 886.607556 1044.525317 
L 887.945193 1044.343259 
L 889.237703 1044.382099 
L 890.475 1044.697733 
L 891.648629 1045.334531 
L 892.760523 1046.26335 
L 893.8167 1047.426162 
L 895.148678 1049.240158 
L 897.012248 1052.246248 
L 899.60062 1056.477013 
L 900.707937 1057.901222 
L 901.807255 1058.95029 
L 902.909814 1059.663684 
L 904.026813 1060.083333 
L 905.169448 1060.251165 
L 906.348918 1060.209109 
L 907.892114 1059.925261 
L 910.21736 1059.237206 
L 913.108543 1058.159481 
L 916.989583 1056.452142 
L 921.473515 1054.219485 
L 926.860215 1051.272439 
L 932.880601 1047.719996 
L 938.399088 1044.236558 
L 942.484491 1041.416924 
L 946.050203 1038.691104 
L 949.19919 1036.012673 
L 952.310303 1033.068893 
L 955.415885 1029.816009 
L 958.787195 1025.962293 
L 962.339452 1021.572691 
L 966.211765 1016.419227 
L 969.89472 1011.14042 
L 975.290422 1003.276986 
L 977.798687 1000.134615 
L 980.090755 997.633329 
L 981.896784 995.949529 
L 983.8312 994.447872 
L 985.463874 993.434877 
L 987.166204 992.636489 
L 988.930501 992.079474 
L 990.741853 991.733575 
L 993.047168 991.533581 
L 995.83147 991.525254 
L 1003.35776 991.666986 
L 1005.337496 991.415582 
L 1006.804666 991.015335 
L 1008.150363 990.392221 
L 1009.070028 989.753159 
L 1009.905179 988.947057 
L 1010.64888 987.956051 
L 1011.295176 986.764578 
L 1012.020728 984.897237 
L 1012.76935 982.251486 
L 1015.098189 973.143317 
L 1015.844437 971.531242 
L 1016.510674 970.583321 
L 1017.287719 969.902723 
L 1018.178018 969.487682 
L 1019.171365 969.302121 
L 1020.257156 969.308885 
L 1021.830352 969.552865 
L 1024.407968 970.243437 
L 1028.596613 971.421453 
L 1031.493369 971.949072 
L 1034.922193 972.303087 
L 1039.839832 972.545253 
L 1045.628587 972.867158 
L 1048.876984 973.292682 
L 1051.112566 973.786756 
L 1053.261753 974.488188 
L 1054.909523 975.227638 
L 1056.485928 976.149521 
L 1057.985683 977.269821 
L 1060.122072 979.218775 
L 1064.265527 983.148661 
L 1065.691007 984.190604 
L 1067.176217 984.972405 
L 1068.341673 985.347127 
L 1069.962619 985.579585 
L 1071.647204 985.565754 
L 1073.82085 985.300539 
L 1078.289411 984.423155 
L 1080.973829 984.013164 
L 1083.171806 983.88348 
L 1085.309323 983.948839 
L 1087.363359 984.200129 
L 1089.31089 984.62824 
L 1091.128893 985.224062 
L 1092.794346 985.978485 
L 1094.29332 986.88003 
L 1095.922426 988.121768 
L 1097.950431 989.96843 
L 1101.392706 993.156644 
L 1103.565558 994.827733 
L 1106.332181 996.636414 
L 1109.664032 998.519904 
L 1113.440466 1000.393923 
L 1117.909651 1002.348409 
L 1123.19871 1004.405619 
L 1133.714709 1008.200916 
L 1144.917214 1012.309289 
L 1151.635777 1015.011987 
L 1162.723368 1019.535154 
L 1167.118092 1021.067399 
L 1171.336897 1022.307247 
L 1180.692869 1024.845421 
L 1182.751095 1025.757048 
L 1184.273672 1026.661506 
L 1185.656306 1027.756371 
L 1186.888926 1029.05003 
L 1188.556528 1031.215422 
L 1191.015678 1034.435657 
L 1192.233232 1035.650498 
L 1193.244624 1036.404312 
L 1194.365876 1036.985816 
L 1195.611576 1037.374642 
L 1197.434663 1037.647011 
L 1199.890912 1037.730932 
L 1205.446036 1037.817751 
L 1207.33277 1038.124691 
L 1208.642913 1038.548519 
L 1209.835618 1039.184214 
L 1210.902893 1040.042342 
L 1211.864996 1041.08169 
L 1213.023909 1042.669542 
L 1214.864193 1045.696538 
L 1216.439384 1048.164469 
L 1217.584827 1049.55091 
L 1218.53122 1050.380332 
L 1219.564297 1051.009603 
L 1220.687591 1051.437323 
L 1221.904592 1051.662188 
L 1223.218793 1051.682897 
L 1224.631101 1051.502299 
L 1227.106827 1050.920218 
L 1229.97299 1050.274144 
L 1231.238258 1050.18357 
L 1232.350243 1050.322248 
L 1233.327729 1050.668983 
L 1234.192787 1051.197508 
L 1235.209456 1052.139589 
L 1236.117805 1053.29589 
L 1237.60413 1055.647603 
L 1239.199326 1058.130985 
L 1240.554865 1059.806671 
L 1242.123702 1061.348422 
L 1243.873584 1062.774081 
L 1246.1655 1064.358325 
L 1249.031425 1066.073535 
L 1253.741671 1068.59944 
L 1259.204183 1071.562119 
L 1261.905957 1073.257029 
L 1264.008269 1074.812183 
L 1266.223552 1076.751721 
L 1268.228937 1078.817826 
L 1270.32549 1081.322936 
L 1272.520904 1084.309104 
L 1275.5875 1088.90016 
L 1280.144221 1095.704808 
L 1285.334676 1103.317614 
L 1287.294266 1106.623893 
L 1288.75577 1109.554742 
L 1289.754676 1112.089885 
L 1290.368377 1114.215611 
L 1290.751119 1116.350744 
L 1290.87279 1118.492935 
L 1290.761919 1120.21019 
L 1290.454713 1121.928913 
L 1289.854557 1124.072312 
L 1287.511982 1131.565945 
L 1287.337218 1133.146321 
L 1287.412026 1134.68412 
L 1287.707019 1136.185447 
L 1288.418201 1138.393035 
L 1290.088017 1143.155848 
L 1290.370688 1144.660246 
L 1290.493491 1146.585963 
L 1290.412031 1148.964759 
L 1290.053431 1155.246217 
L 1290.182216 1157.449462 
L 1290.548845 1159.705205 
L 1291.324145 1162.914516 
L 1292.543683 1167.937954 
L 1292.849453 1170.156533 
L 1292.884759 1171.880004 
L 1292.688094 1173.54646 
L 1292.18303 1175.55257 
L 1290.390789 1181.559864 
L 1290.320302 1183.002268 
L 1290.467741 1184.077831 
L 1290.804975 1185.151695 
L 1291.5022 1186.587182 
L 1292.66387 1188.399744 
L 1296.871447 1194.527255 
L 1297.836305 1196.598329 
L 1298.544573 1198.739698 
L 1299.011224 1200.935698 
L 1299.251229 1203.170663 
L 1299.279563 1205.428929 
L 1299.111197 1207.694831 
L 1298.670598 1210.401938 
L 1297.994184 1213.070414 
L 1297.107831 1215.673192 
L 1296.03741 1218.183203 
L 1294.590463 1220.958188 
L 1292.96945 1223.527319 
L 1288.181127 1230.566132 
L 1287.407155 1232.375942 
L 1286.978253 1233.933809 
L 1285.787706 1239.617644 
L 1285.239471 1240.679013 
L 1284.474473 1241.620038 
L 1283.199103 1242.729158 
L 1280.903399 1244.605598 
L 1280.123695 1245.505312 
L 1279.327223 1246.823306 
L 1278.774587 1248.260784 
L 1278.428663 1249.800511 
L 1278.230388 1251.842699 
L 1278.24014 1254.421262 
L 1278.589941 1259.774104 
L 1278.675916 1262.867857 
L 1278.544842 1265.000081 
L 1278.268806 1266.633445 
L 1277.800395 1268.183769 
L 1277.102485 1269.633815 
L 1276.40611 1270.645174 
L 1275.545818 1271.584041 
L 1274.170425 1272.738055 
L 1271.787661 1274.350025 
L 1268.05771 1276.800762 
L 1266.55698 1278.01841 
L 1265.272383 1279.378857 
L 1264.491182 1280.513803 
L 1263.672337 1282.163469 
L 1263.060436 1283.935627 
L 1262.507412 1286.267579 
L 1261.798237 1290.576823 
L 1261.182836 1293.804626 
L 1260.551717 1295.934012 
L 1259.742708 1297.907261 
L 1258.571146 1300.099328 
L 1257.220161 1302.134739 
L 1255.473153 1304.361051 
L 1252.784672 1307.376701 
L 1248.455331 1312.192793 
L 1246.722298 1314.44898 
L 1245.387512 1316.519591 
L 1244.21199 1318.731945 
L 1243.021351 1321.466332 
L 1241.864589 1324.751312 
L 1240.773084 1328.589381 
L 1239.65655 1333.382057 
L 1236.040119 1349.860655 
L 1234.306223 1356.082575 
L 1233.042374 1360.750843 
L 1232.460722 1363.73266 
L 1232.161385 1366.483881 
L 1232.08127 1369.395132 
L 1232.217403 1373.335731 
L 1232.795093 1381.187916 
L 1233.069218 1386.39926 
L 1233.064276 1390.179618 
L 1232.841433 1393.443743 
L 1232.441662 1396.186923 
L 1231.812057 1398.861595 
L 1230.962536 1401.463264 
L 1229.590665 1404.834836 
L 1226.758842 1410.934193 
L 1225.226905 1414.508103 
L 1224.287668 1417.270247 
L 1223.740141 1419.638848 
L 1223.512679 1421.621085 
L 1223.531384 1423.617153 
L 1223.745609 1425.227649 
L 1224.242281 1427.257265 
L 1225.084284 1429.709853 
L 1226.948113 1434.224441 
L 1228.354436 1437.901756 
L 1229.172528 1440.742899 
L 1229.658121 1443.176177 
L 1229.934425 1445.618109 
L 1229.991735 1448.078633 
L 1229.822296 1450.567539 
L 1229.318896 1453.940585 
L 1228.085228 1461.342918 
L 1227.888395 1464.040242 
L 1227.929288 1466.769653 
L 1228.218313 1469.490173 
L 1228.761125 1472.158172 
L 1229.411412 1474.309905 
L 1230.245139 1476.369615 
L 1231.265577 1478.312052 
L 1232.467091 1480.120677 
L 1234.345291 1482.491709 
L 1237.574245 1486.469835 
L 1238.728054 1488.225873 
L 1239.672049 1490.103036 
L 1240.382926 1492.105425 
L 1240.850021 1494.225658 
L 1241.062674 1496.456351 
L 1241.010225 1498.79012 
L 1240.682014 1501.219579 
L 1240.067383 1503.737343 
L 1239.166905 1506.331176 
L 1237.606553 1509.989526 
L 1235.085052 1515.829152 
L 1234.452415 1517.912884 
L 1234.257047 1519.362029 
L 1234.336356 1520.298535 
L 1234.637375 1521.091775 
L 1235.152819 1521.748516 
L 1235.858791 1522.285568 
L 1237.054927 1522.844655 
L 1238.490087 1523.261043 
L 1240.966379 1523.705663 
L 1249.989751 1525.063274 
L 1254.445578 1526.039913 
L 1259.327403 1527.351014 
L 1264.230834 1528.900534 
L 1269.655724 1530.851132 
L 1275.179693 1533.071803 
L 1278.803911 1534.741137 
L 1281.836008 1536.359405 
L 1284.273241 1537.883063 
L 1286.512448 1539.549065 
L 1288.193858 1541.057264 
L 1289.678941 1542.68395 
L 1290.940965 1544.438049 
L 1291.772018 1545.939065 
L 1292.430461 1547.531273 
L 1293.035229 1549.626234 
L 1293.62813 1552.634867 
L 1294.4947 1557.127098 
L 1295.077651 1558.906535 
L 1295.713362 1560.146508 
L 1296.31843 1560.946489 
L 1297.054526 1561.618679 
L 1297.939937 1562.148978 
L 1298.975361 1562.539705 
L 1300.557736 1562.878137 
L 1302.796427 1563.077088 
L 1306.258955 1563.10973 
L 1311.42939 1563.138503 
L 1313.921623 1563.35378 
L 1316.286799 1563.772059 
L 1318.53273 1564.381576 
L 1320.668803 1565.168798 
L 1323.100298 1566.328982 
L 1325.403341 1567.702193 
L 1327.594154 1569.265045 
L 1330.0299 1571.296863 
L 1332.686645 1573.848404 
L 1335.559568 1576.945198 
L 1339.600067 1581.686577 
L 1345.91103 1589.099845 
L 1348.925675 1592.285023 
L 1351.759384 1594.946926 
L 1354.389329 1597.09987 
L 1358.300147 1599.907594 
L 1360.859297 1601.845609 
L 1362.448972 1603.300714 
L 1362.908127 1603.8 
L 1362.908127 1603.8 
" clip-path="url(#pa0ad92f3aa)" style="fill: none; stroke: #0000ff; stroke-width: 0.072"/>
    <path d="M 1512.910997 1603.8 
L 1513.517763 1601.707586 
L 1513.738857 1600.101548 
L 1513.666023 1598.999609 
L 1513.345276 1597.999315 
L 1512.789318 1597.093167 
L 1512.032152 1596.265497 
L 1510.768507 1595.256881 
L 1508.894178 1594.09638 
L 1502.815297 1590.588267 
L 1501.063538 1589.216699 
L 1499.500717 1587.726889 
L 1498.118255 1586.128035 
L 1496.907571 1584.429333 
L 1495.669413 1582.272041 
L 1494.651431 1580.000102 
L 1493.838796 1577.62941 
L 1493.21668 1575.175854 
L 1492.711892 1572.229846 
L 1492.422694 1569.217918 
L 1492.325886 1565.727367 
L 1492.465548 1561.345837 
L 1492.797397 1553.201785 
L 1492.697611 1550.337018 
L 1492.423962 1547.968578 
L 1491.92572 1545.696367 
L 1491.304131 1543.887204 
L 1490.465125 1542.163991 
L 1489.382346 1540.534765 
L 1488.063709 1538.993338 
L 1486.228053 1537.231337 
L 1483.830046 1535.251728 
L 1475.071944 1528.332166 
L 1473.130073 1526.387797 
L 1471.696608 1524.649215 
L 1470.476444 1522.781195 
L 1469.496599 1520.772013 
L 1468.726269 1518.642901 
L 1468.01606 1515.970386 
L 1467.306892 1512.289567 
L 1465.923989 1504.530196 
L 1465.223511 1501.97683 
L 1464.464167 1499.982242 
L 1463.497923 1498.139614 
L 1462.546191 1496.794358 
L 1461.41101 1495.579678 
L 1460.074135 1494.507289 
L 1458.180222 1493.322989 
L 1453.102072 1490.342286 
L 1451.788128 1489.245426 
L 1450.961779 1488.308787 
L 1450.307096 1487.249377 
L 1449.841426 1486.055467 
L 1449.462222 1484.295967 
L 1449.24742 1481.928703 
L 1448.881743 1476.291419 
L 1448.485229 1474.6788 
L 1448.002249 1473.631773 
L 1447.317111 1472.75781 
L 1446.396041 1472.082906 
L 1445.256168 1471.587613 
L 1443.477071 1471.127048 
L 1439.9651 1470.562245 
L 1437.426008 1470.072169 
L 1435.544419 1469.46337 
L 1434.294049 1468.808261 
L 1433.230114 1467.935796 
L 1432.348144 1466.856171 
L 1431.611694 1465.614534 
L 1430.792119 1463.786139 
L 1428.175112 1457.326575 
L 1427.420402 1456.232913 
L 1426.515468 1455.342895 
L 1425.449524 1454.669234 
L 1424.249024 1454.177717 
L 1422.489804 1453.740216 
L 1420.133846 1453.41718 
L 1415.415448 1452.850762 
L 1413.718476 1452.405191 
L 1412.208545 1451.732444 
L 1410.863433 1450.857386 
L 1409.650728 1449.817608 
L 1408.271669 1448.343508 
L 1406.232154 1445.755009 
L 1403.901061 1442.832031 
L 1401.918432 1440.714891 
L 1399.492241 1438.434071 
L 1395.957519 1435.438205 
L 1387.982071 1428.791309 
L 1385.09184 1426.015777 
L 1382.649186 1423.334303 
L 1380.364365 1420.465252 
L 1378.522915 1417.820298 
L 1376.853979 1415.067043 
L 1375.381671 1412.221968 
L 1374.130104 1409.30155 
L 1373.123393 1406.322271 
L 1372.473661 1403.734246 
L 1372.036726 1401.12546 
L 1371.823941 1398.505567 
L 1371.821477 1395.879464 
L 1372.052413 1392.811794 
L 1372.498813 1389.744432 
L 1373.223881 1386.245303 
L 1374.36915 1381.89134 
L 1376.219231 1375.857659 
L 1378.928301 1367.017195 
L 1380.990187 1359.267262 
L 1383.360658 1350.505817 
L 1384.854438 1345.785584 
L 1386.456393 1341.47531 
L 1388.468283 1336.763784 
L 1393.097144 1326.724597 
L 1395.652398 1320.848488 
L 1397.49771 1316.045524 
L 1401.167362 1306.129026 
L 1402.44056 1303.471532 
L 1403.659908 1301.437149 
L 1404.79098 1299.952125 
L 1406.046483 1298.689489 
L 1407.153034 1297.859159 
L 1408.360748 1297.204863 
L 1409.679194 1296.741579 
L 1411.117937 1296.484286 
L 1412.681148 1296.441223 
L 1414.355289 1296.598516 
L 1416.577808 1297.048842 
L 1418.913303 1297.747514 
L 1421.81782 1298.863122 
L 1425.273727 1300.468354 
L 1428.714496 1302.30669 
L 1432.96804 1304.854034 
L 1437.248658 1307.690106 
L 1444.78915 1312.840796 
L 1446.852018 1313.869985 
L 1448.737286 1314.581165 
L 1451.237354 1315.272026 
L 1455.320158 1316.115455 
L 1461.41991 1317.35988 
L 1464.573978 1318.238485 
L 1468.035414 1319.428637 
L 1472.624772 1321.273854 
L 1482.900593 1325.526624 
L 1486.31307 1326.658491 
L 1489.848553 1327.588812 
L 1493.955391 1328.423901 
L 1498.641118 1329.150378 
L 1505.335444 1329.943732 
L 1518.739454 1331.477885 
L 1523.384626 1332.244845 
L 1527.441631 1333.12968 
L 1530.92221 1334.114809 
L 1533.85197 1335.160235 
L 1536.657669 1336.402624 
L 1538.952211 1337.642927 
L 1541.134726 1339.061479 
L 1543.197142 1340.671125 
L 1545.146696 1342.458988 
L 1547.299721 1344.733494 
L 1549.631231 1347.528099 
L 1552.407465 1351.218364 
L 1561.088928 1363.068985 
L 1563.412789 1365.706209 
L 1565.562946 1367.808342 
L 1567.515365 1369.425535 
L 1569.587733 1370.845552 
L 1571.419279 1371.859998 
L 1573.356966 1372.705258 
L 1575.411178 1373.366669 
L 1577.592297 1373.829568 
L 1579.910703 1374.0793 
L 1582.864901 1374.116435 
L 1591.468976 1374.011997 
L 1593.367623 1374.243289 
L 1595.156221 1374.678193 
L 1596.815742 1375.348419 
L 1598.757754 1376.426087 
L 1603.328219 1379.165643 
L 1603.8 1379.381986 
L 1603.8 1379.381986 
" clip-path="url(#pa0ad92f3aa)" style="fill: none; stroke: #0000ff; stroke-width: 0.072"/>
    <path d="M 1603.8 1365.337044 
L 1601.068295 1364.459946 
L 1598.402046 1363.359925 
L 1595.868444 1362.067595 
L 1593.458995 1360.600504 
L 1590.793553 1358.69143 
L 1588.272046 1356.59624 
L 1585.549266 1354.009584 
L 1582.976727 1351.25783 
L 1580.237136 1348.016522 
L 1577.070404 1343.913326 
L 1573.517336 1338.926207 
L 1567.737202 1330.342937 
L 1562.701923 1323.018603 
L 1559.370371 1318.544495 
L 1556.44477 1314.955948 
L 1553.66054 1311.864429 
L 1550.703014 1308.929008 
L 1547.905183 1306.470435 
L 1544.932332 1304.167888 
L 1541.797875 1302.015074 
L 1538.107385 1299.755835 
L 1533.841731 1297.425713 
L 1529.001231 1295.052049 
L 1523.160742 1292.457371 
L 1515.602151 1289.13946 
L 1512.664046 1287.615493 
L 1510.286718 1286.160591 
L 1508.074748 1284.524399 
L 1506.381787 1282.992295 
L 1504.846066 1281.281132 
L 1503.486863 1279.366745 
L 1502.539546 1277.672674 
L 1501.535013 1275.353315 
L 1500.542492 1272.384089 
L 1499.326674 1267.895902 
L 1498.07397 1263.46956 
L 1497.378902 1261.703871 
L 1496.595166 1260.276106 
L 1495.708813 1259.123082 
L 1494.706369 1258.179178 
L 1493.331227 1257.230137 
L 1491.460028 1256.232811 
L 1476.72508 1248.950267 
L 1473.456784 1246.979586 
L 1470.725043 1245.111122 
L 1468.187113 1243.104175 
L 1465.867624 1240.972644 
L 1463.107367 1238.124378 
L 1457.157823 1231.868521 
L 1454.904332 1229.868343 
L 1452.814662 1228.294623 
L 1450.532557 1226.884047 
L 1448.454181 1225.854395 
L 1445.343669 1224.587156 
L 1440.523953 1222.624356 
L 1438.583146 1221.586734 
L 1437.230016 1220.629759 
L 1436.100338 1219.527353 
L 1435.192763 1218.279248 
L 1434.480018 1216.902807 
L 1433.934489 1215.415628 
L 1433.445654 1213.42774 
L 1433.071038 1210.898567 
L 1432.748587 1206.934576 
L 1432.142808 1196.101272 
L 1430.249919 1158.527423 
L 1429.486209 1149.754419 
L 1428.592456 1141.998987 
L 1427.474924 1134.356492 
L 1424.685286 1116.037449 
L 1424.070965 1110.129983 
L 1423.68428 1104.130594 
L 1423.435286 1096.653388 
L 1422.813005 1072.71846 
L 1422.331256 1066.735586 
L 1421.713393 1061.753579 
L 1420.94594 1057.304091 
L 1420.060001 1053.375609 
L 1418.964629 1049.529114 
L 1417.796061 1046.186577 
L 1416.426787 1042.923115 
L 1414.846365 1039.74258 
L 1412.852503 1036.245227 
L 1410.193523 1032.043343 
L 1400.90526 1017.785346 
L 1396.543182 1010.151794 
L 1393.268568 1004.618728 
L 1390.763566 1000.824783 
L 1388.599872 997.933973 
L 1386.55628 995.537658 
L 1384.042208 992.957788 
L 1381.037779 990.219251 
L 1376.85328 986.753864 
L 1367.13264 978.865132 
L 1363.624724 975.61909 
L 1358.785362 970.7765 
L 1352.785311 964.790608 
L 1349.324192 961.65773 
L 1346.329934 959.232043 
L 1342.487539 956.423571 
L 1337.064522 952.770551 
L 1327.738089 946.511714 
L 1324.367719 943.986524 
L 1321.835924 941.819025 
L 1319.779949 939.742039 
L 1318.160687 937.781978 
L 1316.69277 935.619491 
L 1315.140687 932.873078 
L 1311.211661 925.652305 
L 1309.951411 923.845517 
L 1308.554215 922.2087 
L 1306.720449 920.445808 
L 1304.423594 918.603772 
L 1301.335796 916.453556 
L 1295.934734 912.745591 
L 1293.793494 910.971775 
L 1292.1473 909.291113 
L 1290.944622 907.739571 
L 1289.915665 906.028928 
L 1288.881129 903.792152 
L 1287.884275 900.989809 
L 1286.807536 897.199599 
L 1284.815491 890.008302 
L 1283.787923 887.241244 
L 1282.71669 885.046625 
L 1281.649839 883.379515 
L 1280.392924 881.888828 
L 1278.935957 880.586507 
L 1277.295518 879.463511 
L 1275.49006 878.509324 
L 1273.538033 877.713427 
L 1271.028113 876.952485 
L 1268.365591 876.38616 
L 1265.108983 875.947173 
L 1261.738699 875.719483 
L 1257.812704 875.680973 
L 1253.391322 875.86872 
L 1247.595203 876.37237 
L 1237.270751 877.330943 
L 1233.151467 877.465137 
L 1229.986563 877.369791 
L 1226.854227 877.04876 
L 1224.194265 876.559057 
L 1221.123449 875.734808 
L 1217.671969 874.541841 
L 1213.473225 872.833337 
L 1204.501158 869.08812 
L 1201.668832 868.205289 
L 1199.658692 867.790272 
L 1197.397986 867.563465 
L 1194.831528 867.565455 
L 1191.480491 867.819011 
L 1187.501222 868.103501 
L 1185.299589 868.022469 
L 1183.504963 867.712379 
L 1182.120859 867.254128 
L 1180.802109 866.56958 
L 1179.556868 865.646157 
L 1178.083611 864.215621 
L 1176.397385 862.210552 
L 1171.062795 855.465909 
L 1169.513034 854.015704 
L 1168.188227 853.071825 
L 1166.770855 852.36926 
L 1165.637633 852.02794 
L 1164.436887 851.866938 
L 1163.161989 851.905358 
L 1161.806444 852.161977 
L 1159.883009 852.82299 
L 1157.365314 853.980885 
L 1152.357251 856.39756 
L 1150.515553 857.026859 
L 1149.245627 857.246487 
L 1148.09674 857.186371 
L 1147.40725 856.96807 
L 1146.481189 856.38896 
L 1145.669614 855.545258 
L 1144.95529 854.479033 
L 1144.124348 852.783968 
L 1143.223466 850.365924 
L 1140.678556 842.967999 
L 1139.664128 840.929723 
L 1138.510012 839.149535 
L 1137.46971 837.905549 
L 1136.311837 836.817041 
L 1135.023873 835.879698 
L 1133.593297 835.08921 
L 1132.010843 834.44237 
L 1130.29181 833.944301 
L 1128.462717 833.603935 
L 1126.550143 833.43022 
L 1124.580665 833.432106 
L 1122.58086 833.618543 
L 1120.577305 833.998479 
L 1118.596579 834.580865 
L 1116.664468 835.371231 
L 1113.88068 836.815217 
L 1109.966775 838.873295 
L 1108.329338 839.478897 
L 1107.142905 839.717286 
L 1105.992396 839.721951 
L 1104.878 839.44919 
L 1103.797378 838.884528 
L 1102.742788 838.076003 
L 1101.362574 836.715588 
L 1098.962279 833.931602 
L 1096.851074 831.596002 
L 1095.380583 830.300389 
L 1094.232767 829.545585 
L 1093.047494 828.973132 
L 1091.414499 828.462937 
L 1089.728435 828.203529 
L 1087.997029 828.15297 
L 1085.780778 828.319571 
L 1082.608015 828.834993 
L 1075.713452 830.074922 
L 1073.440562 830.234399 
L 1071.648741 830.176238 
L 1069.888837 829.907541 
L 1068.168265 829.389701 
L 1066.488369 828.648938 
L 1064.035631 827.306562 
L 1060.478376 825.35521 
L 1058.933088 824.736269 
L 1057.40358 824.393184 
L 1056.263229 824.344281 
L 1054.744177 824.518154 
L 1053.217619 824.910109 
L 1050.891935 825.775344 
L 1045.558925 827.903054 
L 1043.367501 828.518126 
L 1041.122593 828.941987 
L 1038.85033 829.142721 
L 1036.576842 829.088412 
L 1034.774728 828.839885 
L 1033.00193 828.391363 
L 1031.268656 827.73861 
L 1029.152632 826.707511 
L 1024.635816 824.142539 
L 1022.214494 822.919001 
L 1020.602764 822.301948 
L 1018.987615 821.887953 
L 1017.368643 821.665227 
L 1015.33958 821.630234 
L 1013.304609 821.835125 
L 1011.263767 822.247134 
L 1008.807061 822.968813 
L 1005.930372 824.05257 
L 1001.801339 825.881698 
L 994.312107 829.246383 
L 989.697786 831.026058 
L 984.202472 832.903837 
L 976.077351 835.409731 
L 963.003264 839.437 
L 954.652649 842.242767 
L 947.227099 844.961811 
L 940.767932 847.547594 
L 934.861094 850.136395 
L 929.515529 852.705776 
L 924.335455 855.447226 
L 919.727031 858.140848 
L 914.941452 861.208852 
L 909.014148 865.297536 
L 895.416228 874.813035 
L 888.590415 879.503176 
L 884.747349 882.408507 
L 880.974995 885.544305 
L 876.5532 889.554479 
L 872.246716 893.387986 
L 869.701205 895.405751 
L 867.530322 896.879632 
L 865.744518 897.862873 
L 863.992406 898.571076 
L 862.622874 898.906653 
L 861.28845 899.009706 
L 859.995152 898.855122 
L 858.748939 898.418041 
L 857.550599 897.694568 
L 856.391932 896.717267 
L 854.985522 895.19387 
L 853.335856 893.016562 
L 850.875143 889.290908 
L 847.45867 884.106973 
L 845.623241 881.697277 
L 843.998961 879.901326 
L 842.624717 878.654341 
L 841.174107 877.61528 
L 839.644299 876.806277 
L 837.663714 876.045898 
L 831.61945 874.025849 
L 830.369665 873.271575 
L 829.547127 872.556489 
L 828.8324 871.693303 
L 828.015359 870.347517 
L 827.135583 868.443059 
L 824.850667 863.203065 
L 823.935212 861.758946 
L 823.123189 860.798546 
L 822.178008 859.973627 
L 821.085529 859.302257 
L 819.445409 858.604863 
L 817.221084 857.938019 
L 812.828915 856.691243 
L 811.330969 856.002443 
L 810.384406 855.339893 
L 809.626127 854.517823 
L 809.051823 853.538925 
L 808.635376 852.425574 
L 808.280038 850.771069 
L 808.069178 848.505097 
L 807.635021 840.088832 
L 807.23994 838.477672 
L 806.679825 837.004925 
L 805.965927 835.657022 
L 804.874442 834.127033 
L 803.582233 832.744409 
L 802.111278 831.482651 
L 800.141134 830.090767 
L 797.607984 828.57755 
L 792.844564 826.059277 
L 787.810992 823.322455 
L 784.031942 820.978941 
L 780.765497 818.703648 
L 777.661965 816.275635 
L 775.13711 814.047087 
L 772.841248 811.740399 
L 770.823035 809.373674 
L 769.351007 807.310987 
L 768.14934 805.228883 
L 767.238889 803.135232 
L 766.698483 801.380459 
L 766.349981 799.614393 
L 766.176445 797.477375 
L 766.259796 795.317726 
L 766.589418 793.131972 
L 767.1547 790.916638 
L 767.945027 788.668251 
L 769.13735 785.998723 
L 770.604686 783.273961 
L 772.582365 780.089409 
L 776.44808 774.396535 
L 779.670648 769.486891 
L 781.515499 766.245282 
L 782.636644 763.84943 
L 783.349708 761.885043 
L 783.823881 759.956786 
L 784.024549 758.071009 
L 783.979425 756.595173 
L 783.678623 754.790756 
L 783.121936 753.030309 
L 782.326152 751.31287 
L 781.308056 749.63748 
L 780.084437 748.003177 
L 778.368439 746.094896 
L 776.409668 744.242739 
L 773.856299 742.150608 
L 770.640978 739.846993 
L 766.727024 737.362148 
L 762.124535 734.72717 
L 755.956291 731.487668 
L 738.152343 722.365654 
L 734.930487 720.361506 
L 732.278785 718.4555 
L 730.118028 716.648101 
L 728.102422 714.67316 
L 726.228437 712.49516 
L 724.491099 710.088108 
L 722.877795 707.476437 
L 721.166488 704.29379 
L 719.192969 700.108469 
L 716.834342 694.508664 
L 710.637968 678.926051 
L 710.264594 677.086341 
L 710.1706 675.595233 
L 710.297638 674.072628 
L 710.668839 672.508541 
L 711.392945 670.509361 
L 713.79955 664.511758 
L 714.120648 662.986817 
L 714.176613 661.882529 
L 714.037536 660.819194 
L 713.694451 659.798574 
L 713.163999 658.817416 
L 712.196212 657.564545 
L 710.96959 656.367318 
L 709.136973 654.936402 
L 706.608204 653.294162 
L 702.43918 650.925619 
L 696.930753 647.797627 
L 694.520326 646.183547 
L 692.825731 644.785652 
L 691.453875 643.322161 
L 690.35607 641.776115 
L 689.476427 640.130516 
L 688.630138 638.000452 
L 687.809295 635.264062 
L 685.492697 626.951854 
L 684.552343 624.589924 
L 683.639963 622.805712 
L 682.556564 621.168318 
L 681.615842 620.06616 
L 680.552907 619.094865 
L 678.962623 618.011075 
L 676.854639 616.914204 
L 673.133849 615.101188 
L 672.164759 614.339357 
L 671.744837 613.69427 
L 671.639218 613.214012 
L 671.743688 612.407186 
L 672.241344 611.180296 
L 673.813122 607.881218 
L 674.285633 606.243311 
L 674.456095 604.996207 
L 674.431299 603.764524 
L 674.177395 602.576548 
L 673.660887 601.460366 
L 672.879923 600.426621 
L 671.522209 599.140793 
L 669.097135 597.2969 
L 666.633507 595.387397 
L 665.207252 593.984929 
L 664.352392 592.825431 
L 663.744399 591.549467 
L 663.385493 590.161269 
L 663.239966 588.683259 
L 663.314763 586.61228 
L 663.617487 584.476219 
L 664.30967 581.268328 
L 665.377217 576.362121 
L 665.521772 574.71136 
L 665.399048 573.303241 
L 665.134788 572.400648 
L 664.731743 571.620758 
L 664.197857 570.955595 
L 663.29621 570.233384 
L 662.194913 569.682037 
L 660.912799 569.282643 
L 659.084571 568.968277 
L 656.608393 568.813436 
L 653.41061 568.858762 
L 647.434272 569.221938 
L 641.779519 569.497892 
L 637.772009 569.45373 
L 634.412473 569.174975 
L 631.679122 568.723268 
L 629.526835 568.176022 
L 627.506727 567.456679 
L 625.635753 566.549488 
L 623.930865 565.438696 
L 622.69793 564.392885 
L 621.590822 563.198625 
L 620.618219 561.847849 
L 619.788803 560.332493 
L 619.111254 558.644492 
L 618.593572 556.776664 
L 618.136578 554.238923 
L 617.046729 547.196957 
L 616.528714 545.550895 
L 616.011232 544.515934 
L 615.355163 543.689946 
L 614.535268 543.107042 
L 613.533924 542.791021 
L 612.376038 542.708095 
L 610.657237 542.867174 
L 607.89518 543.424611 
L 604.772841 544.044813 
L 603.220235 544.136266 
L 602.238321 543.981737 
L 601.445719 543.589655 
L 600.82556 542.973976 
L 600.349552 542.162337 
L 599.890213 540.823092 
L 599.503532 538.828028 
L 598.460712 532.388044 
L 597.886046 530.59867 
L 597.109953 528.93113 
L 596.152745 527.410164 
L 595.036796 526.059551 
L 593.784479 524.903069 
L 592.418169 523.964495 
L 590.960239 523.267609 
L 589.433062 522.836187 
L 588.255692 522.70111 
L 586.657142 522.767006 
L 584.621279 523.13865 
L 577.932267 524.686326 
L 576.244018 524.729655 
L 574.979777 524.572886 
L 573.300459 524.122956 
L 571.632552 523.45545 
L 569.162039 522.18455 
L 562.865807 518.714217 
L 560.281832 517.695555 
L 552.363013 514.864892 
L 550.392891 513.776136 
L 547.790373 512.059188 
L 537.141677 504.64093 
L 530.023998 499.950485 
L 526.760474 497.498795 
L 524.258971 495.345066 
L 522.173503 493.278138 
L 520.196697 491.028574 
L 518.071387 488.262337 
L 516.088665 485.32298 
L 514.028235 481.855012 
L 512.147609 478.266744 
L 510.268479 474.202308 
L 508.456753 469.720116 
L 507.060315 465.703929 
L 506.181874 462.549096 
L 505.640691 459.836894 
L 505.379104 457.551695 
L 505.332067 455.306076 
L 505.525943 453.102949 
L 505.890554 451.301572 
L 506.456027 449.533413 
L 507.237619 447.800158 
L 508.250585 446.103494 
L 509.496219 444.441995 
L 514.385525 438.386231 
L 515.191988 436.937677 
L 515.768389 435.421255 
L 516.014113 434.23094 
L 516.081546 432.990864 
L 515.920059 431.266427 
L 515.515604 429.471724 
L 514.742055 427.147612 
L 513.328166 423.784689 
L 510.120436 416.424842 
L 509.162517 413.520029 
L 508.458445 410.658824 
L 508.003641 407.844433 
L 507.793523 405.080061 
L 507.823509 402.368913 
L 508.089018 399.714192 
L 508.585468 397.119105 
L 509.30828 394.586855 
L 510.25287 392.120647 
L 511.414659 389.723687 
L 512.789064 387.399179 
L 514.366904 385.147774 
L 517.274791 381.476957 
L 520.174001 377.733298 
L 521.737862 375.36839 
L 522.860158 373.310053 
L 523.760693 371.193475 
L 524.285254 369.474089 
L 524.60583 367.744532 
L 524.694838 366.01685 
L 524.524697 364.303088 
L 524.210432 363.034149 
L 523.723244 361.784898 
L 522.798815 360.155814 
L 521.619996 358.562736 
L 519.555537 356.219204 
L 515.692523 351.966171 
L 514.533855 350.401406 
L 513.617034 348.813298 
L 512.934286 347.200444 
L 512.462625 345.562856 
L 512.179062 343.900545 
L 512.054105 341.787907 
L 512.14224 339.636679 
L 512.466069 337.004296 
L 513.144536 333.410518 
L 514.845451 326.047139 
L 515.794245 321.434417 
L 516.251999 318.248906 
L 516.438674 315.568952 
L 516.381803 312.952408 
L 516.111679 310.831881 
L 515.60768 308.77566 
L 515.016313 307.183178 
L 514.241361 305.642468 
L 513.014131 303.790799 
L 510.473399 300.570429 
L 508.915778 298.41261 
L 508.095461 296.930639 
L 507.651323 295.782505 
L 507.391161 294.593815 
L 507.344865 293.357484 
L 507.498895 292.079812 
L 507.943564 290.337901 
L 508.743066 288.149394 
L 510.648523 283.247312 
L 510.929865 281.84851 
L 510.936918 280.601868 
L 510.675402 279.214791 
L 509.66328 275.37303 
L 509.807012 274.392508 
L 510.234803 273.352006 
L 511.105974 271.965541 
L 512.778721 269.868071 
L 516.983779 264.784228 
L 518.468333 262.537168 
L 519.748318 260.183218 
L 520.84585 257.737428 
L 521.925232 254.788008 
L 522.936703 251.319915 
L 523.854129 247.336859 
L 524.839038 241.976827 
L 526.400875 232.008656 
L 526.465611 230.054857 
L 526.310284 228.607331 
L 525.915542 227.286229 
L 525.431654 226.391554 
L 524.762836 225.58957 
L 523.887548 224.889523 
L 522.785463 224.300099 
L 520.98303 223.675845 
L 518.883406 223.196133 
L 515.380488 222.649433 
L 508.254747 221.62312 
L 505.711622 220.993956 
L 503.997754 220.336615 
L 502.569854 219.539364 
L 501.422254 218.602411 
L 500.549287 217.525965 
L 500.07138 216.627214 
L 499.665383 215.307158 
L 499.518435 213.848183 
L 499.624304 212.250795 
L 500.063996 210.080606 
L 500.886142 207.297297 
L 502.810598 201.059908 
L 503.253476 198.754346 
L 503.364297 197.007552 
L 503.242664 195.356887 
L 502.910844 193.794191 
L 502.391812 192.310985 
L 501.514756 190.555844 
L 500.425954 188.895099 
L 498.903071 187.003489 
L 496.632792 184.606231 
L 490.644896 178.521866 
L 489.265667 176.713748 
L 488.146324 174.829379 
L 487.263344 172.864691 
L 486.582592 170.818194 
L 485.99844 168.32523 
L 485.541467 165.334262 
L 485.136862 160.968346 
L 484.319295 151.326607 
L 483.806236 148.095299 
L 483.263875 145.865981 
L 482.524934 143.776721 
L 481.762593 142.250285 
L 480.823611 140.889139 
L 479.989865 139.996976 
L 479.036953 139.228078 
L 477.613294 138.362905 
L 474.909639 137.069146 
L 472.634815 135.912149 
L 471.272214 134.977087 
L 470.384121 134.133994 
L 469.645719 133.132559 
L 469.073604 131.955322 
L 468.52197 130.16229 
L 468.056752 127.683366 
L 467.160459 122.09147 
L 466.622153 120.280633 
L 466.063533 119.085366 
L 465.335022 118.068825 
L 464.432561 117.234631 
L 463.381803 116.554423 
L 461.796752 115.835521 
L 459.609608 115.139797 
L 453.710245 113.43929 
L 452.079138 112.676222 
L 450.599246 111.731424 
L 449.259459 110.621027 
L 448.04807 109.361854 
L 446.696559 107.604299 
L 445.504514 105.673423 
L 444.252361 103.173849 
L 442.987418 100.077776 
L 441.57448 95.951215 
L 438.654125 87.106567 
L 437.645956 84.768818 
L 436.681211 82.994941 
L 435.563891 81.407808 
L 434.535425 80.290409 
L 433.366869 79.32313 
L 432.039363 78.51957 
L 430.545368 77.881803 
L 428.490624 77.26148 
L 424.945268 76.473816 
L 421.348711 75.628203 
L 419.209965 74.912805 
L 417.617112 74.16992 
L 416.136212 73.269882 
L 414.419659 71.956488 
L 412.517817 70.160249 
L 410.451771 67.853854 
L 403.834355 60.084409 
L 402.23572 58.634128 
L 400.514333 57.362565 
L 399.029078 56.502135 
L 397.038662 55.618594 
L 394.0868 54.608389 
L 388.940648 52.928307 
L 386.89967 52.037376 
L 384.973888 50.953439 
L 382.416774 49.228051 
L 378.126855 46.28352 
L 376.269383 45.27507 
L 373.947797 44.298747 
L 370.346188 43.098079 
L 366.308294 41.738638 
L 363.933524 40.710914 
L 360.065123 38.670325 
L 357.720665 37.551845 
L 355.708462 36.856039 
L 354.039344 36.536136 
L 352.743048 36.472622 
L 351.40162 36.587686 
L 350.010553 36.898659 
L 348.091854 37.563176 
L 344.637357 39.089491 
L 341.189152 40.54822 
L 339.279697 41.113427 
L 337.898271 41.320902 
L 336.573483 41.288775 
L 335.313316 40.984883 
L 334.111166 40.438801 
L 332.957018 39.69452 
L 331.47552 38.469867 
L 329.327988 36.346955 
L 326.479479 33.530105 
L 324.640267 32.072898 
L 322.74529 30.888426 
L 320.799679 29.946669 
L 318.808566 29.217608 
L 316.366395 28.581223 
L 313.87496 28.156015 
L 310.49174 27.827908 
L 304.89501 27.58186 
L 299.68819 27.2765 
L 295.814378 26.814921 
L 292.443125 26.208945 
L 289.181321 25.403267 
L 286.448386 24.522759 
L 283.856517 23.46795 
L 281.432439 22.228853 
L 279.508465 21.012519 
L 277.925341 19.8 
L 277.925341 19.8 
" clip-path="url(#pa0ad92f3aa)" style="fill: none; stroke: #0000ff; stroke-width: 0.072"/>
   </g>
   <g id="LineCollection_2">
    <path d="M 100.181411 19.8 
L 101.069076 26.1767 
L 101.472124 30.546118 
L 101.575173 34.007582 
L 101.45255 37.033329 
L 101.087941 40.074158 
L 100.55143 42.705549 
L 99.780634 45.371352 
L 98.749475 48.082334 
L 97.431878 50.849263 
L 95.830565 53.674289 
L 92.047986 60.192212 
L 91.102531 62.374396 
L 90.64666 64.022898 
L 90.524654 65.189761 
L 90.610235 66.28961 
L 90.892896 67.31946 
L 91.358844 68.276762 
L 91.994281 69.158968 
L 93.081339 70.214026 
L 94.412488 71.125013 
L 95.955028 71.885892 
L 97.676258 72.490624 
L 100.025227 73.035265 
L 103.528752 73.551836 
L 108.527603 74.26551 
L 110.829633 74.820496 
L 112.503629 75.438259 
L 114.401271 76.417265 
L 116.135981 77.576739 
L 118.400237 79.402484 
L 123.932285 84.052685 
L 127.818052 86.952227 
L 132.681004 90.278673 
L 138.579755 94.01879 
L 146.766793 98.917846 
L 162.993566 108.565381 
L 173.948636 115.479131 
L 184.440749 122.018445 
L 190.980459 125.834 
L 196.390156 128.749604 
L 201.489685 131.254054 
L 206.707349 133.557902 
L 216.850271 137.702895 
L 222.942295 140.316892 
L 227.595079 142.55701 
L 231.272448 144.57572 
L 234.417357 146.55038 
L 237.05628 148.443713 
L 239.575106 150.514053 
L 241.959754 152.782911 
L 243.88627 154.901956 
L 245.69789 157.190717 
L 247.972738 160.428666 
L 253.47036 168.434189 
L 255.210223 170.526138 
L 256.738129 172.068682 
L 258.358586 173.385769 
L 259.735211 174.250046 
L 261.193518 174.925684 
L 262.733337 175.415957 
L 264.763586 175.793261 
L 266.899942 175.93924 
L 269.586906 175.8549 
L 272.389033 175.540577 
L 276.268865 174.860954 
L 283.827617 173.218392 
L 288.942231 172.213637 
L 293.524004 171.55686 
L 297.562429 171.186693 
L 301.556346 171.022531 
L 305.493984 171.069113 
L 309.363572 171.331181 
L 313.153341 171.813475 
L 316.851519 172.520733 
L 320.446337 173.457697 
L 323.497761 174.469697 
L 326.453152 175.664369 
L 329.304625 177.04489 
L 332.044295 178.614434 
L 334.664276 180.376177 
L 337.156683 182.333295 
L 339.51724 184.484768 
L 342.077359 187.146251 
L 344.829719 190.332632 
L 348.972115 195.513784 
L 354.048817 201.792648 
L 358.405958 206.703903 
L 362.310684 211.205206 
L 364.492297 214.044775 
L 366.186042 216.621779 
L 367.435165 218.926524 
L 368.464745 221.340142 
L 369.29121 223.847492 
L 370.16642 227.26589 
L 374.188974 245.521002 
L 374.472182 248.722379 
L 374.577338 252.449897 
L 374.488581 258.027582 
L 374.315782 267.821922 
L 374.53241 275.028003 
L 374.562053 279.831603 
L 374.388953 282.755993 
L 374.059977 285.150659 
L 373.51915 287.42009 
L 372.875779 289.200652 
L 372.030846 290.867837 
L 370.96072 292.41025 
L 369.666804 293.830169 
L 368.175175 295.143345 
L 366.162425 296.601237 
L 363.566266 298.175175 
L 359.950547 300.066886 
L 349.115631 305.521192 
L 345.191213 307.864732 
L 341.030781 310.623593 
L 336.621397 313.837438 
L 331.922756 317.544063 
L 325.765544 322.715882 
L 306.290805 339.607148 
L 303.066363 342.681875 
L 300.934301 344.984565 
L 299.456783 346.870699 
L 298.523183 348.365835 
L 297.901303 349.77926 
L 297.649898 350.838033 
L 297.623542 351.806839 
L 297.825796 352.658733 
L 298.260221 353.366772 
L 298.740543 353.787189 
L 299.354964 354.100165 
L 300.38539 354.330691 
L 301.658601 354.326301 
L 303.556158 354.021062 
L 306.182917 353.335946 
L 316.617563 350.349225 
L 320.628786 349.528804 
L 325.112919 348.851656 
L 329.562921 348.418063 
L 333.974676 348.21065 
L 338.344067 348.212041 
L 343.144254 348.437349 
L 347.881413 348.875158 
L 353.012752 349.573738 
L 358.506975 350.55891 
L 364.326046 351.842392 
L 369.090524 353.097288 
L 371.44899 353.963544 
L 372.834799 354.6759 
L 374.021551 355.530522 
L 374.755278 356.28258 
L 375.334972 357.143672 
L 375.743777 358.125406 
L 375.983942 359.225914 
L 376.072642 360.855802 
L 375.936361 362.642905 
L 375.515467 365.050419 
L 374.609782 368.636051 
L 371.516428 379.998093 
L 370.3668 385.395689 
L 369.564187 390.176178 
L 368.987975 394.872295 
L 368.633755 399.518902 
L 368.497116 404.150862 
L 368.572795 408.80212 
L 368.903175 414.421175 
L 369.555229 421.46364 
L 371.236404 438.587774 
L 372.641898 456.508425 
L 373.310305 461.429686 
L 374.129491 465.931324 
L 375.350828 471.360586 
L 377.118172 478.154034 
L 383.140943 499.817152 
L 384.542701 504.00583 
L 386.002145 507.665777 
L 387.508866 510.817925 
L 389.024679 513.488525 
L 390.992719 516.441735 
L 394.483357 521.592628 
L 395.730455 523.904933 
L 396.549866 525.924146 
L 397.2859 528.454431 
L 398.238223 532.814783 
L 399.093781 536.309427 
L 399.818113 538.443467 
L 400.74972 540.516726 
L 402.103837 542.937128 
L 403.926845 545.69624 
L 407.081557 549.973594 
L 410.510511 554.701911 
L 412.303851 557.559181 
L 413.622038 560.099964 
L 414.713031 562.731113 
L 415.770707 565.87965 
L 417.313403 571.34535 
L 418.785086 576.258984 
L 419.928392 579.251939 
L 421.12459 581.691945 
L 422.320537 583.6144 
L 423.735098 585.417945 
L 425.379838 587.097875 
L 427.596246 588.984098 
L 430.819869 591.356964 
L 437.800309 596.342948 
L 440.017851 598.241191 
L 441.663873 599.934693 
L 442.813086 601.381713 
L 444.027213 603.309458 
L 445.007294 605.355561 
L 445.768023 607.504738 
L 446.324093 609.741708 
L 446.690199 612.051188 
L 446.899462 614.89676 
L 446.881726 617.798331 
L 446.608006 621.219045 
L 446.100194 624.6381 
L 445.28509 628.490046 
L 444.028601 633.172208 
L 441.283938 643.016701 
L 440.686826 646.041205 
L 440.374427 648.600386 
L 440.292846 651.132974 
L 440.433131 653.225953 
L 440.789755 655.305407 
L 441.367741 657.373456 
L 442.315902 659.842756 
L 443.493996 662.301676 
L 445.33501 665.569766 
L 448.166666 670.057089 
L 452.315767 676.609393 
L 454.155573 679.912963 
L 455.996803 683.654775 
L 458.009853 688.260161 
L 461.035917 695.858352 
L 463.995486 703.08595 
L 466.532962 708.637289 
L 470.541859 716.798004 
L 476.509784 728.964426 
L 479.066033 734.685218 
L 481.020179 739.568188 
L 482.577217 744.044326 
L 483.761527 748.105502 
L 484.614212 751.743168 
L 485.25763 755.40886 
L 485.749909 759.574416 
L 486.069793 764.270234 
L 486.242028 770.510307 
L 486.555827 788.791433 
L 486.858502 791.671771 
L 487.27506 793.788372 
L 487.744527 795.22572 
L 488.357157 796.381452 
L 488.922841 797.033387 
L 489.589115 797.477738 
L 490.363457 797.695421 
L 491.239004 797.692849 
L 492.198976 797.49406 
L 493.58093 796.965935 
L 495.415702 795.964277 
L 497.671111 794.410459 
L 500.212704 792.348587 
L 502.580114 790.142373 
L 504.780057 787.803844 
L 506.821735 785.341702 
L 508.973091 782.387622 
L 510.943487 779.29644 
L 512.74666 776.081141 
L 514.592447 772.331745 
L 516.439275 768.023283 
L 518.09725 763.589379 
L 519.734917 758.597473 
L 521.466407 752.587993 
L 523.376547 745.106289 
L 525.189734 737.124976 
L 526.563021 730.068074 
L 527.612086 723.475376 
L 528.35269 717.352959 
L 528.811034 711.704763 
L 529.021184 706.532959 
L 529.012395 701.369288 
L 528.767128 696.216342 
L 528.324191 691.543334 
L 527.658146 686.883279 
L 526.756367 682.237653 
L 525.514979 677.113353 
L 523.137982 668.477571 
L 521.411299 661.934513 
L 520.532287 657.835347 
L 519.975199 654.242428 
L 519.708925 651.182969 
L 519.668445 648.241219 
L 519.867051 645.599796 
L 520.224229 643.762864 
L 520.640649 642.609614 
L 521.177247 641.797508 
L 521.660795 641.445617 
L 522.215524 641.339725 
L 522.839195 641.481981 
L 523.764664 642.008621 
L 524.779855 642.854032 
L 526.428867 644.561555 
L 529.948107 648.68006 
L 544.142327 665.255191 
L 558.590943 682.234909 
L 566.979434 692.440409 
L 573.964169 701.275248 
L 580.492679 709.895004 
L 586.355152 717.998889 
L 591.86762 725.984434 
L 599.6222 737.684719 
L 607.712672 749.78167 
L 612.168587 756.059595 
L 615.823877 760.843947 
L 619.176366 764.861688 
L 620.731712 766.835328 
L 621.884822 768.685146 
L 623.239884 771.418809 
L 625.988606 777.114618 
L 629.849264 784.90395 
L 631.60781 789.082241 
L 634.079163 795.692502 
L 636.241763 801.262326 
L 637.798249 804.670862 
L 639.167953 807.201161 
L 640.920491 809.955015 
L 643.045502 813.31033 
L 643.908724 815.011679 
L 644.539485 816.763558 
L 644.902431 818.58104 
L 645.077817 820.829899 
L 645.400188 828.867917 
L 645.964351 831.899126 
L 647.794595 840.660399 
L 648.713427 845.737346 
L 649.404656 848.191082 
L 650.199604 850.130162 
L 651.013567 851.590372 
L 652.234832 853.310542 
L 653.941553 855.25072 
L 656.169792 857.393069 
L 664.730338 865.225365 
L 666.084534 866.888122 
L 667.250457 868.650504 
L 668.233935 870.509762 
L 669.193569 872.858645 
L 669.93613 875.324295 
L 670.486516 877.894314 
L 670.918966 881.008036 
L 671.185123 884.694598 
L 671.264306 888.970076 
L 671.131835 895.303113 
L 671.059878 900.146063 
L 671.245329 902.854942 
L 671.539966 904.512407 
L 672.013819 906.013914 
L 672.703244 907.327582 
L 673.383653 908.170386 
L 674.220536 908.87659 
L 675.213145 909.445105 
L 676.748194 910.009643 
L 678.484806 910.380369 
L 680.87216 910.61661 
L 683.941498 910.643731 
L 688.669665 910.387925 
L 692.732024 910.222062 
L 695.094091 910.327315 
L 696.838819 910.604097 
L 698.422814 911.104315 
L 699.489154 911.652776 
L 700.755428 912.607756 
L 701.87114 913.780327 
L 702.866082 915.128732 
L 703.985316 916.997891 
L 705.827346 920.630123 
L 708.938093 926.706347 
L 711.180243 930.587249 
L 713.128966 933.519168 
L 714.979191 935.917203 
L 716.692891 937.822483 
L 718.541266 939.567564 
L 720.539811 941.132415 
L 722.684907 942.519862 
L 725.329052 943.964578 
L 729.265072 945.825376 
L 736.343302 949.122764 
L 738.928024 950.577993 
L 741.003267 951.977796 
L 742.921451 953.550824 
L 744.695154 955.28586 
L 746.611649 957.485768 
L 748.643814 960.189284 
L 751.024362 963.777046 
L 759.100809 976.428423 
L 762.030613 980.35157 
L 764.877404 983.793047 
L 767.914726 987.096772 
L 770.823961 989.9374 
L 773.909798 992.639693 
L 777.164731 995.204354 
L 780.956693 997.903651 
L 785.310866 1000.704786 
L 789.82302 1003.346225 
L 795.311656 1006.28516 
L 801.349007 1009.259157 
L 808.755409 1012.653239 
L 818.705702 1016.959638 
L 825.984612 1019.90011 
L 831.982901 1022.0958 
L 837.158759 1023.77334 
L 841.95334 1025.115895 
L 846.815213 1026.245925 
L 851.309353 1027.067715 
L 855.888848 1027.674323 
L 860.095078 1028.020728 
L 864.868724 1028.184132 
L 877.930808 1028.463984 
L 881.730675 1028.831944 
L 884.987527 1029.376421 
L 887.713109 1030.051356 
L 890.365615 1030.949283 
L 893.366972 1032.221564 
L 902.64709 1036.36953 
L 904.571561 1036.920298 
L 906.471268 1037.229752 
L 907.975779 1037.268147 
L 909.468861 1037.091876 
L 910.952784 1036.695599 
L 912.798874 1035.926373 
L 914.64009 1034.898708 
L 916.850531 1033.393569 
L 919.8144 1031.064687 
L 927.440881 1024.87999 
L 930.223245 1022.990556 
L 933.463429 1021.056138 
L 937.973706 1018.659529 
L 948.096429 1013.40938 
L 951.181188 1011.506297 
L 953.358166 1009.896392 
L 955.027437 1008.383214 
L 956.239298 1007.033423 
L 957.319202 1005.539105 
L 958.255321 1003.889964 
L 959.271611 1001.663473 
L 962.55887 993.913072 
L 963.544029 992.316571 
L 964.690643 990.893395 
L 965.990336 989.635061 
L 967.424458 988.522161 
L 969.377739 987.305985 
L 971.909184 986.053128 
L 975.041513 984.793469 
L 986.329001 980.537621 
L 989.171815 979.048702 
L 992.243185 977.16463 
L 995.539876 974.866044 
L 1000.163695 971.336552 
L 1006.704731 966.368361 
L 1010.547397 963.758553 
L 1013.72733 961.854955 
L 1016.58048 960.379626 
L 1019.494341 959.127898 
L 1022.036431 958.266219 
L 1024.616239 957.628691 
L 1027.230594 957.242337 
L 1029.876522 957.112125 
L 1032.551297 957.215326 
L 1035.252212 957.527451 
L 1038.432702 958.122984 
L 1042.101079 959.061101 
L 1046.26308 960.375422 
L 1051.387531 962.237748 
L 1067.315266 968.212789 
L 1071.510139 969.454872 
L 1075.216933 970.308563 
L 1078.437879 970.816926 
L 1082.078999 971.14798 
L 1087.407913 971.369526 
L 1093.321534 971.650548 
L 1096.504665 972.034634 
L 1098.779027 972.51293 
L 1100.944852 973.204967 
L 1103.003363 974.126338 
L 1104.974313 975.245276 
L 1107.191623 976.752446 
L 1109.964765 978.921604 
L 1118.785726 986.070263 
L 1121.566835 987.87541 
L 1124.503276 989.504559 
L 1127.972857 991.153272 
L 1132.007869 992.791934 
L 1136.629562 994.407287 
L 1142.284535 996.136642 
L 1151.696207 998.740428 
L 1161.200747 1001.444111 
L 1167.006385 1003.335275 
L 1172.25972 1005.295289 
L 1177.839889 1007.631112 
L 1183.732691 1010.357457 
L 1189.927614 1013.476213 
L 1196.821058 1017.196416 
L 1205.579996 1022.189517 
L 1223.141856 1032.528933 
L 1262.422396 1055.961402 
L 1267.868616 1059.539198 
L 1272.014431 1062.50704 
L 1275.64447 1065.353974 
L 1279.110991 1068.367364 
L 1282.066055 1071.241449 
L 1284.543199 1073.93966 
L 1286.863434 1076.785623 
L 1289.01206 1079.790497 
L 1290.986323 1082.949419 
L 1292.792767 1086.245055 
L 1294.632872 1090.094066 
L 1296.27884 1094.068597 
L 1297.740336 1098.143497 
L 1299.159621 1102.758288 
L 1300.487399 1107.900637 
L 1301.587739 1113.067681 
L 1302.549456 1118.678662 
L 1303.336148 1124.659574 
L 1303.91915 1130.902249 
L 1304.259412 1136.903538 
L 1304.376221 1142.795884 
L 1304.27259 1149.174953 
L 1303.924373 1156.276729 
L 1303.245332 1168.556993 
L 1303.222021 1173.314461 
L 1303.39785 1177.053599 
L 1303.798724 1180.691017 
L 1304.371957 1183.759611 
L 1305.051318 1186.285612 
L 1306.181553 1189.5134 
L 1308.250923 1194.528235 
L 1309.864067 1198.677859 
L 1310.657014 1201.333469 
L 1311.111651 1203.647547 
L 1311.290292 1205.6174 
L 1311.277351 1207.628375 
L 1311.0328 1210.08744 
L 1310.567769 1212.586251 
L 1309.78805 1215.537185 
L 1308.64463 1218.935447 
L 1306.944838 1223.183977 
L 1304.317826 1229.042741 
L 1294.986827 1249.478835 
L 1292.527566 1255.601114 
L 1284.15965 1277.081412 
L 1281.818416 1282.1123 
L 1278.848669 1287.93454 
L 1274.782047 1295.385295 
L 1265.59575 1312.063616 
L 1262.609195 1318.025859 
L 1260.248567 1323.220167 
L 1258.291945 1328.063481 
L 1256.54318 1332.985342 
L 1254.854784 1338.433286 
L 1253.375496 1343.951244 
L 1251.985311 1349.993668 
L 1250.706274 1356.558453 
L 1249.551001 1363.636555 
L 1248.461619 1371.684024 
L 1247.355541 1381.612054 
L 1246.225322 1393.807748 
L 1245.483048 1404.057363 
L 1245.023776 1413.356421 
L 1244.81357 1422.203177 
L 1244.839512 1430.151293 
L 1245.091972 1438.149992 
L 1245.557518 1445.741448 
L 1246.211792 1452.924654 
L 1247.085398 1460.139598 
L 1248.182173 1467.328692 
L 1249.410514 1473.964085 
L 1250.839624 1480.479393 
L 1252.349112 1486.380625 
L 1254.036823 1492.099989 
L 1255.755022 1497.185366 
L 1257.629109 1502.053984 
L 1259.489745 1506.298572 
L 1260.82513 1508.830753 
L 1261.937261 1510.501712 
L 1263.238837 1512.019837 
L 1264.450616 1513.101737 
L 1265.841012 1514.048061 
L 1267.820942 1515.054095 
L 1270.462526 1516.085412 
L 1279.431627 1519.303217 
L 1282.578015 1520.81315 
L 1285.594195 1522.505269 
L 1288.883449 1524.627228 
L 1292.006187 1526.910833 
L 1295.322589 1529.622427 
L 1298.768581 1532.744645 
L 1303.603379 1537.492089 
L 1308.680335 1542.417943 
L 1311.661807 1545.027705 
L 1314.468781 1547.201095 
L 1317.468561 1549.212059 
L 1321.03817 1551.325817 
L 1328.086464 1555.166429 
L 1333.075992 1558.001725 
L 1336.703096 1560.327972 
L 1339.798415 1562.586037 
L 1343.146902 1565.317339 
L 1346.725156 1568.547976 
L 1350.520399 1572.283996 
L 1355.194166 1577.216535 
L 1368.894729 1591.938758 
L 1375.578684 1598.709845 
L 1376.841821 1600.402693 
L 1377.677997 1601.823206 
L 1378.486591 1603.695317 
L 1378.523102 1603.8 
L 1378.523102 1603.8 
" clip-path="url(#pa0ad92f3aa)" style="fill: none; stroke: #ff0000; stroke-width: 0.072"/>
    <path d="M 1496.741244 1603.8 
L 1495.441941 1602.190888 
L 1493.682314 1600.354705 
L 1489.866154 1596.800378 
L 1487.384098 1594.332214 
L 1485.703173 1592.331645 
L 1484.491497 1590.519918 
L 1483.496715 1588.547411 
L 1482.706774 1586.424429 
L 1482.0903 1584.174751 
L 1481.535297 1581.341401 
L 1481.019744 1577.404168 
L 1479.551453 1564.000047 
L 1478.942778 1561.254164 
L 1478.14459 1558.657033 
L 1477.001456 1555.78859 
L 1475.666574 1553.059909 
L 1473.955321 1550.066481 
L 1471.380072 1546.073505 
L 1465.048609 1536.473634 
L 1461.295121 1530.188494 
L 1455.296043 1519.614093 
L 1449.647881 1509.807794 
L 1445.95787 1503.825499 
L 1442.607589 1498.816078 
L 1439.362928 1494.378334 
L 1435.973766 1490.115191 
L 1432.1476 1485.677771 
L 1428.169744 1481.411437 
L 1423.726933 1476.988082 
L 1419.130616 1472.720778 
L 1414.048852 1468.296876 
L 1408.112422 1463.433539 
L 1391.086525 1449.72495 
L 1386.65818 1445.753929 
L 1383.049343 1442.226201 
L 1379.90759 1438.855158 
L 1377.214082 1435.665628 
L 1374.665519 1432.312826 
L 1372.275882 1428.804006 
L 1370.057896 1425.155012 
L 1368.024283 1421.381705 
L 1366.187766 1417.499944 
L 1364.561064 1413.52559 
L 1363.156902 1409.474503 
L 1361.987999 1405.362545 
L 1361.156762 1401.66919 
L 1360.530396 1397.95141 
L 1360.117837 1394.220343 
L 1359.928018 1390.48713 
L 1359.969876 1386.762908 
L 1360.250578 1383.058663 
L 1360.748334 1379.382827 
L 1361.606451 1374.837649 
L 1362.863265 1369.472417 
L 1366.620763 1354.164218 
L 1368.730596 1344.06554 
L 1369.606469 1341.147698 
L 1370.566218 1338.673464 
L 1371.572772 1336.613471 
L 1372.98948 1334.277261 
L 1374.862325 1331.652129 
L 1381.50676 1322.68847 
L 1383.098625 1319.96313 
L 1384.286466 1317.457786 
L 1385.278416 1314.781105 
L 1386.234384 1311.495237 
L 1387.372755 1306.65386 
L 1389.035509 1299.549862 
L 1389.980568 1296.497906 
L 1390.959369 1294.103172 
L 1391.93166 1292.30337 
L 1393.066294 1290.705311 
L 1394.356408 1289.310607 
L 1395.791503 1288.117932 
L 1397.361079 1287.125964 
L 1399.054639 1286.333376 
L 1400.861681 1285.738844 
L 1402.771706 1285.341043 
L 1404.774216 1285.13865 
L 1406.858711 1285.130338 
L 1409.014691 1285.314783 
L 1411.68161 1285.784745 
L 1414.419613 1286.494522 
L 1417.681815 1287.569444 
L 1421.943205 1289.238974 
L 1428.126464 1291.951495 
L 1436.01314 1295.396279 
L 1441.79043 1297.649283 
L 1447.830583 1299.764342 
L 1455.025638 1302.032068 
L 1466.046527 1305.229299 
L 1477.544984 1308.635353 
L 1490.29497 1312.73406 
L 1498.447295 1315.223132 
L 1504.101261 1316.735451 
L 1508.679477 1317.752076 
L 1512.653035 1318.422702 
L 1516.038427 1318.786414 
L 1519.259748 1318.898218 
L 1521.924165 1318.764364 
L 1524.080046 1318.46054 
L 1526.093908 1317.967042 
L 1527.565363 1317.394525 
L 1528.523114 1316.819482 
L 1529.220814 1316.131554 
L 1529.53733 1315.536611 
L 1529.64849 1314.870123 
L 1529.528978 1314.128642 
L 1529.154001 1313.308876 
L 1528.261998 1312.102762 
L 1526.997851 1310.798936 
L 1525.026996 1309.086109 
L 1521.843324 1306.658024 
L 1517.210771 1303.439241 
L 1510.756016 1299.259558 
L 1503.026295 1294.238854 
L 1499.508844 1291.679379 
L 1496.196425 1288.969891 
L 1492.742857 1285.832959 
L 1489.140604 1282.258082 
L 1484.487228 1277.309232 
L 1474.140508 1266.17949 
L 1469.967722 1262.08927 
L 1465.862487 1258.389292 
L 1460.454864 1253.84343 
L 1452.198592 1247.246655 
L 1442.025344 1239.077289 
L 1436.586526 1234.414362 
L 1432.448916 1230.580109 
L 1429.539062 1227.618086 
L 1427.149139 1224.901851 
L 1425.24686 1222.447127 
L 1423.552639 1219.907881 
L 1422.289018 1217.655639 
L 1421.219603 1215.32605 
L 1420.36173 1212.912678 
L 1419.70722 1210.417847 
L 1419.163933 1207.416222 
L 1418.77915 1203.883552 
L 1418.568048 1199.804791 
L 1418.490937 1193.310392 
L 1418.354222 1184.852267 
L 1417.97422 1177.314733 
L 1417.339941 1169.294208 
L 1416.354375 1159.848893 
L 1414.936442 1148.511434 
L 1406.109333 1082.915796 
L 1404.46951 1073.218906 
L 1402.85851 1064.947008 
L 1401.221768 1057.641431 
L 1399.586705 1051.315921 
L 1397.864074 1045.52254 
L 1396.072327 1040.262375 
L 1394.238864 1035.529145 
L 1392.203719 1030.893967 
L 1390.163087 1026.776129 
L 1387.926739 1022.759714 
L 1385.480848 1018.85443 
L 1382.817959 1015.067474 
L 1379.95745 1011.395459 
L 1376.614199 1007.481632 
L 1372.77215 1003.352446 
L 1368.432035 999.032501 
L 1363.268355 994.228824 
L 1356.971942 988.692109 
L 1346.924239 980.200019 
L 1318.629394 956.459049 
L 1311.245823 949.885036 
L 1305.271678 944.266189 
L 1300.396431 939.39021 
L 1295.970926 934.660502 
L 1292.000316 930.098608 
L 1288.47833 925.730048 
L 1285.113496 921.204752 
L 1274.262462 906.187239 
L 1271.854112 903.416841 
L 1269.651664 901.22477 
L 1267.643353 899.52798 
L 1265.528947 898.046024 
L 1263.610207 896.952779 
L 1261.574011 896.028195 
L 1259.402123 895.277268 
L 1257.076308 894.704995 
L 1254.579891 894.314862 
L 1251.46374 894.061433 
L 1247.20271 893.95826 
L 1233.10387 893.835927 
L 1229.613867 893.520457 
L 1226.701442 893.063338 
L 1223.403479 892.31018 
L 1219.743996 891.212309 
L 1215.733724 889.753428 
L 1210.063079 887.411394 
L 1201.816548 884.007471 
L 1195.680854 881.745864 
L 1189.50455 879.699885 
L 1182.858439 877.739105 
L 1176.200082 876.009239 
L 1169.547257 874.501689 
L 1162.477039 873.128993 
L 1148.591403 870.559372 
L 1145.249584 869.596062 
L 1142.393011 868.526799 
L 1140.002981 867.401892 
L 1137.674413 866.055825 
L 1135.05456 864.252616 
L 1132.224724 862.028121 
L 1124.1642 855.444853 
L 1122.203585 854.334058 
L 1120.419461 853.580136 
L 1118.093919 852.868427 
L 1115.165463 852.254267 
L 1111.595336 851.760377 
L 1105.469727 851.197305 
L 1099.21926 850.579387 
L 1095.447043 849.998835 
L 1091.776795 849.214553 
L 1087.295395 848.01717 
L 1080.684044 845.971339 
L 1072.696904 843.538392 
L 1067.684246 842.261267 
L 1062.572865 841.180011 
L 1057.383104 840.298161 
L 1052.135304 839.619255 
L 1046.849808 839.146831 
L 1041.546959 838.884427 
L 1036.247098 838.835581 
L 1030.97057 839.003831 
L 1025.737715 839.392715 
L 1020.568876 840.005771 
L 1015.477309 840.839958 
L 1009.995752 841.970002 
L 1003.665039 843.523281 
L 996.01773 845.656476 
L 968.399144 853.634852 
L 947.777971 859.019815 
L 942.562586 860.664914 
L 938.065287 862.318027 
L 934.63141 863.800543 
L 931.454624 865.421834 
L 928.873688 866.995893 
L 926.513264 868.697279 
L 919.373827 874.081424 
L 916.155435 876.024558 
L 910.198511 879.544217 
L 907.80958 881.217462 
L 905.291152 883.240634 
L 902.064288 886.155066 
L 894.777247 892.907896 
L 892.176032 894.977595 
L 888.995975 897.204797 
L 885.580465 899.331085 
L 881.556111 901.585087 
L 876.48022 904.15418 
L 870.778333 906.788099 
L 866.783886 908.436812 
L 863.7039 909.489531 
L 861.112 910.156177 
L 859.002964 910.501813 
L 856.953898 910.621301 
L 854.977661 910.481524 
L 853.457748 910.160776 
L 851.999258 909.635946 
L 850.607904 908.892363 
L 849.279407 907.941602 
L 847.690916 906.505041 
L 845.862748 904.491088 
L 843.497901 901.472225 
L 838.378953 894.773607 
L 836.421859 892.636291 
L 834.689917 891.056149 
L 832.502063 889.396763 
L 829.858153 887.694324 
L 821.728853 882.696022 
L 819.775403 881.087245 
L 818.30057 879.561752 
L 816.99018 877.827443 
L 815.34658 875.143133 
L 813.204174 871.678222 
L 812.117762 870.281093 
L 810.884051 869.049149 
L 809.477748 868.013985 
L 807.545768 866.924145 
L 802.040479 864.076473 
L 800.693141 863.047823 
L 799.515446 861.848026 
L 798.485381 860.498491 
L 797.368031 858.637644 
L 796.21363 856.211534 
L 794.690836 852.346504 
L 792.80447 847.612745 
L 791.594436 845.192228 
L 790.411109 843.338013 
L 789.315426 841.995075 
L 788.070087 840.794251 
L 786.332668 839.467028 
L 784.05132 838.06804 
L 780.823725 836.399767 
L 776.016892 833.933621 
L 773.823741 832.543178 
L 772.190914 831.226087 
L 771.049599 830.035343 
L 770.070121 828.710128 
L 769.022922 826.915794 
L 767.208673 823.179732 
L 766.079891 821.064453 
L 764.990533 819.500408 
L 763.713966 818.160715 
L 761.988798 816.753894 
L 756.682942 812.758106 
L 755.199548 811.278729 
L 753.543756 809.281978 
L 752.058495 807.078767 
L 750.977741 805.11191 
L 750.062527 803.04909 
L 749.334266 800.911858 
L 748.814376 798.721765 
L 748.524271 796.500363 
L 748.485367 794.269202 
L 748.649499 792.49173 
L 748.999072 790.73284 
L 749.54504 789.003562 
L 750.28843 787.311717 
L 751.452161 785.247002 
L 753.107086 782.834461 
L 755.568505 779.710294 
L 760.104897 774.053197 
L 761.575208 771.832846 
L 762.52674 769.98904 
L 763.064635 768.513979 
L 763.396221 767.038753 
L 763.531174 765.565239 
L 763.479362 764.095334 
L 763.166994 762.26592 
L 762.597502 760.44882 
L 761.790162 758.647742 
L 760.764249 756.866393 
L 759.271777 754.760037 
L 757.525624 752.693839 
L 755.212258 750.342576 
L 752.651833 748.064867 
L 749.490959 745.564887 
L 745.730142 742.902037 
L 741.42893 740.154489 
L 736.726736 737.423189 
L 731.477907 734.636548 
L 723.746778 730.587266 
L 720.994358 728.862246 
L 719.013135 727.382404 
L 717.168781 725.723065 
L 715.694949 724.117347 
L 714.317306 722.311961 
L 712.818741 719.967049 
L 711.224967 717.023311 
L 709.547877 713.449455 
L 707.258756 707.970662 
L 702.516408 696.439169 
L 698.706786 687.404636 
L 697.220263 683.287705 
L 696.108969 679.520457 
L 695.340605 676.098348 
L 693.673239 668.010492 
L 692.920385 665.599712 
L 692.118953 663.687303 
L 691.115134 661.88404 
L 690.138543 660.533465 
L 688.984736 659.275804 
L 687.632519 658.121304 
L 686.064828 657.07795 
L 683.42157 655.656803 
L 679.838588 653.757093 
L 678.231671 652.687179 
L 677.183689 651.789204 
L 676.313484 650.785127 
L 675.631694 649.668789 
L 675.111148 648.45508 
L 674.616326 646.713645 
L 674.218516 644.393514 
L 673.282266 637.668379 
L 672.627093 635.401758 
L 671.73021 633.271384 
L 670.844668 631.678628 
L 669.814706 630.19612 
L 668.644891 628.834107 
L 667.33979 627.602833 
L 665.536238 626.250525 
L 659.343665 622.033257 
L 658.216992 620.821958 
L 657.317904 619.43662 
L 656.626228 617.893197 
L 656.113767 616.21456 
L 655.682253 613.960957 
L 655.398368 611.087808 
L 655.260566 607.097187 
L 655.04811 600.187863 
L 654.721511 597.455761 
L 654.24042 595.365873 
L 653.68146 593.846426 
L 652.963027 592.464924 
L 652.0959 591.210491 
L 650.819557 589.804358 
L 649.349341 588.558042 
L 647.70662 587.450026 
L 645.537734 586.27267 
L 642.781558 585.062034 
L 638.970837 583.672468 
L 626.89636 579.496145 
L 623.439302 577.999246 
L 620.561138 576.51666 
L 618.240693 575.089871 
L 616.086868 573.495999 
L 614.440685 572.024394 
L 612.649092 570.086821 
L 610.750517 567.656755 
L 607.482927 562.968571 
L 605.17188 559.852173 
L 603.501182 557.948621 
L 601.982439 556.519013 
L 600.314483 555.268447 
L 598.474236 554.220228 
L 595.700815 552.970392 
L 592.103394 551.342414 
L 590.238524 550.235903 
L 588.880282 549.163501 
L 587.356199 547.598708 
L 583.167574 542.886061 
L 581.94509 542.009331 
L 580.609133 541.415772 
L 579.17345 541.0447 
L 576.88345 540.721185 
L 573.696584 540.283173 
L 572.097877 539.871984 
L 570.522868 539.236973 
L 568.585349 538.172217 
L 565.903164 536.383303 
L 562.054971 533.801994 
L 559.699837 532.522155 
L 556.915255 531.287014 
L 553.308899 529.973368 
L 544.633209 526.966601 
L 541.992921 525.744747 
L 539.800015 524.492575 
L 537.314657 522.805917 
L 534.548718 520.630309 
L 531.500174 517.939041 
L 527.140401 513.765475 
L 516.888376 503.888111 
L 511.15265 498.206026 
L 507.292913 494.079084 
L 504.262154 490.532622 
L 501.719704 487.236383 
L 499.6354 484.208804 
L 497.741105 481.076707 
L 496.060523 477.827928 
L 494.783957 474.879968 
L 493.703551 471.827393 
L 492.820738 468.6832 
L 492.130283 465.470141 
L 491.569947 461.743045 
L 491.246051 457.989915 
L 491.150698 454.244838 
L 491.275993 450.541902 
L 491.614041 446.915192 
L 492.22503 442.95725 
L 493.507184 436.568783 
L 494.439617 431.524996 
L 494.856364 428.137781 
L 495.006174 425.128517 
L 494.928866 422.498568 
L 494.592127 419.36331 
L 493.892531 415.244725 
L 492.015986 404.934107 
L 491.695727 401.632225 
L 491.643083 398.811963 
L 491.797541 396.475297 
L 492.166119 394.156249 
L 492.762323 391.858158 
L 493.724813 389.126355 
L 495.087409 385.970629 
L 500.3465 374.456525 
L 501.143042 371.825938 
L 501.56195 369.635984 
L 501.717934 367.445979 
L 501.628797 365.25441 
L 501.333162 363.059921 
L 500.760259 360.420767 
L 499.735908 356.888258 
L 496.381128 346.144417 
L 495.829002 343.411787 
L 495.504448 340.656872 
L 495.377517 337.418003 
L 495.483006 333.690143 
L 495.888947 328.532363 
L 496.581105 320.061635 
L 496.651313 316.304202 
L 496.481315 313.028956 
L 496.066575 309.769651 
L 495.362909 306.066333 
L 494.047864 300.558849 
L 492.214184 292.866198 
L 491.591337 289.29549 
L 491.275972 286.199257 
L 491.214793 283.565782 
L 491.38015 280.510252 
L 491.781538 277.463917 
L 492.399107 274.417369 
L 493.34414 270.923271 
L 494.676912 266.959907 
L 496.44309 262.492354 
L 500.977618 251.557996 
L 501.779075 248.867955 
L 502.228612 246.667705 
L 502.43109 244.516834 
L 502.384596 242.839059 
L 502.127536 241.20552 
L 501.636599 239.621832 
L 500.888476 238.093609 
L 499.860475 236.626324 
L 498.566387 235.217049 
L 496.681652 233.512761 
L 489.938946 227.766766 
L 488.34632 225.982767 
L 487.015449 224.142273 
L 485.95805 222.246645 
L 485.316907 220.691362 
L 484.864209 219.102373 
L 484.554772 217.071556 
L 484.485394 214.998021 
L 484.646429 212.464154 
L 485.129421 209.029934 
L 486.268187 201.655044 
L 486.412544 199.070693 
L 486.324336 196.94016 
L 485.991587 194.838775 
L 485.516072 193.183582 
L 484.663622 191.146355 
L 483.574563 189.136789 
L 482.032885 186.750021 
L 479.438278 183.190235 
L 475.951697 178.405825 
L 474.410843 175.964732 
L 473.322751 173.891453 
L 472.460938 171.775664 
L 471.807097 169.622289 
L 471.238772 167.001441 
L 470.73058 163.470375 
L 469.577159 154.26117 
L 468.982693 151.714748 
L 468.300222 149.642889 
L 467.403519 147.626343 
L 466.257078 145.673314 
L 464.603917 143.409344 
L 462.156205 140.498714 
L 458.619381 136.284474 
L 455.835009 132.507437 
L 450.908693 125.708602 
L 446.822087 120.588084 
L 434.124069 104.951392 
L 427.803029 97.023008 
L 424.367951 93.075091 
L 421.364505 89.939084 
L 417.898832 86.658428 
L 414.276592 83.537859 
L 410.162724 80.295289 
L 405.535117 76.946847 
L 400.378251 73.499152 
L 394.300338 69.714017 
L 386.48869 65.135079 
L 378.896698 60.916581 
L 373.593919 58.211166 
L 369.025984 56.111142 
L 364.801193 54.399274 
L 360.934611 53.052807 
L 357.00224 51.920044 
L 353.447747 51.115708 
L 349.834219 50.522983 
L 346.158337 50.161989 
L 342.88818 50.052029 
L 339.096489 50.150834 
L 334.405811 50.251007 
L 332.147562 50.105354 
L 330.409255 49.821006 
L 328.747108 49.344224 
L 327.158971 48.677281 
L 325.248327 47.647178 
L 321.525918 45.2924 
L 318.863041 43.737021 
L 316.488519 42.595531 
L 313.618072 41.468274 
L 310.65127 40.531521 
L 307.158171 39.65421 
L 302.664551 38.779266 
L 296.66598 37.869614 
L 287.811801 36.548274 
L 283.734383 35.6927 
L 280.67651 34.833721 
L 278.161451 33.922637 
L 275.765714 32.818267 
L 273.875071 31.728556 
L 271.73851 30.212164 
L 269.723574 28.509484 
L 267.179117 26.034823 
L 263.235908 21.796099 
L 261.3675 19.8 
L 261.3675 19.8 
" clip-path="url(#pa0ad92f3aa)" style="fill: none; stroke: #ff0000; stroke-width: 0.072"/>
   </g>
   <g id="LineCollection_3">
    <path d="M 19.8 19.8 
L 1603.8 19.8 
L 1603.8 1603.8 
L 19.8 1603.8 
L 19.8 19.8 
" clip-path="url(#pa0ad92f3aa)" style="fill: none; stroke: #ff0000; stroke-width: 0.072"/>
   </g>
  </g>
 </g>
 <defs>
  <clipPath id="pa0ad92f3aa">
   <rect x="0" y="0" width="1623.6" height="1623.6"/>
  </clipPath>
 </defs>
</svg>
