<?xml version="1.0" encoding="utf-8" standalone="no"?>
<!DOCTYPE svg PUBLIC "-//W3C//DTD SVG 1.1//EN"
  "http://www.w3.org/Graphics/SVG/1.1/DTD/svg11.dtd">
<svg xmlns:xlink="http://www.w3.org/1999/xlink" width="1623.6pt" height="1623.6pt" viewBox="0 0 1623.6 1623.6" xmlns="http://www.w3.org/2000/svg" version="1.1">
 <metadata>
  <rdf:RDF xmlns:dc="http://purl.org/dc/elements/1.1/" xmlns:cc="http://creativecommons.org/ns#" xmlns:rdf="http://www.w3.org/1999/02/22-rdf-syntax-ns#">
   <cc:Work>
    <dc:type rdf:resource="http://purl.org/dc/dcmitype/StillImage"/>
    <dc:date>2024-02-12T20:20:19.730046</dc:date>
    <dc:format>image/svg+xml</dc:format>
    <dc:creator>
     <cc:Agent>
      <dc:title>Matplotlib v3.8.2, https://matplotlib.org/</dc:title>
     </cc:Agent>
    </dc:creator>
   </cc:Work>
  </rdf:RDF>
 </metadata>
 <defs>
  <style type="text/css">*{stroke-linejoin: round; stroke-linecap: butt}</style>
 </defs>
 <g id="figure_1">
  <g id="patch_1">
   <path d="M 0 1623.6 
L 1623.6 1623.6 
L 1623.6 0 
L 0 0 
L 0 1623.6 
z
" style="fill: none"/>
  </g>
  <g id="axes_1">
   <g id="LineCollection_1">
    <path d="M 119.094256 19.8 
L 119.43882 21.33037 
L 119.578372 23.042674 
L 119.497548 24.805988 
L 119.150809 27.068466 
L 118.483038 29.84632 
L 115.610491 40.633385 
L 114.979484 44.272669 
L 114.689345 47.347058 
L 114.675675 49.875268 
L 114.854417 51.891398 
L 115.225738 53.812717 
L 115.808134 55.62765 
L 116.620102 57.324624 
L 117.447397 58.589495 
L 118.438883 59.768185 
L 119.888728 61.134117 
L 121.890251 62.647128 
L 124.508428 64.290472 
L 128.591832 66.53473 
L 134.077894 69.555439 
L 136.9163 71.363223 
L 139.597494 73.341981 
L 142.86967 76.069935 
L 148.46236 81.132892 
L 152.359325 84.523603 
L 155.321798 86.828147 
L 158.796783 89.245658 
L 162.805624 91.751043 
L 167.775302 94.565182 
L 174.14816 97.893685 
L 182.374929 101.934981 
L 194.238059 107.487527 
L 211.822023 115.72546 
L 220.026243 119.820272 
L 226.794863 123.436374 
L 232.57983 126.764084 
L 237.812828 130.018521 
L 242.506257 133.184603 
L 247.051345 136.525734 
L 251.07295 139.758984 
L 253.871694 142.258216 
L 255.845878 144.278226 
L 257.670513 146.47225 
L 259.049721 148.464573 
L 261.036741 151.844971 
L 262.738417 154.637888 
L 264.042683 156.325708 
L 265.191685 157.390255 
L 266.450937 158.163981 
L 267.803611 158.667256 
L 269.230546 158.924415 
L 270.712579 158.959798 
L 272.230551 158.79774 
L 274.150534 158.355419 
L 276.475991 157.562405 
L 283.787085 154.832262 
L 286.825937 154.08814 
L 289.965749 153.574105 
L 293.191345 153.27744 
L 296.487548 153.185424 
L 300.321628 153.314541 
L 304.205452 153.675358 
L 308.116366 154.248891 
L 312.520319 155.12474 
L 316.897631 156.218747 
L 321.690832 157.657299 
L 326.367074 159.294731 
L 330.883155 161.094885 
L 335.219912 163.042824 
L 339.382198 165.144809 
L 343.375907 167.408022 
L 347.206936 169.839646 
L 350.881179 172.446863 
L 354.404533 175.236855 
L 357.782892 178.216806 
L 361.022153 181.393896 
L 364.128211 184.77531 
L 367.101258 188.365192 
L 369.631588 191.7608 
L 371.98236 195.293259 
L 373.888574 198.533127 
L 375.59269 201.853465 
L 377.066369 205.241254 
L 378.292705 208.684058 
L 379.301726 212.171812 
L 380.22949 216.137494 
L 381.224998 221.471685 
L 387.20024 257.882095 
L 387.93448 264.127681 
L 388.360093 269.519895 
L 388.54533 274.503525 
L 388.499525 279.533819 
L 388.25628 283.657803 
L 387.846371 287.26484 
L 387.220278 290.75649 
L 386.469536 293.671664 
L 385.657963 296.035598 
L 384.676754 298.249416 
L 383.512185 300.288771 
L 382.153099 302.142432 
L 380.598455 303.850853 
L 378.539471 305.73139 
L 375.865782 307.835469 
L 370.800298 311.465641 
L 365.367008 315.435275 
L 361.135661 318.806369 
L 358.089674 321.513773 
L 355.840142 323.808112 
L 354.330293 325.652022 
L 353.421159 327.055616 
L 352.823794 328.374825 
L 352.606032 329.297303 
L 352.605636 330.153415 
L 352.84054 330.935087 
L 353.316989 331.639013 
L 354.015931 332.272205 
L 355.255319 333.020881 
L 356.797523 333.678487 
L 359.070389 334.402615 
L 362.711151 335.303045 
L 371.620818 337.396324 
L 374.645478 338.391121 
L 376.875859 339.366333 
L 378.848137 340.471309 
L 380.576025 341.699878 
L 382.073235 343.045873 
L 383.353477 344.503124 
L 384.430465 346.065461 
L 385.31791 347.726717 
L 386.029523 349.480721 
L 386.670669 351.699269 
L 387.102056 354.031831 
L 387.371841 356.883034 
L 387.425997 359.857985 
L 387.272122 363.387743 
L 386.838395 367.957647 
L 385.845156 375.517629 
L 384.765101 384.172456 
L 384.113561 391.402979 
L 383.693084 398.639369 
L 383.49975 405.87539 
L 383.529636 413.104805 
L 383.778823 420.321381 
L 384.24339 427.51888 
L 384.919416 434.691068 
L 385.80298 441.831708 
L 386.969783 449.406594 
L 388.3635 456.930923 
L 389.979371 464.397129 
L 391.812638 471.797642 
L 393.858543 479.124897 
L 396.112327 486.371325 
L 398.569232 493.529358 
L 401.224554 500.5921 
L 404.074131 507.559323 
L 407.114107 514.434611 
L 410.548398 521.642931 
L 414.188669 528.755916 
L 418.030302 535.77792 
L 422.068678 542.713296 
L 426.553918 549.967053 
L 431.249071 557.133739 
L 436.148653 564.218523 
L 441.53616 571.613763 
L 447.138132 578.929833 
L 452.123053 585.481014 
L 454.517806 589.029559 
L 456.169121 591.859478 
L 457.393604 594.348466 
L 458.406959 596.90758 
L 459.19055 599.542826 
L 459.763555 602.246998 
L 460.199662 605.476511 
L 460.42376 608.772276 
L 460.471815 612.600948 
L 460.307657 617.44746 
L 459.677076 627.178286 
L 459.380178 633.883948 
L 459.367147 639.066755 
L 459.575019 643.716361 
L 459.976969 647.852998 
L 460.530876 651.493622 
L 461.292261 655.101565 
L 462.280953 658.678477 
L 463.485277 662.228777 
L 465.233672 666.639687 
L 467.583916 671.911128 
L 474.257966 685.993449 
L 477.074316 691.612468 
L 479.184967 695.358984 
L 481.228939 698.544212 
L 483.182368 701.190723 
L 485.611179 704.053664 
L 489.809883 708.547597 
L 493.364546 712.454364 
L 495.515782 715.109205 
L 497.237542 717.546251 
L 498.814037 720.155284 
L 500.697087 723.768785 
L 503.300436 729.379993 
L 505.150056 733.200376 
L 506.199352 734.87654 
L 506.902454 735.603949 
L 507.443122 735.857915 
L 507.838414 735.838136 
L 508.352386 735.534279 
L 508.85006 734.936387 
L 509.446963 733.814264 
L 510.122467 731.983606 
L 510.847975 729.288784 
L 511.584833 725.638595 
L 512.281886 721.047959 
L 512.872687 715.685589 
L 513.274199 709.903425 
L 513.409791 704.900775 
L 513.336696 700.10722 
L 513.026952 695.033261 
L 512.489594 690.121715 
L 511.737684 685.325115 
L 510.619321 679.721423 
L 507.933537 666.712877 
L 507.181172 661.816895 
L 506.675194 657.134041 
L 506.380351 652.241929 
L 506.330511 647.856185 
L 506.511938 643.565471 
L 506.884181 639.987193 
L 507.377971 637.117478 
L 508.046517 634.485553 
L 508.746341 632.511924 
L 509.58377 630.77048 
L 510.566192 629.2917 
L 511.459233 628.31412 
L 512.441196 627.516917 
L 513.504013 626.893844 
L 514.63962 626.43865 
L 516.149197 626.096217 
L 517.744147 625.994125 
L 519.408714 626.120168 
L 521.127144 626.462141 
L 523.238175 627.140348 
L 525.376855 628.090826 
L 527.516149 629.292413 
L 529.63817 630.720591 
L 532.085665 632.634062 
L 534.838183 635.089244 
L 537.867045 638.109403 
L 541.453436 642.030757 
L 546.103927 647.484572 
L 561.618111 666.003842 
L 567.422075 672.302969 
L 589.42703 695.82757 
L 594.350027 701.628002 
L 599.133797 707.619299 
L 603.445174 713.379078 
L 607.278467 718.854254 
L 610.891455 724.401935 
L 614.01819 729.598253 
L 616.905424 734.814879 
L 624.059875 748.003115 
L 626.322374 751.579135 
L 628.504948 754.629785 
L 632.099283 759.207445 
L 636.541531 764.899341 
L 638.817516 768.153037 
L 640.742978 771.272091 
L 642.784879 775.03045 
L 645.132386 779.839005 
L 657.428518 806.415588 
L 658.813891 810.178081 
L 660.004666 814.116695 
L 661.244232 819.051789 
L 663.21444 828.071915 
L 664.946907 835.553549 
L 666.284441 840.397049 
L 667.727831 844.757904 
L 669.080276 848.194544 
L 670.641772 851.566575 
L 672.203723 854.450789 
L 674.222785 857.66303 
L 681.306303 868.424712 
L 682.555953 870.942528 
L 683.409122 873.112629 
L 684.053653 875.362209 
L 684.454536 877.704355 
L 684.620501 880.121521 
L 684.907029 887.293073 
L 685.247227 888.692463 
L 685.651795 889.576078 
L 686.211614 890.29645 
L 686.926215 890.860594 
L 687.779769 891.291501 
L 689.106233 891.698941 
L 691.013553 892.017124 
L 699.509784 893.071927 
L 701.706426 893.711376 
L 703.339903 894.424481 
L 704.816704 895.35364 
L 705.795609 896.212786 
L 706.648217 897.222842 
L 707.612216 898.774463 
L 708.616452 900.954472 
L 710.18545 905.178702 
L 711.31775 907.913156 
L 712.211872 909.583396 
L 713.499914 911.483089 
L 714.953897 913.20007 
L 716.548732 914.762552 
L 718.613138 916.473315 
L 721.17447 918.304405 
L 725.75765 921.244931 
L 730.300523 924.253309 
L 734.31785 927.19645 
L 738.557694 930.590358 
L 743.007964 934.455448 
L 747.66603 938.802427 
L 752.863037 943.956482 
L 759.564463 950.929662 
L 775.306597 967.430457 
L 780.670991 972.67892 
L 785.526612 977.137323 
L 790.203024 981.12996 
L 794.686499 984.660903 
L 798.936835 987.730193 
L 802.906061 990.34438 
L 806.965189 992.757477 
L 810.686979 994.730619 
L 814.891026 996.689862 
L 819.596776 998.616503 
L 825.266449 1000.688503 
L 836.033946 1004.327684 
L 844.323121 1006.953055 
L 850.38172 1008.635512 
L 855.533496 1009.830963 
L 860.222937 1010.67944 
L 864.438204 1011.208215 
L 868.173701 1011.462241 
L 871.892149 1011.487518 
L 875.127039 1011.302778 
L 878.340172 1010.907818 
L 881.527044 1010.293053 
L 886.458203 1009.057399 
L 891.680626 1007.7834 
L 894.627236 1007.293362 
L 897.082573 1007.128064 
L 899.073108 1007.223898 
L 901.008007 1007.563034 
L 904.32667 1008.473364 
L 906.401404 1008.944389 
L 907.714715 1009.049921 
L 908.970639 1008.919331 
L 910.183995 1008.57394 
L 911.669863 1007.905004 
L 913.759243 1006.674755 
L 917.626554 1004.354736 
L 921.595784 1002.331249 
L 931.786726 997.282751 
L 934.925032 995.450734 
L 937.970251 993.404103 
L 941.284989 990.864875 
L 945.233643 987.519736 
L 958.961215 975.575008 
L 964.266892 971.421746 
L 969.715762 967.450624 
L 974.900462 963.939965 
L 980.20258 960.61246 
L 985.619202 957.480677 
L 991.147334 954.557644 
L 996.34385 952.071639 
L 1001.178933 950.010633 
L 1005.628136 948.348406 
L 1010.123295 946.914909 
L 1014.204103 945.842227 
L 1018.31445 944.995595 
L 1021.989948 944.448422 
L 1025.683352 944.108688 
L 1029.392105 943.98996 
L 1033.113652 944.105804 
L 1036.845443 944.4696 
L 1040.585702 945.077061 
L 1044.803141 946.006612 
L 1049.500761 947.279314 
L 1055.625134 949.188543 
L 1072.204317 954.509785 
L 1076.963413 955.743757 
L 1081.254304 956.627033 
L 1085.073859 957.186103 
L 1089.832284 957.624909 
L 1100.401065 958.497921 
L 1103.42924 958.991066 
L 1105.926595 959.586875 
L 1108.319806 960.385006 
L 1110.609698 961.394575 
L 1113.177503 962.792737 
L 1116.017158 964.606667 
L 1120.542362 967.819735 
L 1125.147772 971.021614 
L 1128.480946 973.056463 
L 1132.331207 975.123943 
L 1136.320064 977.009879 
L 1140.848299 978.902008 
L 1145.931143 980.782921 
L 1152.012825 982.786989 
L 1160.002863 985.159032 
L 1181.547444 991.388542 
L 1187.261932 993.359006 
L 1192.001532 995.221735 
L 1196.213197 997.108665 
L 1199.909638 998.991871 
L 1203.503689 1001.074512 
L 1206.602089 1003.112044 
L 1209.601671 1005.339024 
L 1213.23128 1008.332945 
L 1224.184527 1017.623289 
L 1227.07168 1019.665614 
L 1230.389628 1021.719926 
L 1234.160591 1023.782409 
L 1239.583423 1026.459714 
L 1250.058962 1031.572367 
L 1257.469552 1035.483762 
L 1264.394963 1039.386771 
L 1270.325382 1042.964378 
L 1274.906455 1045.972114 
L 1278.957735 1048.899111 
L 1282.503024 1051.741538 
L 1285.571864 1054.471906 
L 1288.841765 1057.694008 
L 1291.961437 1061.102895 
L 1294.927836 1064.686688 
L 1297.737916 1068.433504 
L 1300.388632 1072.331461 
L 1302.876939 1076.36868 
L 1305.199792 1080.533277 
L 1307.560197 1085.247276 
L 1309.712666 1090.085213 
L 1311.653144 1095.031274 
L 1313.37758 1100.069644 
L 1314.881921 1105.18451 
L 1316.162113 1110.360056 
L 1317.214103 1115.580469 
L 1318.033839 1120.829935 
L 1318.617267 1126.092638 
L 1318.960335 1131.352766 
L 1319.060227 1136.119158 
L 1318.95508 1140.85847 
L 1318.644289 1145.559194 
L 1317.271766 1162.207574 
L 1317.329297 1165.876483 
L 1317.605803 1169.085481 
L 1318.133288 1172.296199 
L 1319.00229 1175.968476 
L 1320.342559 1180.562131 
L 1323.372393 1190.674639 
L 1324.190854 1194.351911 
L 1324.660153 1197.568598 
L 1324.880638 1200.783377 
L 1324.876336 1203.994811 
L 1324.628478 1207.659065 
L 1324.157512 1211.314889 
L 1323.407801 1215.414921 
L 1322.250715 1220.403367 
L 1320.537823 1226.70809 
L 1318.368661 1233.852038 
L 1315.980512 1240.943719 
L 1313.372741 1247.997797 
L 1310.369308 1255.466294 
L 1306.780414 1263.792336 
L 1302.002241 1274.294046 
L 1286.415496 1308.118801 
L 1282.881697 1316.554192 
L 1279.942349 1324.149879 
L 1277.564957 1330.896285 
L 1275.560668 1337.235384 
L 1273.910153 1343.162303 
L 1272.478055 1349.130198 
L 1271.260565 1355.136462 
L 1270.250914 1361.1778 
L 1269.388265 1367.719298 
L 1268.75035 1374.293532 
L 1268.328712 1380.896386 
L 1268.10735 1387.997953 
L 1268.114157 1395.122583 
L 1268.338731 1402.265213 
L 1268.806585 1409.898153 
L 1269.497751 1417.539666 
L 1270.46268 1425.661292 
L 1271.650317 1433.778286 
L 1273.133731 1442.359511 
L 1274.932152 1451.393202 
L 1277.150723 1461.329839 
L 1279.381831 1471.571529 
L 1280.354041 1477.020344 
L 1280.943308 1481.458578 
L 1281.253371 1485.357839 
L 1281.603451 1490.689254 
L 1281.96945 1492.545819 
L 1282.450042 1493.917931 
L 1283.145638 1495.171796 
L 1284.058099 1496.312764 
L 1285.443835 1497.620274 
L 1287.361086 1499.085029 
L 1294.29275 1504.108683 
L 1298.791318 1507.744737 
L 1304.324513 1512.532956 
L 1312.327867 1519.807635 
L 1323.348241 1529.806814 
L 1330.295985 1535.774667 
L 1341.058373 1544.67875 
L 1353.59462 1555.110249 
L 1360.409074 1561.080427 
L 1365.969849 1566.253852 
L 1370.664191 1570.926033 
L 1374.852129 1575.412434 
L 1378.550051 1579.700647 
L 1381.781405 1583.771345 
L 1384.846024 1587.990195 
L 1387.475034 1591.965604 
L 1390.18637 1596.492765 
L 1392.708377 1601.163737 
L 1394.021129 1603.8 
L 1394.021129 1603.8 
" clip-path="url(#p8d699b6964)" style="fill: none; stroke: #0000ff; stroke-width: 0.072"/>
    <path d="M 1479.675477 1603.8 
L 1477.794126 1597.940645 
L 1475.581944 1591.75654 
L 1472.96709 1585.123779 
L 1470.10623 1578.468035 
L 1466.81692 1571.387773 
L 1463.291323 1564.31622 
L 1459.32451 1556.858025 
L 1454.90388 1549.041208 
L 1450.272777 1541.306105 
L 1445.203303 1533.279568 
L 1439.968382 1525.400258 
L 1434.328889 1517.316329 
L 1429.096725 1510.185022 
L 1424.000032 1503.594821 
L 1419.039145 1497.523356 
L 1413.914211 1491.604365 
L 1408.922521 1486.176543 
L 1403.750251 1480.890902 
L 1398.722039 1476.067814 
L 1393.505997 1471.375568 
L 1388.088037 1466.817009 
L 1382.836669 1462.685478 
L 1377.385833 1458.675117 
L 1362.05226 1447.67198 
L 1358.833399 1444.99066 
L 1356.176465 1442.510178 
L 1354.043656 1440.24748 
L 1352.119396 1437.88384 
L 1350.657247 1435.7668 
L 1349.38653 1433.556301 
L 1348.324883 1431.243436 
L 1347.489941 1428.819299 
L 1346.888099 1426.280287 
L 1346.488114 1423.640559 
L 1346.22441 1420.457426 
L 1346.110897 1416.244812 
L 1345.954768 1401.965383 
L 1345.489675 1396.418025 
L 1344.117758 1381.773055 
L 1344.046038 1377.917588 
L 1344.19927 1374.534798 
L 1344.581707 1371.190552 
L 1345.177706 1367.881045 
L 1346.080029 1364.194557 
L 1347.201992 1360.541632 
L 1348.673605 1356.51549 
L 1350.523434 1352.117718 
L 1352.956635 1346.948842 
L 1356.204957 1340.606147 
L 1371.024032 1312.303881 
L 1376.741533 1300.695835 
L 1385.493092 1282.702638 
L 1387.00129 1280.307405 
L 1388.629468 1278.161829 
L 1390.096396 1276.61032 
L 1391.352676 1275.550322 
L 1392.690714 1274.67176 
L 1394.117231 1273.991697 
L 1395.628916 1273.507058 
L 1397.215977 1273.201757 
L 1399.290718 1273.047489 
L 1401.448427 1273.11612 
L 1404.11997 1273.447871 
L 1407.307999 1274.109229 
L 1410.980418 1275.11981 
L 1416.386142 1276.876626 
L 1425.853109 1280.237479 
L 1433.896857 1282.999541 
L 1439.516371 1284.677472 
L 1445.340601 1286.173649 
L 1451.941089 1287.628041 
L 1459.503906 1289.059817 
L 1465.633249 1290.02083 
L 1469.74878 1290.454107 
L 1472.396254 1290.529043 
L 1474.133306 1290.360593 
L 1474.96026 1290.109086 
L 1475.484041 1289.733115 
L 1475.658164 1289.362701 
L 1475.632604 1288.912365 
L 1475.303605 1288.193649 
L 1474.46988 1287.124486 
L 1472.944241 1285.626442 
L 1470.221911 1283.340237 
L 1464.824097 1279.184822 
L 1458.486451 1274.234403 
L 1453.505787 1270.051777 
L 1448.235657 1265.3415 
L 1441.409892 1258.912531 
L 1430.970771 1249.056781 
L 1421.467162 1240.296439 
L 1419.0596 1237.713924 
L 1417.128764 1235.350635 
L 1415.408578 1232.869777 
L 1414.128947 1230.637696 
L 1412.850679 1227.916958 
L 1411.774231 1225.085018 
L 1410.751634 1221.731769 
L 1409.810999 1217.837521 
L 1408.870824 1212.947995 
L 1407.410291 1203.860841 
L 1405.623332 1191.377193 
L 1403.645132 1175.904939 
L 1400.604002 1150.00496 
L 1398.277618 1130.955975 
L 1396.66346 1119.547177 
L 1395.110393 1110.11949 
L 1393.501535 1101.732657 
L 1391.766338 1093.923545 
L 1389.829311 1086.226632 
L 1387.583615 1078.188773 
L 1384.883882 1069.364162 
L 1381.694378 1059.712748 
L 1377.9826 1049.170729 
L 1375.253878 1042.011769 
L 1372.804609 1036.190835 
L 1370.515419 1031.294859 
L 1368.231995 1026.910323 
L 1365.979592 1023.030753 
L 1363.53845 1019.27084 
L 1361.163588 1016.003903 
L 1358.605193 1012.861221 
L 1355.855397 1009.85027 
L 1352.600048 1006.640405 
L 1348.818874 1003.240819 
L 1344.145352 999.348932 
L 1336.701697 993.486581 
L 1328.104245 986.663613 
L 1323.386007 982.644518 
L 1318.468599 978.153164 
L 1313.364159 973.187159 
L 1307.749289 967.414762 
L 1301.003395 960.153883 
L 1278.75062 935.908278 
L 1273.320185 930.486032 
L 1268.42626 925.919688 
L 1264.41672 922.465137 
L 1262.345454 920.9479 
L 1260.557449 919.913011 
L 1259.074056 919.289653 
L 1257.533982 918.889968 
L 1255.932705 918.729351 
L 1253.857601 918.783577 
L 1249.977723 919.213462 
L 1246.894827 919.447324 
L 1244.689723 919.364082 
L 1242.489239 919.048598 
L 1239.854014 918.40694 
L 1237.223749 917.528852 
L 1234.160129 916.277015 
L 1229.790094 914.225377 
L 1221.057176 910.056881 
L 1214.934548 907.429238 
L 1208.350184 904.851747 
L 1201.282639 902.321073 
L 1192.80622 899.53077 
L 1181.466689 896.059681 
L 1146.605865 885.557683 
L 1137.823129 882.600262 
L 1128.919348 879.351765 
L 1115.665141 874.241593 
L 1101.432367 868.820477 
L 1092.733638 865.748789 
L 1085.584879 863.457553 
L 1079.229792 861.654614 
L 1073.732625 860.309776 
L 1068.20963 859.192278 
L 1063.140603 858.401784 
L 1058.540022 857.904022 
L 1053.958191 857.640534 
L 1049.858398 857.618689 
L 1045.32634 857.814078 
L 1040.358648 858.251322 
L 1034.495045 858.999751 
L 1026.806812 860.221987 
L 1010.721908 862.84253 
L 1004.125541 863.650033 
L 995.523564 864.460493 
L 976.789674 866.147643 
L 970.15653 867.001683 
L 964.557322 867.942631 
L 959.516759 869.022796 
L 955.029135 870.217541 
L 950.664958 871.613594 
L 946.465106 873.194143 
L 942.470521 874.942269 
L 938.72214 876.841054 
L 935.589865 878.665074 
L 932.344189 880.810645 
L 928.639635 883.54501 
L 923.107775 887.959185 
L 915.697557 893.810684 
L 909.751763 898.226076 
L 904.24283 902.057862 
L 898.926988 905.490837 
L 893.891893 908.476341 
L 889.201874 910.998867 
L 884.90191 913.069002 
L 880.589559 914.88788 
L 876.711217 916.290396 
L 872.845681 917.458122 
L 869.002753 918.378893 
L 865.613719 918.980199 
L 862.257174 919.368222 
L 858.940001 919.534417 
L 855.669083 919.47024 
L 852.451304 919.167146 
L 849.684749 918.699235 
L 846.968759 918.036136 
L 844.307945 917.172127 
L 841.706768 916.101882 
L 839.165473 914.831249 
L 836.328765 913.157158 
L 833.557511 911.273342 
L 830.509406 908.938457 
L 827.197351 906.12348 
L 823.308141 902.513995 
L 818.228554 897.464672 
L 807.598202 886.798513 
L 801.944725 881.558731 
L 793.368384 873.961743 
L 783.652728 865.292505 
L 777.704306 859.675027 
L 772.372024 854.321428 
L 767.418521 849.023068 
L 762.90665 843.863439 
L 758.871189 838.910658 
L 755.32378 834.219499 
L 751.988694 829.430915 
L 749.152785 824.970054 
L 746.785519 820.866682 
L 744.643365 816.727538 
L 742.749858 812.562286 
L 741.277747 808.799221 
L 740.043259 805.029879 
L 739.063552 801.261302 
L 738.420462 797.917793 
L 738.004286 794.585401 
L 737.827075 791.269074 
L 737.877513 788.384356 
L 738.128206 785.519038 
L 738.585466 782.676562 
L 739.48782 778.671017 
L 740.614559 773.61234 
L 740.968626 770.982419 
L 741.019839 768.79236 
L 740.830194 767.018311 
L 740.385572 765.295247 
L 739.667892 763.624081 
L 738.701968 761.999333 
L 737.517314 760.414823 
L 735.848566 758.557822 
L 733.625369 756.439057 
L 730.45439 753.764362 
L 722.544881 747.550427 
L 718.10153 743.891674 
L 714.942067 741.038976 
L 712.324967 738.396747 
L 710.224486 735.984881 
L 708.04798 733.112242 
L 706.070935 730.135013 
L 703.813621 726.298863 
L 701.102876 721.185793 
L 689.586675 698.888106 
L 681.481409 683.794293 
L 673.389649 669.190281 
L 665.125679 654.730257 
L 656.714195 640.466378 
L 650.225649 629.845626 
L 645.643265 622.771934 
L 641.590394 616.928501 
L 637.851068 611.917906 
L 634.18262 607.363546 
L 630.601631 603.253453 
L 626.819342 599.241303 
L 622.51482 595.009732 
L 618.023448 590.901542 
L 613.011144 586.619862 
L 607.479421 582.201854 
L 601.824629 577.965145 
L 595.706152 573.650925 
L 588.751005 569.025612 
L 580.564135 563.86644 
L 569.96713 557.477303 
L 545.641283 542.915681 
L 537.502475 537.724568 
L 530.60313 533.062172 
L 524.545825 528.707576 
L 518.959273 524.423756 
L 513.863053 520.244869 
L 509.263626 516.204944 
L 504.820352 512.008327 
L 500.881323 507.992862 
L 497.120552 503.838979 
L 493.848305 499.907646 
L 490.76079 495.85621 
L 487.874719 491.68286 
L 485.439888 487.781584 
L 483.19791 483.77669 
L 481.161341 479.666816 
L 479.342737 475.450599 
L 477.902732 471.563954 
L 476.658604 467.589073 
L 475.619507 463.524965 
L 474.794213 459.370955 
L 474.174467 455.140677 
L 473.64967 449.915574 
L 473.280675 443.744717 
L 473.039806 435.394565 
L 472.910328 423.584253 
L 473.044015 416.329861 
L 473.387369 409.824535 
L 474.008853 402.663434 
L 475.1447 392.497072 
L 477.316701 373.410624 
L 477.961195 365.683745 
L 478.309389 358.932149 
L 478.398283 353.175552 
L 478.262523 347.463845 
L 477.864629 340.853962 
L 477.109211 332.419746 
L 475.306811 313.332397 
L 474.965295 306.807828 
L 474.895113 301.195278 
L 475.061196 296.02645 
L 475.435445 291.302762 
L 476.174595 285.139497 
L 478.230781 269.128289 
L 478.529859 264.512002 
L 478.569859 260.412787 
L 478.373329 255.908738 
L 477.911223 250.993644 
L 477.17512 245.649572 
L 476.019077 238.946363 
L 473.800496 227.595727 
L 471.417836 216.551601 
L 468.90277 205.963681 
L 466.408627 196.399554 
L 463.85795 187.471311 
L 461.267293 179.208764 
L 458.775176 171.981011 
L 456.244738 165.295639 
L 453.503314 158.700923 
L 450.714021 152.580667 
L 447.896223 146.906059 
L 444.850125 141.252393 
L 441.563121 135.617077 
L 438.040128 130.024337 
L 434.288349 124.501888 
L 430.60599 119.461064 
L 426.738334 114.526934 
L 422.691145 109.721688 
L 418.470189 105.067516 
L 414.424676 100.924637 
L 410.240548 96.946844 
L 405.922338 93.151589 
L 401.474581 89.556327 
L 397.28754 86.451262 
L 392.998945 83.542355 
L 388.612291 80.843047 
L 384.131145 78.366096 
L 379.56085 76.108511 
L 374.908515 74.051588 
L 369.748117 72.013751 
L 364.067976 70.020359 
L 357.859828 68.087055 
L 350.667722 66.098482 
L 342.47926 64.071705 
L 330.531276 61.370769 
L 312.071898 57.200215 
L 303.356364 54.981439 
L 296.08105 52.892959 
L 289.334062 50.714574 
L 283.116665 48.478398 
L 276.990593 46.03749 
L 271.396067 43.580173 
L 265.903488 40.932172 
L 260.524028 38.08667 
L 255.668434 35.278862 
L 250.927531 32.291602 
L 246.310105 29.119528 
L 241.824943 25.757281 
L 237.837238 22.503579 
L 234.75974 19.8 
L 234.75974 19.8 
" clip-path="url(#p8d699b6964)" style="fill: none; stroke: #0000ff; stroke-width: 0.072"/>
   </g>
   <g id="LineCollection_2">
    <path d="M 131.920302 19.8 
L 133.029765 25.915897 
L 134.308504 31.808095 
L 135.706751 37.219123 
L 136.850427 40.779315 
L 137.957919 43.467044 
L 139.131553 45.716236 
L 140.329544 47.576909 
L 141.738229 49.383053 
L 143.389293 51.141781 
L 145.307682 52.8604 
L 147.847259 54.826533 
L 151.468596 57.315964 
L 158.406635 61.728311 
L 163.561968 65.115463 
L 168.44917 68.599327 
L 174.261891 73.031738 
L 192.449912 87.160328 
L 197.064631 90.317561 
L 201.832698 93.303078 
L 207.14901 96.369124 
L 213.443782 99.727712 
L 220.735632 103.357859 
L 231.2024 108.289559 
L 249.101914 116.689356 
L 256.786973 120.567945 
L 263.035318 123.972559 
L 268.301596 127.088206 
L 275.317316 131.344396 
L 276.831119 131.943091 
L 277.955932 132.210447 
L 279.071808 132.287583 
L 280.178574 132.151455 
L 281.274559 131.824854 
L 282.715297 131.160635 
L 284.475812 130.093031 
L 288.77691 127.313913 
L 290.330848 126.641536 
L 291.559395 126.344955 
L 292.791304 126.297566 
L 294.041662 126.531381 
L 295.325426 127.077402 
L 296.651992 127.92193 
L 298.725766 129.58297 
L 303.582069 133.633244 
L 305.992781 135.254263 
L 308.498212 136.676208 
L 311.525264 138.115262 
L 314.646608 139.353484 
L 318.305398 140.571118 
L 322.97542 141.879516 
L 331.959242 144.085563 
L 338.031393 145.704225 
L 342.126091 147.025799 
L 345.654065 148.413066 
L 348.639531 149.818655 
L 351.934545 151.635931 
L 355.105448 153.665384 
L 358.152903 155.893688 
L 361.077572 158.307519 
L 363.880116 160.893551 
L 366.887824 163.99208 
L 369.742749 167.272714 
L 372.445832 170.71648 
L 374.998016 174.304405 
L 377.65794 178.436988 
L 380.134025 182.698096 
L 382.427562 187.061703 
L 384.741154 191.948997 
L 386.837147 196.894183 
L 388.877538 202.314254 
L 390.663251 207.717025 
L 392.196519 213.057523 
L 393.479575 218.290775 
L 394.597087 223.807011 
L 395.469333 229.205384 
L 396.230215 235.365667 
L 396.85868 242.369126 
L 397.487442 252.110024 
L 398.787409 276.452805 
L 398.817286 282.339814 
L 398.628299 287.198478 
L 398.245552 291.492094 
L 397.70405 295.216218 
L 396.945089 298.827692 
L 396.081468 301.875955 
L 395.012744 304.802604 
L 393.919791 307.201853 
L 392.651564 309.489234 
L 391.196716 311.654351 
L 389.544155 313.686879 
L 387.410777 315.892366 
L 381.72237 321.534608 
L 380.775693 322.869743 
L 380.254773 323.936267 
L 379.983652 325.009408 
L 379.966134 325.823051 
L 380.198855 326.923968 
L 380.69514 328.045272 
L 381.633252 329.4786 
L 383.135541 331.250215 
L 385.585235 333.710998 
L 390.974635 339.030417 
L 392.807273 341.182381 
L 394.40866 343.425639 
L 395.787667 345.755443 
L 396.958587 348.166553 
L 397.935711 350.653726 
L 398.849817 353.644574 
L 399.542291 356.723498 
L 400.035826 359.882176 
L 400.385379 363.579076 
L 400.545648 367.834141 
L 400.490973 372.660527 
L 400.192209 378.556008 
L 399.385936 389.025117 
L 398.824446 397.511471 
L 398.60712 404.439885 
L 398.623388 411.30769 
L 398.86754 418.115323 
L 399.333872 424.863217 
L 400.016674 431.551807 
L 400.91024 438.181528 
L 402.008861 444.752815 
L 403.407021 451.72913 
L 405.027004 458.639398 
L 406.861792 465.484156 
L 408.904363 472.263937 
L 411.304221 479.424687 
L 413.923985 486.512767 
L 416.755134 493.528824 
L 419.789149 500.473508 
L 423.225542 507.774758 
L 426.871115 514.996945 
L 430.947777 522.558657 
L 435.235364 530.033528 
L 439.721748 537.422484 
L 444.65964 545.12975 
L 450.066429 553.141551 
L 455.671221 561.050895 
L 461.751147 569.246825 
L 471.624857 582.387926 
L 473.326313 585.173978 
L 474.57267 587.620525 
L 475.42789 589.710745 
L 476.088978 591.855946 
L 476.538107 594.061282 
L 476.790666 596.321098 
L 476.868288 599.092805 
L 476.700777 602.390501 
L 476.250219 606.215141 
L 475.443338 611.028633 
L 473.619944 621.428842 
L 473.163878 625.532448 
L 472.962724 629.143944 
L 472.975758 632.758496 
L 473.224068 636.411706 
L 473.728738 640.139174 
L 474.397195 643.489613 
L 475.292198 646.948012 
L 476.425982 650.534197 
L 477.987113 654.72359 
L 479.764401 658.8584 
L 481.686975 662.778268 
L 483.683966 666.322835 
L 485.436666 668.990404 
L 486.905153 670.869041 
L 488.312515 672.311681 
L 489.422748 673.17287 
L 490.463505 673.724315 
L 491.422978 673.966264 
L 492.124096 673.937154 
L 492.759587 673.710252 
L 493.323407 673.285688 
L 493.809508 672.663587 
L 494.298632 671.60837 
L 494.645066 670.24495 
L 494.837 668.573576 
L 494.859656 666.175082 
L 494.616186 662.426872 
L 493.758811 654.325799 
L 493.261342 648.660053 
L 493.116683 644.804496 
L 493.205405 641.683614 
L 493.473083 639.274055 
L 493.946168 637.079183 
L 494.598579 635.059665 
L 495.711219 632.376098 
L 497.931846 627.154072 
L 500.506702 620.531404 
L 501.567341 618.549791 
L 502.548466 617.155318 
L 503.649298 615.944218 
L 504.857514 614.908938 
L 506.160706 614.041806 
L 507.904356 613.182659 
L 509.75279 612.559268 
L 511.681778 612.15665 
L 513.667088 611.959818 
L 516.089687 611.974159 
L 518.516625 612.23736 
L 520.909143 612.724293 
L 523.255973 613.416604 
L 525.940301 614.464099 
L 528.57169 615.747466 
L 531.15521 617.243215 
L 534.055691 619.182566 
L 537.261335 621.615573 
L 540.76452 624.572351 
L 544.90702 628.379211 
L 551.048547 634.372155 
L 560.585844 643.648223 
L 576.964114 659.149883 
L 587.490877 669.282565 
L 595.896307 677.677441 
L 603.512206 685.593421 
L 610.329609 692.990246 
L 616.669989 700.191503 
L 622.52898 707.179786 
L 627.9091 713.937176 
L 632.818729 720.445461 
L 637.543637 727.080173 
L 641.806607 733.443006 
L 645.883661 739.918901 
L 649.772231 746.503073 
L 653.469838 753.190685 
L 656.973998 759.976897 
L 660.282232 766.856871 
L 663.392056 773.825768 
L 666.300991 780.878751 
L 669.006553 788.010979 
L 671.506263 795.217616 
L 673.797638 802.493821 
L 675.878196 809.834758 
L 677.745621 817.235512 
L 679.83519 826.536632 
L 683.325364 842.191337 
L 685.074272 848.916839 
L 686.656767 854.171452 
L 688.29493 858.867577 
L 689.97181 863.020544 
L 691.851885 867.050818 
L 693.933644 870.961763 
L 696.206121 874.762352 
L 698.913018 878.826261 
L 701.82278 882.779467 
L 705.211256 886.979851 
L 708.804786 891.078245 
L 712.907165 895.421084 
L 717.541967 900.006321 
L 722.730982 904.821974 
L 728.128177 909.530252 
L 734.088756 914.425452 
L 740.232168 919.18051 
L 746.928685 924.06883 
L 753.766674 928.777345 
L 760.712689 933.294928 
L 768.147865 937.857777 
L 775.626945 942.180889 
L 783.110225 946.251056 
L 791.403431 950.492164 
L 821.875037 965.790587 
L 828.306469 969.170829 
L 831.100925 970.407573 
L 833.439092 971.237341 
L 836.177621 971.962332 
L 839.368961 972.563174 
L 842.401595 973.10998 
L 842.392931 973.133332 
L 842.069105 973.352597 
L 841.588894 973.747315 
L 841.370294 974.187209 
L 841.330755 974.74109 
L 841.500875 975.371005 
L 841.911238 976.038995 
L 842.59219 976.707255 
L 843.555801 977.3499 
L 845.058428 978.079389 
L 847.241243 978.864759 
L 850.229189 979.663037 
L 853.657563 980.340628 
L 857.929514 980.939456 
L 862.518216 981.344062 
L 867.296258 981.532486 
L 872.136227 981.482769 
L 876.38741 981.220904 
L 880.497366 980.738105 
L 883.907381 980.122297 
L 887.082598 979.315916 
L 890.01037 978.327629 
L 892.726158 977.185427 
L 895.61879 975.728682 
L 899.000469 973.743925 
L 903.812349 970.599367 
L 908.641779 967.506824 
L 911.702448 965.794633 
L 914.605542 964.424084 
L 917.332894 963.377151 
L 920.274474 962.502653 
L 923.444946 961.808418 
L 928.735187 960.927391 
L 935.591486 959.762316 
L 938.894458 958.987168 
L 941.579937 958.142554 
L 943.6779 957.274975 
L 945.629048 956.239334 
L 947.803712 954.801933 
L 950.169177 952.914913 
L 953.051476 950.269112 
L 958.866719 944.824402 
L 961.343076 942.850747 
L 964.359617 940.746164 
L 967.556134 938.799972 
L 970.912938 937.00935 
L 974.856419 935.177347 
L 978.949806 933.534658 
L 983.165065 932.077268 
L 987.957522 930.67039 
L 992.827369 929.481816 
L 997.736148 928.50604 
L 1003.136045 927.671788 
L 1008.512454 927.078517 
L 1013.86378 926.714301 
L 1019.189364 926.567127 
L 1024.968964 926.639995 
L 1030.716297 926.941271 
L 1036.430512 927.455358 
L 1042.58255 928.234351 
L 1048.693636 929.22497 
L 1055.227766 930.505719 
L 1062.172984 932.096655 
L 1069.515947 934.009455 
L 1077.693781 936.382517 
L 1086.673819 939.232166 
L 1097.297402 942.850805 
L 1109.073785 947.100295 
L 1122.015656 952.014199 
L 1137.03987 957.964661 
L 1158.63357 966.782581 
L 1206.006341 986.38993 
L 1217.197573 991.329331 
L 1226.890661 995.842938 
L 1235.517882 1000.106345 
L 1243.089268 1004.091678 
L 1250.037961 1007.998833 
L 1256.382347 1011.813473 
L 1263.345036 1016.266849 
L 1270.960028 1021.416193 
L 1280.082069 1027.875033 
L 1291.698925 1036.386255 
L 1297.49003 1040.868971 
L 1301.984006 1044.600217 
L 1305.923768 1048.153258 
L 1309.304841 1051.50749 
L 1312.146501 1054.637806 
L 1314.485106 1057.516423 
L 1316.623698 1060.491974 
L 1318.546058 1063.568613 
L 1320.264962 1066.741358 
L 1321.981449 1070.416218 
L 1323.496407 1074.192507 
L 1324.979373 1078.494336 
L 1326.414032 1083.338215 
L 1327.915858 1089.187953 
L 1330.013377 1098.381282 
L 1332.710944 1110.044304 
L 1335.261088 1119.877241 
L 1341.047559 1141.881595 
L 1342.748641 1149.347072 
L 1344.012919 1155.859431 
L 1344.95318 1161.886105 
L 1345.662695 1167.892644 
L 1346.149419 1173.879834 
L 1346.421325 1179.848467 
L 1346.483052 1186.256377 
L 1346.314847 1192.644667 
L 1345.926666 1199.014322 
L 1345.277968 1205.819395 
L 1344.400427 1212.605421 
L 1343.306293 1219.373615 
L 1341.91428 1226.574732 
L 1340.304632 1233.758413 
L 1338.372544 1241.373614 
L 1336.097113 1249.419086 
L 1333.461934 1257.894073 
L 1330.308329 1267.245568 
L 1326.15153 1278.819712 
L 1311.905193 1317.848756 
L 1308.922585 1326.95792 
L 1306.441581 1335.221464 
L 1304.435719 1342.626161 
L 1302.755013 1349.624508 
L 1301.293983 1356.68183 
L 1300.148964 1363.318346 
L 1299.233006 1369.995496 
L 1298.602922 1376.225788 
L 1298.199539 1382.479126 
L 1298.040557 1388.266902 
L 1298.097774 1394.064855 
L 1298.382246 1399.868446 
L 1298.90503 1405.673133 
L 1299.601398 1410.990872 
L 1300.581407 1416.779258 
L 1301.8614 1423.019771 
L 1303.560874 1430.159389 
L 1305.818108 1438.605086 
L 1309.258805 1450.481787 
L 1314.365873 1468.147442 
L 1316.80423 1476.251981 
L 1318.689091 1481.746783 
L 1320.508028 1486.349855 
L 1322.396803 1490.489395 
L 1324.3395 1494.191162 
L 1326.302631 1497.476346 
L 1328.496321 1500.720781 
L 1330.927549 1503.927891 
L 1333.875543 1507.452411 
L 1337.371526 1511.28844 
L 1341.77369 1515.776416 
L 1347.469127 1521.249514 
L 1370.842964 1543.34867 
L 1378.010545 1550.578558 
L 1384.617211 1557.56205 
L 1390.365457 1563.955006 
L 1395.610517 1570.107799 
L 1400.374183 1576.018171 
L 1404.961167 1582.060694 
L 1409.093108 1587.859749 
L 1413.054651 1593.802084 
L 1416.837278 1599.896368 
L 1419.116447 1603.8 
L 1419.116447 1603.8 
" clip-path="url(#p8d699b6964)" style="fill: none; stroke: #ff0000; stroke-width: 0.072"/>
    <path d="M 1461.667817 1603.8 
L 1459.765318 1599.881087 
L 1457.548072 1595.845787 
L 1455.356815 1592.298671 
L 1452.710952 1588.448752 
L 1449.584813 1584.304603 
L 1445.665907 1579.496404 
L 1439.986335 1572.925594 
L 1430.109378 1561.550863 
L 1425.232166 1555.522459 
L 1419.044478 1547.488278 
L 1407.075817 1531.873355 
L 1402.23778 1525.971113 
L 1396.62959 1519.498788 
L 1388.988696 1511.046912 
L 1374.680651 1495.278623 
L 1369.154765 1488.828869 
L 1364.710561 1483.324866 
L 1360.731294 1478.048692 
L 1357.210541 1473.003533 
L 1354.132166 1468.201488 
L 1351.471245 1463.664069 
L 1348.751045 1458.571341 
L 1346.224566 1453.34281 
L 1343.895051 1447.992092 
L 1341.765739 1442.532803 
L 1339.839871 1436.978559 
L 1338.120689 1431.342976 
L 1336.611432 1425.639669 
L 1335.315342 1419.882254 
L 1334.235659 1414.084348 
L 1333.375625 1408.259566 
L 1332.73848 1402.421523 
L 1332.327464 1396.583836 
L 1332.145819 1390.76012 
L 1332.196786 1384.963992 
L 1332.483605 1379.209067 
L 1332.956479 1373.981543 
L 1333.632755 1368.81057 
L 1334.513544 1363.705163 
L 1335.697436 1358.208718 
L 1337.098006 1352.781328 
L 1338.84064 1346.970948 
L 1340.797165 1341.223416 
L 1343.119297 1335.093199 
L 1345.825715 1328.580391 
L 1349.126253 1321.250382 
L 1353.052785 1313.097323 
L 1358.272547 1302.813584 
L 1370.690024 1279.055304 
L 1372.853135 1275.302467 
L 1374.661332 1272.550646 
L 1376.331282 1270.352727 
L 1378.137949 1268.338654 
L 1379.765599 1266.824735 
L 1381.516954 1265.468766 
L 1383.399931 1264.258385 
L 1385.843895 1262.9782 
L 1388.50136 1261.86288 
L 1391.385398 1260.887999 
L 1395.053914 1259.895551 
L 1399.671032 1258.904918 
L 1407.830225 1257.258051 
L 1409.362012 1256.713129 
L 1409.780154 1256.375781 
L 1409.835103 1256.143233 
L 1409.627793 1255.775592 
L 1408.916602 1255.234356 
L 1404.739345 1252.546733 
L 1403.648168 1251.469619 
L 1402.685843 1250.256051 
L 1401.645458 1248.566796 
L 1400.763298 1246.709545 
L 1399.879845 1244.294455 
L 1399.038324 1241.274718 
L 1398.154561 1237.178443 
L 1395.275655 1221.723454 
L 1390.623023 1197.323417 
L 1387.383467 1181.474605 
L 1382.849773 1160.681487 
L 1379.415228 1144.460282 
L 1377.25849 1133.207179 
L 1375.237463 1121.32924 
L 1371.077244 1096.46393 
L 1369.307315 1087.461528 
L 1367.613621 1079.966415 
L 1365.937184 1073.494297 
L 1364.187156 1067.572357 
L 1362.382604 1062.193411 
L 1360.374711 1056.909667 
L 1358.337427 1052.159212 
L 1356.095175 1047.506371 
L 1353.865174 1043.368313 
L 1351.440042 1039.324222 
L 1348.8119 1035.379096 
L 1345.993281 1031.531716 
L 1342.694855 1027.408879 
L 1338.888123 1023.037209 
L 1334.894929 1018.791895 
L 1330.395592 1014.32932 
L 1325.393911 1009.674804 
L 1319.542881 1004.537103 
L 1312.50837 998.67142 
L 1302.950002 991.022702 
L 1282.762113 975.219661 
L 1278.52251 972.310933 
L 1273.816333 969.378745 
L 1267.200542 965.241727 
L 1264.35646 963.211668 
L 1262.180621 961.401986 
L 1260.61501 959.836088 
L 1259.308152 958.216406 
L 1258.023794 956.235019 
L 1256.628816 953.612389 
L 1254.56705 949.686047 
L 1253.463566 948.134467 
L 1252.368844 947.01888 
L 1251.336749 946.263666 
L 1250.138515 945.643277 
L 1248.41982 945.039457 
L 1246.085609 944.514663 
L 1243.074142 944.09178 
L 1231.845687 942.744122 
L 1228.695793 941.99988 
L 1225.654087 941.063346 
L 1222.287638 939.800005 
L 1218.205583 938.003656 
L 1212.633512 935.256243 
L 1204.705289 931.341827 
L 1200.641799 929.601458 
L 1197.296277 928.401222 
L 1193.845986 927.409924 
L 1189.42112 926.396101 
L 1175.187551 923.364481 
L 1170.473597 921.984335 
L 1163.267329 919.610527 
L 1154.644159 916.816279 
L 1143.129556 913.393038 
L 1131.663472 909.918853 
L 1124.82361 907.611629 
L 1119.47413 905.577075 
L 1114.327788 903.381934 
L 1108.183427 900.508117 
L 1098.33992 895.601361 
L 1089.006276 891.033674 
L 1082.868512 888.279143 
L 1078.6474 886.602443 
L 1074.795021 885.303486 
L 1071.350917 884.380366 
L 1068.337633 883.79559 
L 1065.336746 883.451586 
L 1062.347984 883.329073 
L 1058.511957 883.420305 
L 1053.384934 883.812826 
L 1043.402528 884.637015 
L 1036.73163 884.917598 
L 1029.010041 885.012718 
L 1019.700953 884.886005 
L 1007.712707 884.481862 
L 988.839524 883.817952 
L 982.360145 883.844216 
L 976.940648 884.077319 
L 972.095576 884.505092 
L 967.824267 885.100433 
L 964.11478 885.821662 
L 960.501549 886.745197 
L 956.998153 887.891719 
L 953.610325 889.26945 
L 950.322618 890.852952 
L 946.719981 892.841674 
L 942.804598 895.256899 
L 937.793229 898.623385 
L 924.140585 907.975424 
L 919.625464 910.708892 
L 914.973754 913.264886 
L 910.200913 915.632651 
L 905.322406 917.801437 
L 900.353696 919.760495 
L 895.310248 921.499073 
L 890.207526 923.006423 
L 885.530264 924.167043 
L 880.828413 925.119604 
L 876.113593 925.85603 
L 871.397422 926.368244 
L 866.691517 926.648169 
L 862.007498 926.68773 
L 857.820195 926.511147 
L 853.668499 926.127439 
L 849.560882 925.530718 
L 845.505812 924.715095 
L 841.511759 923.674684 
L 837.58536 922.406893 
L 833.725685 920.922741 
L 829.929849 919.23676 
L 825.78362 917.14441 
L 821.708689 914.840763 
L 817.303893 912.086493 
L 812.585407 908.848931 
L 807.950793 905.401828 
L 802.640628 901.161323 
L 797.05519 896.415601 
L 790.114341 890.206909 
L 779.044984 879.937915 
L 762.540806 864.423638 
L 758.043463 859.810387 
L 754.370241 855.736146 
L 751.177997 851.868205 
L 748.441531 848.214749 
L 745.875484 844.414436 
L 743.472402 840.478419 
L 741.003172 836.012403 
L 738.499664 831.003283 
L 735.988516 825.448522 
L 733.48901 819.35922 
L 730.851963 812.322444 
L 728.278047 804.830811 
L 726.544167 799.145865 
L 725.308002 794.398932 
L 724.415714 790.15618 
L 723.775254 786.000478 
L 722.192406 774.401466 
L 721.532892 771.680528 
L 720.647511 768.982246 
L 719.532893 766.303217 
L 718.010242 763.261014 
L 716.024897 759.857851 
L 713.5434 756.092717 
L 710.282703 751.584522 
L 704.490767 744.054009 
L 699.313054 737.206465 
L 695.251592 731.423387 
L 691.156541 725.188021 
L 686.779071 718.109886 
L 681.425959 709.002071 
L 666.477877 683.261648 
L 662.05184 676.233688 
L 657.899771 670.057228 
L 653.776484 664.341925 
L 649.443509 658.717746 
L 644.350864 652.48166 
L 638.529818 645.723546 
L 631.768414 638.234631 
L 621.800284 627.283212 
L 618.913536 623.695295 
L 616.501718 620.329863 
L 610.125431 611.162938 
L 607.967221 608.583513 
L 605.874218 606.431708 
L 603.586815 604.381557 
L 600.770957 602.147585 
L 597.397425 599.751539 
L 593.064768 596.954827 
L 586.162457 592.812865 
L 578.218965 588.008564 
L 574.159117 585.300969 
L 570.383836 582.515272 
L 566.199229 579.147727 
L 560.386508 574.147833 
L 553.035543 567.851605 
L 548.805874 564.521039 
L 544.976718 561.779781 
L 540.50525 558.870628 
L 534.182819 555.048575 
L 520.1665 546.653499 
L 515.286309 543.443093 
L 510.950961 540.319991 
L 507.162814 537.310462 
L 503.524056 534.146427 
L 500.033658 530.839224 
L 496.364343 527.049476 
L 492.871925 523.115305 
L 489.555031 519.051805 
L 486.135174 514.489127 
L 482.920762 509.809947 
L 479.908808 505.027996 
L 477.094761 500.149446 
L 474.473966 495.179949 
L 471.84745 489.700253 
L 469.436353 484.127643 
L 467.234755 478.469305 
L 465.236737 472.732428 
L 463.436379 466.924198 
L 461.711793 460.597628 
L 460.202188 454.205618 
L 458.90017 447.757145 
L 457.727109 440.795607 
L 456.774768 433.790597 
L 456.034054 426.753155 
L 455.464593 419.222455 
L 455.057652 410.72872 
L 454.830994 401.271314 
L 454.770404 388.958393 
L 454.740853 349.220117 
L 454.577708 313.431797 
L 454.562678 277.791341 
L 454.302235 265.157849 
L 453.871237 254.40528 
L 453.262753 244.594104 
L 452.50116 235.72179 
L 451.567065 227.319717 
L 450.471958 219.386823 
L 449.149262 211.457346 
L 447.683547 204.009887 
L 445.993955 196.594854 
L 444.198162 189.687832 
L 442.189377 182.838266 
L 439.959748 176.060169 
L 437.672584 169.810785 
L 435.179819 163.647256 
L 432.475069 157.580973 
L 429.768122 152.045029 
L 426.867779 146.611878 
L 423.768926 141.290643 
L 420.466455 136.090443 
L 417.232874 131.405575 
L 413.818669 126.840172 
L 410.22628 122.408586 
L 406.459503 118.126676 
L 402.522135 114.010303 
L 398.766263 110.395926 
L 394.873162 106.946191 
L 390.845755 103.673312 
L 386.686967 100.589507 
L 382.399722 97.706992 
L 378.393217 95.271477 
L 374.285163 93.021592 
L 370.077756 90.966516 
L 365.773196 89.115427 
L 361.373677 87.477503 
L 356.881398 86.061923 
L 352.760853 84.985588 
L 347.634164 83.896829 
L 336.270956 81.591445 
L 332.010874 80.444658 
L 328.250745 79.181662 
L 324.059757 77.536329 
L 317.637512 74.747513 
L 310.469771 71.672722 
L 305.218619 69.673205 
L 299.188544 67.61366 
L 290.660592 64.962232 
L 277.772685 60.952431 
L 271.60173 58.791496 
L 265.758234 56.515202 
L 259.857455 53.976971 
L 254.408624 51.404828 
L 249.003604 48.615803 
L 243.686855 45.612921 
L 238.928681 42.674999 
L 234.316279 39.562252 
L 230.278498 36.582739 
L 226.415219 33.462421 
L 222.752169 30.203051 
L 219.647884 27.152177 
L 216.745381 23.991366 
L 214.063414 20.721895 
L 213.364615 19.8 
L 213.364615 19.8 
" clip-path="url(#p8d699b6964)" style="fill: none; stroke: #ff0000; stroke-width: 0.072"/>
   </g>
   <g id="LineCollection_3">
    <path d="M 19.8 19.8 
L 1603.8 19.8 
L 1603.8 1603.8 
L 19.8 1603.8 
L 19.8 19.8 
" clip-path="url(#p8d699b6964)" style="fill: none; stroke: #ff0000; stroke-width: 0.072"/>
   </g>
  </g>
 </g>
 <defs>
  <clipPath id="p8d699b6964">
   <rect x="0" y="0" width="1623.6" height="1623.6"/>
  </clipPath>
 </defs>
</svg>
