<?xml version="1.0" encoding="utf-8" standalone="no"?>
<!DOCTYPE svg PUBLIC "-//W3C//DTD SVG 1.1//EN"
  "http://www.w3.org/Graphics/SVG/1.1/DTD/svg11.dtd">
<svg xmlns:xlink="http://www.w3.org/1999/xlink" width="1623.6pt" height="1623.6pt" viewBox="0 0 1623.6 1623.6" xmlns="http://www.w3.org/2000/svg" version="1.1">
 <metadata>
  <rdf:RDF xmlns:dc="http://purl.org/dc/elements/1.1/" xmlns:cc="http://creativecommons.org/ns#" xmlns:rdf="http://www.w3.org/1999/02/22-rdf-syntax-ns#">
   <cc:Work>
    <dc:type rdf:resource="http://purl.org/dc/dcmitype/StillImage"/>
    <dc:date>2024-02-12T20:20:19.519569</dc:date>
    <dc:format>image/svg+xml</dc:format>
    <dc:creator>
     <cc:Agent>
      <dc:title>Matplotlib v3.8.2, https://matplotlib.org/</dc:title>
     </cc:Agent>
    </dc:creator>
   </cc:Work>
  </rdf:RDF>
 </metadata>
 <defs>
  <style type="text/css">*{stroke-linejoin: round; stroke-linecap: butt}</style>
 </defs>
 <g id="figure_1">
  <g id="patch_1">
   <path d="M 0 1623.6 
L 1623.6 1623.6 
L 1623.6 0 
L 0 0 
L 0 1623.6 
z
" style="fill: none"/>
  </g>
  <g id="axes_1">
   <g id="LineCollection_1">
    <path d="M 131.920302 19.8 
L 133.029765 25.915897 
L 134.308504 31.808095 
L 135.706751 37.219123 
L 136.850427 40.779315 
L 137.957919 43.467044 
L 139.131553 45.716236 
L 140.329544 47.576909 
L 141.738229 49.383053 
L 143.389293 51.141781 
L 145.307682 52.8604 
L 147.847259 54.826533 
L 151.468596 57.315964 
L 158.406635 61.728311 
L 163.561968 65.115463 
L 168.44917 68.599327 
L 174.261891 73.031738 
L 192.449912 87.160328 
L 197.064631 90.317561 
L 201.832698 93.303078 
L 207.14901 96.369124 
L 213.443782 99.727712 
L 220.735632 103.357859 
L 231.2024 108.289559 
L 249.101914 116.689356 
L 256.786973 120.567945 
L 263.035318 123.972559 
L 268.301596 127.088206 
L 275.317316 131.344396 
L 276.831119 131.943091 
L 277.955932 132.210447 
L 279.071808 132.287583 
L 280.178574 132.151455 
L 281.274559 131.824854 
L 282.715297 131.160635 
L 284.475812 130.093031 
L 288.77691 127.313913 
L 290.330848 126.641536 
L 291.559395 126.344955 
L 292.791304 126.297566 
L 294.041662 126.531381 
L 295.325426 127.077402 
L 296.651992 127.92193 
L 298.725766 129.58297 
L 303.582069 133.633244 
L 305.992781 135.254263 
L 308.498212 136.676208 
L 311.525264 138.115262 
L 314.646608 139.353484 
L 318.305398 140.571118 
L 322.97542 141.879516 
L 331.959242 144.085563 
L 338.031393 145.704225 
L 342.126091 147.025799 
L 345.654065 148.413066 
L 348.639531 149.818655 
L 351.934545 151.635931 
L 355.105448 153.665384 
L 358.152903 155.893688 
L 361.077572 158.307519 
L 363.880116 160.893551 
L 366.887824 163.99208 
L 369.742749 167.272714 
L 372.445832 170.71648 
L 374.998016 174.304405 
L 377.65794 178.436988 
L 380.134025 182.698096 
L 382.427562 187.061703 
L 384.741154 191.948997 
L 386.837147 196.894183 
L 388.877538 202.314254 
L 390.663251 207.717025 
L 392.196519 213.057523 
L 393.479575 218.290775 
L 394.597087 223.807011 
L 395.469333 229.205384 
L 396.230215 235.365667 
L 396.85868 242.369126 
L 397.487442 252.110024 
L 398.787409 276.452805 
L 398.817286 282.339814 
L 398.628299 287.198478 
L 398.245552 291.492094 
L 397.70405 295.216218 
L 396.945089 298.827692 
L 396.081468 301.875955 
L 395.012744 304.802604 
L 393.919791 307.201853 
L 392.651564 309.489234 
L 391.196716 311.654351 
L 389.544155 313.686879 
L 387.410777 315.892366 
L 381.72237 321.534608 
L 380.775693 322.869743 
L 380.254773 323.936267 
L 379.983652 325.009408 
L 379.966134 325.823051 
L 380.198855 326.923968 
L 380.69514 328.045272 
L 381.633252 329.4786 
L 383.135541 331.250215 
L 385.585235 333.710998 
L 390.974635 339.030417 
L 392.807273 341.182381 
L 394.40866 343.425639 
L 395.787667 345.755443 
L 396.958587 348.166553 
L 397.935711 350.653726 
L 398.849817 353.644574 
L 399.542291 356.723498 
L 400.035826 359.882176 
L 400.385379 363.579076 
L 400.545648 367.834141 
L 400.490973 372.660527 
L 400.192209 378.556008 
L 399.385936 389.025117 
L 398.824446 397.511471 
L 398.60712 404.439885 
L 398.623388 411.30769 
L 398.86754 418.115323 
L 399.333872 424.863217 
L 400.016674 431.551807 
L 400.91024 438.181528 
L 402.008861 444.752815 
L 403.407021 451.72913 
L 405.027004 458.639398 
L 406.861792 465.484156 
L 408.904363 472.263937 
L 411.304221 479.424687 
L 413.923985 486.512767 
L 416.755134 493.528824 
L 419.789149 500.473508 
L 423.225542 507.774758 
L 426.871115 514.996945 
L 430.947777 522.558657 
L 435.235364 530.033528 
L 439.721748 537.422484 
L 444.65964 545.12975 
L 450.066429 553.141551 
L 455.671221 561.050895 
L 461.751147 569.246825 
L 471.624857 582.387926 
L 473.326313 585.173978 
L 474.57267 587.620525 
L 475.42789 589.710745 
L 476.088978 591.855946 
L 476.538107 594.061282 
L 476.790666 596.321098 
L 476.868288 599.092805 
L 476.700777 602.390501 
L 476.250219 606.215141 
L 475.443338 611.028633 
L 473.619944 621.428842 
L 473.163878 625.532448 
L 472.962724 629.143944 
L 472.975758 632.758496 
L 473.224068 636.411706 
L 473.728738 640.139174 
L 474.397195 643.489613 
L 475.292198 646.948012 
L 476.425982 650.534197 
L 477.987113 654.72359 
L 479.764401 658.8584 
L 481.686975 662.778268 
L 483.683966 666.322835 
L 485.436666 668.990404 
L 486.905153 670.869041 
L 488.312515 672.311681 
L 489.422748 673.17287 
L 490.463505 673.724315 
L 491.422978 673.966264 
L 492.124096 673.937154 
L 492.759587 673.710252 
L 493.323407 673.285688 
L 493.809508 672.663587 
L 494.298632 671.60837 
L 494.645066 670.24495 
L 494.837 668.573576 
L 494.859656 666.175082 
L 494.616186 662.426872 
L 493.758811 654.325799 
L 493.261342 648.660053 
L 493.116683 644.804496 
L 493.205405 641.683614 
L 493.473083 639.274055 
L 493.946168 637.079183 
L 494.598579 635.059665 
L 495.711219 632.376098 
L 497.931846 627.154072 
L 500.506702 620.531404 
L 501.567341 618.549791 
L 502.548466 617.155318 
L 503.649298 615.944218 
L 504.857514 614.908938 
L 506.160706 614.041806 
L 507.904356 613.182659 
L 509.75279 612.559268 
L 511.681778 612.15665 
L 513.667088 611.959818 
L 516.089687 611.974159 
L 518.516625 612.23736 
L 520.909143 612.724293 
L 523.255973 613.416604 
L 525.940301 614.464099 
L 528.57169 615.747466 
L 531.15521 617.243215 
L 534.055691 619.182566 
L 537.261335 621.615573 
L 540.76452 624.572351 
L 544.90702 628.379211 
L 551.048547 634.372155 
L 560.585844 643.648223 
L 576.964114 659.149883 
L 587.490877 669.282565 
L 595.896307 677.677441 
L 603.512206 685.593421 
L 610.329609 692.990246 
L 616.669989 700.191503 
L 622.52898 707.179786 
L 627.9091 713.937176 
L 632.818729 720.445461 
L 637.543637 727.080173 
L 641.806607 733.443006 
L 645.883661 739.918901 
L 649.772231 746.503073 
L 653.469838 753.190685 
L 656.973998 759.976897 
L 660.282232 766.856871 
L 663.392056 773.825768 
L 666.300991 780.878751 
L 669.006553 788.010979 
L 671.506263 795.217616 
L 673.797638 802.493821 
L 675.878196 809.834758 
L 677.745621 817.235512 
L 679.83519 826.536632 
L 683.325364 842.191337 
L 685.074272 848.916839 
L 686.656767 854.171452 
L 688.29493 858.867577 
L 689.97181 863.020544 
L 691.851885 867.050818 
L 693.933644 870.961763 
L 696.206121 874.762352 
L 698.913018 878.826261 
L 701.82278 882.779467 
L 705.211256 886.979851 
L 708.804786 891.078245 
L 712.907165 895.421084 
L 717.541967 900.006321 
L 722.730982 904.821974 
L 728.128177 909.530252 
L 734.088756 914.425452 
L 740.232168 919.18051 
L 746.928685 924.06883 
L 753.766674 928.777345 
L 760.712689 933.294928 
L 768.147865 937.857777 
L 775.626945 942.180889 
L 783.110225 946.251056 
L 791.403431 950.492164 
L 821.875037 965.790587 
L 828.306469 969.170829 
L 831.100925 970.407573 
L 833.439092 971.237341 
L 836.177621 971.962332 
L 839.368961 972.563174 
L 842.401595 973.10998 
L 842.392931 973.133332 
L 842.069105 973.352597 
L 841.588894 973.747315 
L 841.370294 974.187209 
L 841.330755 974.74109 
L 841.500875 975.371005 
L 841.911238 976.038995 
L 842.59219 976.707255 
L 843.555801 977.3499 
L 845.058428 978.079389 
L 847.241243 978.864759 
L 850.229189 979.663037 
L 853.657563 980.340628 
L 857.929514 980.939456 
L 862.518216 981.344062 
L 867.296258 981.532486 
L 872.136227 981.482769 
L 876.38741 981.220904 
L 880.497366 980.738105 
L 883.907381 980.122297 
L 887.082598 979.315916 
L 890.01037 978.327629 
L 892.726158 977.185427 
L 895.61879 975.728682 
L 899.000469 973.743925 
L 903.812349 970.599367 
L 908.641779 967.506824 
L 911.702448 965.794633 
L 914.605542 964.424084 
L 917.332894 963.377151 
L 920.274474 962.502653 
L 923.444946 961.808418 
L 928.735187 960.927391 
L 935.591486 959.762316 
L 938.894458 958.987168 
L 941.579937 958.142554 
L 943.6779 957.274975 
L 945.629048 956.239334 
L 947.803712 954.801933 
L 950.169177 952.914913 
L 953.051476 950.269112 
L 958.866719 944.824402 
L 961.343076 942.850747 
L 964.359617 940.746164 
L 967.556134 938.799972 
L 970.912938 937.00935 
L 974.856419 935.177347 
L 978.949806 933.534658 
L 983.165065 932.077268 
L 987.957522 930.67039 
L 992.827369 929.481816 
L 997.736148 928.50604 
L 1003.136045 927.671788 
L 1008.512454 927.078517 
L 1013.86378 926.714301 
L 1019.189364 926.567127 
L 1024.968964 926.639995 
L 1030.716297 926.941271 
L 1036.430512 927.455358 
L 1042.58255 928.234351 
L 1048.693636 929.22497 
L 1055.227766 930.505719 
L 1062.172984 932.096655 
L 1069.515947 934.009455 
L 1077.693781 936.382517 
L 1086.673819 939.232166 
L 1097.297402 942.850805 
L 1109.073785 947.100295 
L 1122.015656 952.014199 
L 1137.03987 957.964661 
L 1158.63357 966.782581 
L 1206.006341 986.38993 
L 1217.197573 991.329331 
L 1226.890661 995.842938 
L 1235.517882 1000.106345 
L 1243.089268 1004.091678 
L 1250.037961 1007.998833 
L 1256.382347 1011.813473 
L 1263.345036 1016.266849 
L 1270.960028 1021.416193 
L 1280.082069 1027.875033 
L 1291.698925 1036.386255 
L 1297.49003 1040.868971 
L 1301.984006 1044.600217 
L 1305.923768 1048.153258 
L 1309.304841 1051.50749 
L 1312.146501 1054.637806 
L 1314.485106 1057.516423 
L 1316.623698 1060.491974 
L 1318.546058 1063.568613 
L 1320.264962 1066.741358 
L 1321.981449 1070.416218 
L 1323.496407 1074.192507 
L 1324.979373 1078.494336 
L 1326.414032 1083.338215 
L 1327.915858 1089.187953 
L 1330.013377 1098.381282 
L 1332.710944 1110.044304 
L 1335.261088 1119.877241 
L 1341.047559 1141.881595 
L 1342.748641 1149.347072 
L 1344.012919 1155.859431 
L 1344.95318 1161.886105 
L 1345.662695 1167.892644 
L 1346.149419 1173.879834 
L 1346.421325 1179.848467 
L 1346.483052 1186.256377 
L 1346.314847 1192.644667 
L 1345.926666 1199.014322 
L 1345.277968 1205.819395 
L 1344.400427 1212.605421 
L 1343.306293 1219.373615 
L 1341.91428 1226.574732 
L 1340.304632 1233.758413 
L 1338.372544 1241.373614 
L 1336.097113 1249.419086 
L 1333.461934 1257.894073 
L 1330.308329 1267.245568 
L 1326.15153 1278.819712 
L 1311.905193 1317.848756 
L 1308.922585 1326.95792 
L 1306.441581 1335.221464 
L 1304.435719 1342.626161 
L 1302.755013 1349.624508 
L 1301.293983 1356.68183 
L 1300.148964 1363.318346 
L 1299.233006 1369.995496 
L 1298.602922 1376.225788 
L 1298.199539 1382.479126 
L 1298.040557 1388.266902 
L 1298.097774 1394.064855 
L 1298.382246 1399.868446 
L 1298.90503 1405.673133 
L 1299.601398 1410.990872 
L 1300.581407 1416.779258 
L 1301.8614 1423.019771 
L 1303.560874 1430.159389 
L 1305.818108 1438.605086 
L 1309.258805 1450.481787 
L 1314.365873 1468.147442 
L 1316.80423 1476.251981 
L 1318.689091 1481.746783 
L 1320.508028 1486.349855 
L 1322.396803 1490.489395 
L 1324.3395 1494.191162 
L 1326.302631 1497.476346 
L 1328.496321 1500.720781 
L 1330.927549 1503.927891 
L 1333.875543 1507.452411 
L 1337.371526 1511.28844 
L 1341.77369 1515.776416 
L 1347.469127 1521.249514 
L 1370.842964 1543.34867 
L 1378.010545 1550.578558 
L 1384.617211 1557.56205 
L 1390.365457 1563.955006 
L 1395.610517 1570.107799 
L 1400.374183 1576.018171 
L 1404.961167 1582.060694 
L 1409.093108 1587.859749 
L 1413.054651 1593.802084 
L 1416.837278 1599.896368 
L 1419.116447 1603.8 
L 1419.116447 1603.8 
" clip-path="url(#p4caedf6d38)" style="fill: none; stroke: #0000ff; stroke-width: 0.072"/>
    <path d="M 1461.667817 1603.8 
L 1459.765318 1599.881087 
L 1457.548072 1595.845787 
L 1455.356815 1592.298671 
L 1452.710952 1588.448752 
L 1449.584813 1584.304603 
L 1445.665907 1579.496404 
L 1439.986335 1572.925594 
L 1430.109378 1561.550863 
L 1425.232166 1555.522459 
L 1419.044478 1547.488278 
L 1407.075817 1531.873355 
L 1402.23778 1525.971113 
L 1396.62959 1519.498788 
L 1388.988696 1511.046912 
L 1374.680651 1495.278623 
L 1369.154765 1488.828869 
L 1364.710561 1483.324866 
L 1360.731294 1478.048692 
L 1357.210541 1473.003533 
L 1354.132166 1468.201488 
L 1351.471245 1463.664069 
L 1348.751045 1458.571341 
L 1346.224566 1453.34281 
L 1343.895051 1447.992092 
L 1341.765739 1442.532803 
L 1339.839871 1436.978559 
L 1338.120689 1431.342976 
L 1336.611432 1425.639669 
L 1335.315342 1419.882254 
L 1334.235659 1414.084348 
L 1333.375625 1408.259566 
L 1332.73848 1402.421523 
L 1332.327464 1396.583836 
L 1332.145819 1390.76012 
L 1332.196786 1384.963992 
L 1332.483605 1379.209067 
L 1332.956479 1373.981543 
L 1333.632755 1368.81057 
L 1334.513544 1363.705163 
L 1335.697436 1358.208718 
L 1337.098006 1352.781328 
L 1338.84064 1346.970948 
L 1340.797165 1341.223416 
L 1343.119297 1335.093199 
L 1345.825715 1328.580391 
L 1349.126253 1321.250382 
L 1353.052785 1313.097323 
L 1358.272547 1302.813584 
L 1370.690024 1279.055304 
L 1372.853135 1275.302467 
L 1374.661332 1272.550646 
L 1376.331282 1270.352727 
L 1378.137949 1268.338654 
L 1379.765599 1266.824735 
L 1381.516954 1265.468766 
L 1383.399931 1264.258385 
L 1385.843895 1262.9782 
L 1388.50136 1261.86288 
L 1391.385398 1260.887999 
L 1395.053914 1259.895551 
L 1399.671032 1258.904918 
L 1407.830225 1257.258051 
L 1409.362012 1256.713129 
L 1409.780154 1256.375781 
L 1409.835103 1256.143233 
L 1409.627793 1255.775592 
L 1408.916602 1255.234356 
L 1404.739345 1252.546733 
L 1403.648168 1251.469619 
L 1402.685843 1250.256051 
L 1401.645458 1248.566796 
L 1400.763298 1246.709545 
L 1399.879845 1244.294455 
L 1399.038324 1241.274718 
L 1398.154561 1237.178443 
L 1395.275655 1221.723454 
L 1390.623023 1197.323417 
L 1387.383467 1181.474605 
L 1382.849773 1160.681487 
L 1379.415228 1144.460282 
L 1377.25849 1133.207179 
L 1375.237463 1121.32924 
L 1371.077244 1096.46393 
L 1369.307315 1087.461528 
L 1367.613621 1079.966415 
L 1365.937184 1073.494297 
L 1364.187156 1067.572357 
L 1362.382604 1062.193411 
L 1360.374711 1056.909667 
L 1358.337427 1052.159212 
L 1356.095175 1047.506371 
L 1353.865174 1043.368313 
L 1351.440042 1039.324222 
L 1348.8119 1035.379096 
L 1345.993281 1031.531716 
L 1342.694855 1027.408879 
L 1338.888123 1023.037209 
L 1334.894929 1018.791895 
L 1330.395592 1014.32932 
L 1325.393911 1009.674804 
L 1319.542881 1004.537103 
L 1312.50837 998.67142 
L 1302.950002 991.022702 
L 1282.762113 975.219661 
L 1278.52251 972.310933 
L 1273.816333 969.378745 
L 1267.200542 965.241727 
L 1264.35646 963.211668 
L 1262.180621 961.401986 
L 1260.61501 959.836088 
L 1259.308152 958.216406 
L 1258.023794 956.235019 
L 1256.628816 953.612389 
L 1254.56705 949.686047 
L 1253.463566 948.134467 
L 1252.368844 947.01888 
L 1251.336749 946.263666 
L 1250.138515 945.643277 
L 1248.41982 945.039457 
L 1246.085609 944.514663 
L 1243.074142 944.09178 
L 1231.845687 942.744122 
L 1228.695793 941.99988 
L 1225.654087 941.063346 
L 1222.287638 939.800005 
L 1218.205583 938.003656 
L 1212.633512 935.256243 
L 1204.705289 931.341827 
L 1200.641799 929.601458 
L 1197.296277 928.401222 
L 1193.845986 927.409924 
L 1189.42112 926.396101 
L 1175.187551 923.364481 
L 1170.473597 921.984335 
L 1163.267329 919.610527 
L 1154.644159 916.816279 
L 1143.129556 913.393038 
L 1131.663472 909.918853 
L 1124.82361 907.611629 
L 1119.47413 905.577075 
L 1114.327788 903.381934 
L 1108.183427 900.508117 
L 1098.33992 895.601361 
L 1089.006276 891.033674 
L 1082.868512 888.279143 
L 1078.6474 886.602443 
L 1074.795021 885.303486 
L 1071.350917 884.380366 
L 1068.337633 883.79559 
L 1065.336746 883.451586 
L 1062.347984 883.329073 
L 1058.511957 883.420305 
L 1053.384934 883.812826 
L 1043.402528 884.637015 
L 1036.73163 884.917598 
L 1029.010041 885.012718 
L 1019.700953 884.886005 
L 1007.712707 884.481862 
L 988.839524 883.817952 
L 982.360145 883.844216 
L 976.940648 884.077319 
L 972.095576 884.505092 
L 967.824267 885.100433 
L 964.11478 885.821662 
L 960.501549 886.745197 
L 956.998153 887.891719 
L 953.610325 889.26945 
L 950.322618 890.852952 
L 946.719981 892.841674 
L 942.804598 895.256899 
L 937.793229 898.623385 
L 924.140585 907.975424 
L 919.625464 910.708892 
L 914.973754 913.264886 
L 910.200913 915.632651 
L 905.322406 917.801437 
L 900.353696 919.760495 
L 895.310248 921.499073 
L 890.207526 923.006423 
L 885.530264 924.167043 
L 880.828413 925.119604 
L 876.113593 925.85603 
L 871.397422 926.368244 
L 866.691517 926.648169 
L 862.007498 926.68773 
L 857.820195 926.511147 
L 853.668499 926.127439 
L 849.560882 925.530718 
L 845.505812 924.715095 
L 841.511759 923.674684 
L 837.58536 922.406893 
L 833.725685 920.922741 
L 829.929849 919.23676 
L 825.78362 917.14441 
L 821.708689 914.840763 
L 817.303893 912.086493 
L 812.585407 908.848931 
L 807.950793 905.401828 
L 802.640628 901.161323 
L 797.05519 896.415601 
L 790.114341 890.206909 
L 779.044984 879.937915 
L 762.540806 864.423638 
L 758.043463 859.810387 
L 754.370241 855.736146 
L 751.177997 851.868205 
L 748.441531 848.214749 
L 745.875484 844.414436 
L 743.472402 840.478419 
L 741.003172 836.012403 
L 738.499664 831.003283 
L 735.988516 825.448522 
L 733.48901 819.35922 
L 730.851963 812.322444 
L 728.278047 804.830811 
L 726.544167 799.145865 
L 725.308002 794.398932 
L 724.415714 790.15618 
L 723.775254 786.000478 
L 722.192406 774.401466 
L 721.532892 771.680528 
L 720.647511 768.982246 
L 719.532893 766.303217 
L 718.010242 763.261014 
L 716.024897 759.857851 
L 713.5434 756.092717 
L 710.282703 751.584522 
L 704.490767 744.054009 
L 699.313054 737.206465 
L 695.251592 731.423387 
L 691.156541 725.188021 
L 686.779071 718.109886 
L 681.425959 709.002071 
L 666.477877 683.261648 
L 662.05184 676.233688 
L 657.899771 670.057228 
L 653.776484 664.341925 
L 649.443509 658.717746 
L 644.350864 652.48166 
L 638.529818 645.723546 
L 631.768414 638.234631 
L 621.800284 627.283212 
L 618.913536 623.695295 
L 616.501718 620.329863 
L 610.125431 611.162938 
L 607.967221 608.583513 
L 605.874218 606.431708 
L 603.586815 604.381557 
L 600.770957 602.147585 
L 597.397425 599.751539 
L 593.064768 596.954827 
L 586.162457 592.812865 
L 578.218965 588.008564 
L 574.159117 585.300969 
L 570.383836 582.515272 
L 566.199229 579.147727 
L 560.386508 574.147833 
L 553.035543 567.851605 
L 548.805874 564.521039 
L 544.976718 561.779781 
L 540.50525 558.870628 
L 534.182819 555.048575 
L 520.1665 546.653499 
L 515.286309 543.443093 
L 510.950961 540.319991 
L 507.162814 537.310462 
L 503.524056 534.146427 
L 500.033658 530.839224 
L 496.364343 527.049476 
L 492.871925 523.115305 
L 489.555031 519.051805 
L 486.135174 514.489127 
L 482.920762 509.809947 
L 479.908808 505.027996 
L 477.094761 500.149446 
L 474.473966 495.179949 
L 471.84745 489.700253 
L 469.436353 484.127643 
L 467.234755 478.469305 
L 465.236737 472.732428 
L 463.436379 466.924198 
L 461.711793 460.597628 
L 460.202188 454.205618 
L 458.90017 447.757145 
L 457.727109 440.795607 
L 456.774768 433.790597 
L 456.034054 426.753155 
L 455.464593 419.222455 
L 455.057652 410.72872 
L 454.830994 401.271314 
L 454.770404 388.958393 
L 454.740853 349.220117 
L 454.577708 313.431797 
L 454.562678 277.791341 
L 454.302235 265.157849 
L 453.871237 254.40528 
L 453.262753 244.594104 
L 452.50116 235.72179 
L 451.567065 227.319717 
L 450.471958 219.386823 
L 449.149262 211.457346 
L 447.683547 204.009887 
L 445.993955 196.594854 
L 444.198162 189.687832 
L 442.189377 182.838266 
L 439.959748 176.060169 
L 437.672584 169.810785 
L 435.179819 163.647256 
L 432.475069 157.580973 
L 429.768122 152.045029 
L 426.867779 146.611878 
L 423.768926 141.290643 
L 420.466455 136.090443 
L 417.232874 131.405575 
L 413.818669 126.840172 
L 410.22628 122.408586 
L 406.459503 118.126676 
L 402.522135 114.010303 
L 398.766263 110.395926 
L 394.873162 106.946191 
L 390.845755 103.673312 
L 386.686967 100.589507 
L 382.399722 97.706992 
L 378.393217 95.271477 
L 374.285163 93.021592 
L 370.077756 90.966516 
L 365.773196 89.115427 
L 361.373677 87.477503 
L 356.881398 86.061923 
L 352.760853 84.985588 
L 347.634164 83.896829 
L 336.270956 81.591445 
L 332.010874 80.444658 
L 328.250745 79.181662 
L 324.059757 77.536329 
L 317.637512 74.747513 
L 310.469771 71.672722 
L 305.218619 69.673205 
L 299.188544 67.61366 
L 290.660592 64.962232 
L 277.772685 60.952431 
L 271.60173 58.791496 
L 265.758234 56.515202 
L 259.857455 53.976971 
L 254.408624 51.404828 
L 249.003604 48.615803 
L 243.686855 45.612921 
L 238.928681 42.674999 
L 234.316279 39.562252 
L 230.278498 36.582739 
L 226.415219 33.462421 
L 222.752169 30.203051 
L 219.647884 27.152177 
L 216.745381 23.991366 
L 214.063414 20.721895 
L 213.364615 19.8 
L 213.364615 19.8 
" clip-path="url(#p4caedf6d38)" style="fill: none; stroke: #0000ff; stroke-width: 0.072"/>
   </g>
   <g id="LineCollection_2">
    <path d="M 19.8 19.8 
L 157.077982 19.8 
" clip-path="url(#p4caedf6d38)" style="fill: none; stroke: #ff0000; stroke-width: 0.072"/>
    <path d="M 157.077982 19.8 
L 191.888402 19.8 
" clip-path="url(#p4caedf6d38)" style="fill: none; stroke: #ff0000; stroke-width: 0.072"/>
    <path d="M 191.888402 19.8 
L 1603.8 19.8 
L 1603.8 1603.8 
L 1461.269971 1603.8 
" clip-path="url(#p4caedf6d38)" style="fill: none; stroke: #ff0000; stroke-width: 0.072"/>
    <path d="M 1461.269971 1603.8 
L 1429.707303 1603.8 
" clip-path="url(#p4caedf6d38)" style="fill: none; stroke: #ff0000; stroke-width: 0.072"/>
    <path d="M 1429.707303 1603.8 
L 19.8 1603.8 
L 19.8 19.8 
" clip-path="url(#p4caedf6d38)" style="fill: none; stroke: #ff0000; stroke-width: 0.072"/>
    <path d="M 191.888402 19.8 
L 193.209165 22.050751 
L 195.462054 25.607093 
L 197.851207 29.054138 
L 200.377329 32.385542 
L 203.041125 35.594962 
L 205.843299 38.676052 
L 208.784556 41.622469 
L 211.865217 44.428393 
L 215.079563 47.096279 
L 218.417068 49.635167 
L 221.867071 52.054276 
L 227.229697 55.478527 
L 232.785488 58.685147 
L 238.49847 61.705257 
L 244.332669 64.569978 
L 252.237983 68.201679 
L 264.195995 73.394669 
L 280.114343 80.066187 
L 299.986498 88.147841 
L 347.834292 107.479665 
L 355.750171 110.965355 
L 363.57299 114.659835 
L 369.340654 117.614252 
L 374.948855 120.792678 
L 378.561939 123.068552 
L 382.048462 125.492696 
L 385.386148 128.084595 
L 388.557271 130.858686 
L 391.562079 133.809464 
L 394.405258 136.9265 
L 397.091498 140.199365 
L 399.625483 143.617627 
L 402.011903 147.170859 
L 404.255444 150.84863 
L 406.360794 154.64051 
L 408.332639 158.53607 
L 410.175667 162.524881 
L 412.708931 168.660126 
L 414.978723 174.946517 
L 417.000863 181.348855 
L 418.791169 187.831938 
L 420.365462 194.360568 
L 421.739543 200.90074 
L 422.928929 207.437014 
L 424.253906 216.144674 
L 425.313963 224.843038 
L 426.145335 233.531161 
L 426.918169 244.375469 
L 427.461079 255.200442 
L 427.969638 270.319399 
L 429.002538 304.693856 
L 429.565802 315.376358 
L 430.366259 326.027313 
L 431.224965 334.524118 
L 432.317006 342.998601 
L 433.678621 351.449813 
L 435.718728 361.996457 
L 437.743158 372.601923 
L 438.74764 379.033187 
L 439.264768 383.361763 
L 439.623759 387.730241 
L 439.863347 394.348869 
L 439.85703 400.99509 
L 439.671863 418.389256 
L 439.927011 424.614662 
L 440.304563 428.625848 
L 440.895025 432.504718 
L 441.716314 436.251731 
L 442.728783 439.915064 
L 444.499187 445.37516 
L 449.711312 460.830444 
L 454.610872 475.454642 
L 457.691154 483.967216 
L 460.186989 490.314735 
L 462.873603 496.562465 
L 465.779501 502.64907 
L 467.85239 506.587477 
L 471.169524 512.299268 
L 474.721586 517.789481 
L 478.491766 523.074171 
L 482.463255 528.169394 
L 486.619246 533.091206 
L 490.942929 537.855662 
L 495.417496 542.47882 
L 500.026138 546.976735 
L 506.350502 552.806883 
L 512.843496 558.480979 
L 521.136177 565.412132 
L 532.93583 574.947543 
L 549.806363 588.582895 
L 563.149202 599.659193 
L 576.34334 610.89452 
L 589.383359 622.292212 
L 602.263838 633.855607 
L 614.97936 645.588043 
L 624.388256 654.50502 
L 630.454252 660.548393 
L 634.770356 665.169164 
L 638.843146 669.885731 
L 644.022169 676.333727 
L 651.677241 686.367066 
L 662.13936 700.383955 
L 668.62419 709.426155 
L 673.655756 716.768047 
L 678.462475 724.173523 
L 681.872251 729.751295 
L 685.077485 735.335273 
L 688.044718 740.912791 
L 690.743727 746.473285 
L 693.197653 752.040932 
L 696.204237 759.566808 
L 699.055317 767.32552 
L 701.83166 775.376902 
L 704.449989 783.644924 
L 706.851448 792.044138 
L 711.348301 808.987676 
L 714.257392 819.506206 
L 716.808609 827.787768 
L 718.922394 833.882564 
L 721.257736 839.850009 
L 723.859467 845.665265 
L 725.764086 849.445285 
L 727.819655 853.139535 
L 730.027684 856.745498 
L 732.380389 860.264482 
L 734.8697 863.697915 
L 737.487547 867.047221 
L 741.637669 871.916565 
L 746.031602 876.604649 
L 750.642108 881.116286 
L 755.44195 885.456291 
L 760.403892 889.629477 
L 765.500697 893.640658 
L 770.705127 897.494648 
L 777.764678 902.406183 
L 788.480079 909.485486 
L 799.151993 916.576642 
L 806.134234 921.5094 
L 811.257526 925.395503 
L 816.347633 929.245665 
L 819.815085 931.534751 
L 821.592879 932.535214 
L 823.409764 933.412614 
L 825.273025 934.146693 
L 827.187997 934.723024 
L 829.151879 935.151484 
L 831.159754 935.448285 
L 835.287808 935.711756 
L 839.532812 935.643129 
L 846.033529 935.201206 
L 856.94941 934.427088 
L 876.498449 933.145514 
L 885.087357 932.337613 
L 891.46797 931.53283 
L 897.785063 930.502625 
L 904.028574 929.197523 
L 908.14507 928.150301 
L 912.221412 926.944255 
L 916.254724 925.56526 
L 920.246146 924.019863 
L 926.168702 921.463123 
L 933.979975 917.792734 
L 945.622302 912.296725 
L 951.458757 909.809406 
L 955.370701 908.32808 
L 959.306118 907.017029 
L 965.258014 905.337761 
L 971.27337 903.941802 
L 977.357731 902.760008 
L 985.587143 901.397921 
L 1006.8239 898.058112 
L 1026.596294 894.721758 
L 1033.214109 893.819175 
L 1039.80193 893.140476 
L 1046.333657 892.757128 
L 1050.644088 892.700942 
L 1054.910254 892.828963 
L 1059.124421 893.162368 
L 1063.278856 893.722334 
L 1067.365826 894.530028 
L 1071.380834 895.596345 
L 1075.329055 896.901415 
L 1079.217469 898.41964 
L 1083.053057 900.125421 
L 1086.842796 901.993158 
L 1092.45671 905.042433 
L 1098.006725 908.312116 
L 1107.178738 914.01672 
L 1116.347747 919.693585 
L 1121.893078 922.919995 
L 1127.499323 925.90955 
L 1133.176257 928.63499 
L 1138.92332 931.113402 
L 1144.739667 933.363108 
L 1150.62445 935.402427 
L 1156.576822 937.249679 
L 1162.595938 938.923186 
L 1170.723786 940.915922 
L 1178.966775 942.675772 
L 1187.322901 944.246161 
L 1197.924099 946.008877 
L 1215.149113 948.710036 
L 1219.366173 949.621336 
L 1223.458721 950.781686 
L 1227.380296 952.271743 
L 1229.262447 953.165617 
L 1231.084432 954.172163 
L 1232.84044 955.301464 
L 1234.525398 956.562182 
L 1236.143179 957.945649 
L 1239.216756 960.999572 
L 1242.14081 964.299657 
L 1247.8593 970.984478 
L 1250.811733 974.082387 
L 1253.929091 976.894687 
L 1255.573559 978.1691 
L 1257.28799 979.342548 
L 1259.08196 980.405179 
L 1260.964285 981.348109 
L 1264.961951 982.925259 
L 1271.281218 984.886305 
L 1275.505636 986.211407 
L 1279.576428 987.780718 
L 1281.510583 988.718563 
L 1283.353976 989.791395 
L 1285.091914 991.01818 
L 1286.724155 992.388153 
L 1288.255168 993.88086 
L 1289.689424 995.475838 
L 1292.285553 998.890761 
L 1294.55105 1002.469083 
L 1297.70398 1007.769045 
L 1298.839988 1009.428775 
L 1300.08291 1010.997902 
L 1301.471382 1012.454142 
L 1303.044044 1013.77521 
L 1304.838678 1014.939165 
L 1308.691915 1016.930256 
L 1310.300633 1017.926748 
L 1311.636393 1018.954836 
L 1314.981965 1021.964748 
L 1316.202267 1022.855176 
L 1317.637958 1023.645123 
L 1319.348556 1024.325003 
L 1327.325495 1026.98805 
L 1329.200771 1027.886075 
L 1330.975996 1028.904727 
L 1332.655356 1030.038016 
L 1334.243038 1031.279957 
L 1335.743229 1032.624562 
L 1337.160116 1034.065844 
L 1338.497886 1035.597816 
L 1340.952821 1038.909879 
L 1343.141528 1042.512855 
L 1345.097504 1046.358845 
L 1346.854243 1050.399952 
L 1348.445239 1054.588279 
L 1350.594236 1061.042029 
L 1353.821698 1071.855828 
L 1356.38634 1080.127582 
L 1357.754996 1084.005312 
L 1362.585422 1096.609714 
L 1363.604153 1100.36902 
L 1364.410479 1104.273691 
L 1365.029088 1108.309018 
L 1365.484671 1112.460293 
L 1365.91638 1118.872429 
L 1366.12016 1125.462707 
L 1366.179607 1136.707542 
L 1366.263911 1150.348908 
L 1366.5058 1157.114124 
L 1366.991951 1163.776171 
L 1367.492902 1168.135705 
L 1368.164138 1172.412613 
L 1369.030349 1176.592186 
L 1370.116224 1180.659715 
L 1371.446454 1184.600492 
L 1373.044921 1188.400222 
L 1374.885881 1192.070164 
L 1381.70218 1204.655266 
L 1383.301979 1208.402469 
L 1383.975098 1210.335504 
L 1384.545635 1212.316707 
L 1385.005256 1214.342333 
L 1385.350006 1216.400106 
L 1385.576067 1218.477475 
L 1385.679625 1220.561893 
L 1385.656863 1222.64081 
L 1385.503964 1224.701677 
L 1385.217113 1226.731945 
L 1384.792493 1228.719065 
L 1384.226289 1230.650487 
L 1383.514684 1232.513664 
L 1382.653862 1234.296044 
L 1381.640484 1235.985582 
L 1380.483851 1237.583484 
L 1379.206891 1239.105254 
L 1376.386416 1241.985254 
L 1368.881928 1248.987902 
L 1367.492169 1250.484308 
L 1366.194536 1252.050504 
L 1365.00943 1253.700467 
L 1363.935737 1255.43315 
L 1362.96349 1257.241329 
L 1361.283358 1261.055194 
L 1359.889086 1265.084107 
L 1358.70072 1269.27011 
L 1356.62191 1277.881564 
L 1355.011738 1284.323668 
L 1353.186294 1290.626482 
L 1351.169165 1296.805192 
L 1348.24197 1304.890841 
L 1345.119175 1312.852865 
L 1337.807423 1330.602529 
L 1333.846753 1340.546684 
L 1330.88155 1348.629695 
L 1328.875274 1354.768317 
L 1327.139988 1360.963113 
L 1326.171224 1365.120052 
L 1325.379214 1369.295761 
L 1324.786484 1373.487759 
L 1324.415559 1377.69357 
L 1324.288507 1381.910715 
L 1324.408803 1386.136823 
L 1324.75533 1390.369654 
L 1325.305284 1394.606981 
L 1326.035858 1398.846574 
L 1327.420497 1405.20534 
L 1329.083251 1411.55667 
L 1331.599848 1420.000545 
L 1335.674791 1432.575816 
L 1339.260328 1442.915875 
L 1342.316167 1451.052845 
L 1345.590652 1459.035746 
L 1348.218912 1464.902934 
L 1351.017466 1470.652566 
L 1354.006589 1476.2714 
L 1357.206554 1481.746196 
L 1360.637634 1487.063714 
L 1364.320105 1492.210714 
L 1366.924758 1495.540776 
L 1369.656157 1498.785246 
L 1372.520311 1501.940198 
L 1375.523224 1505.001712 
L 1378.67088 1507.965879 
L 1383.634675 1512.248234 
L 1397.115035 1523.464284 
L 1400.260476 1526.40221 
L 1403.21267 1529.460228 
L 1405.92054 1532.67122 
L 1408.374944 1536.042013 
L 1410.634759 1539.537181 
L 1413.802023 1544.927187 
L 1419.030044 1553.975783 
L 1421.293351 1557.503461 
L 1423.744337 1560.924662 
L 1426.378319 1564.241195 
L 1430.601782 1569.059272 
L 1435.05504 1573.743687 
L 1450.154937 1589.178933 
L 1454.340441 1593.991426 
L 1456.941208 1597.303074 
L 1459.352523 1600.718535 
L 1461.269971 1603.8 
L 1461.269971 1603.8 
" clip-path="url(#p4caedf6d38)" style="fill: none; stroke: #ff0000; stroke-width: 0.072"/>
    <path d="M 1429.707303 1603.8 
L 1428.272217 1602.025259 
L 1424.032109 1597.135431 
L 1418.124261 1590.791587 
L 1410.762145 1582.941594 
L 1406.582668 1578.167819 
L 1401.312798 1571.70513 
L 1394.767509 1563.63807 
L 1389.281047 1557.297336 
L 1383.567564 1551.046549 
L 1376.161073 1543.319565 
L 1366.977573 1534.106384 
L 1341.852537 1509.191384 
L 1337.407689 1504.31134 
L 1334.657823 1500.972793 
L 1332.138617 1497.54952 
L 1329.901474 1494.027314 
L 1327.997036 1490.392155 
L 1326.43172 1486.641199 
L 1325.144165 1482.788713 
L 1324.067268 1478.85042 
L 1322.700123 1472.816477 
L 1320.036024 1460.486453 
L 1317.8724 1452.190754 
L 1314.849482 1441.765737 
L 1309.285862 1422.878159 
L 1307.080058 1414.446538 
L 1305.647443 1408.112645 
L 1304.465928 1401.772611 
L 1303.590453 1395.428763 
L 1303.203955 1391.198559 
L 1302.994149 1386.968382 
L 1302.970496 1382.738922 
L 1303.125687 1378.510876 
L 1303.449869 1374.28494 
L 1303.933191 1370.061812 
L 1304.935013 1363.733906 
L 1306.239484 1357.416237 
L 1307.813358 1351.111154 
L 1309.623383 1344.82101 
L 1311.636313 1338.548156 
L 1314.578379 1330.215311 
L 1317.743242 1321.922959 
L 1322.735876 1309.57255 
L 1331.215273 1289.31836 
L 1338.009662 1273.635796 
L 1343.923359 1260.481639 
L 1348.037054 1251.387778 
L 1349.519447 1247.638724 
L 1350.85461 1243.7579 
L 1352.043983 1239.758813 
L 1353.089673 1235.656011 
L 1353.993787 1231.464046 
L 1355.089109 1225.040744 
L 1355.877731 1218.498667 
L 1356.366762 1211.886922 
L 1356.56331 1205.254613 
L 1356.474484 1198.650848 
L 1356.107392 1192.124733 
L 1355.484143 1185.711863 
L 1354.137407 1175.190843 
L 1353.084279 1166.800907 
L 1352.484432 1160.452087 
L 1352.237813 1156.166967 
L 1352.152894 1151.823778 
L 1352.259659 1147.410291 
L 1352.864655 1134.121965 
L 1352.697839 1129.875692 
L 1352.466517 1127.82077 
L 1352.11323 1125.82136 
L 1351.620461 1123.884987 
L 1350.970695 1122.01918 
L 1350.152562 1120.228994 
L 1348.176052 1116.811152 
L 1346.130139 1113.45879 
L 1345.225371 1111.750405 
L 1344.475933 1109.990406 
L 1343.908591 1108.166603 
L 1343.497547 1106.284673 
L 1343.020387 1102.376216 
L 1342.153088 1090.025179 
L 1341.478579 1085.863926 
L 1340.560468 1081.730819 
L 1339.404739 1077.651076 
L 1338.017379 1073.649918 
L 1336.40437 1069.752566 
L 1334.571699 1065.984238 
L 1332.52535 1062.370155 
L 1330.273575 1058.928204 
L 1327.833915 1055.646206 
L 1325.226295 1052.504278 
L 1322.470639 1049.482536 
L 1318.103171 1045.131779 
L 1313.514694 1040.939599 
L 1307.169154 1035.480715 
L 1295.886049 1025.869252 
L 1288.085518 1018.921436 
L 1273.666645 1005.86466 
L 1270.558291 1003.561659 
L 1267.262906 1001.389211 
L 1263.797743 999.336761 
L 1260.180145 997.393719 
L 1254.505867 994.66114 
L 1248.586161 992.115176 
L 1242.479556 989.720096 
L 1234.14785 986.699601 
L 1199.007569 974.367385 
L 1185.07961 969.085071 
L 1171.292543 963.603467 
L 1157.501862 957.880347 
L 1143.570846 951.876116 
L 1129.524816 945.605989 
L 1115.542225 939.136978 
L 1101.807525 932.538123 
L 1088.505168 925.878464 
L 1072.204462 917.532064 
L 1068.544406 916.016549 
L 1064.759782 914.807754 
L 1062.803647 914.346499 
L 1060.795838 913.995671 
L 1058.729511 913.766519 
L 1056.59782 913.670293 
L 1054.393923 913.71824 
L 1052.112068 913.919833 
L 1047.359864 914.710571 
L 1040.048668 916.398115 
L 1035.277733 917.492477 
L 1030.76317 918.279199 
L 1026.535848 918.682174 
L 1022.522843 918.771654 
L 1018.647644 918.622951 
L 1012.925865 918.118045 
L 1002.995197 917.152415 
L 998.715007 916.930288 
L 994.316127 916.875867 
L 989.881999 917.028159 
L 985.496066 917.426169 
L 981.241774 918.108902 
L 977.198179 919.112134 
L 973.374566 920.420241 
L 969.724291 921.9764 
L 966.199135 923.722629 
L 961.040524 926.571518 
L 952.385555 931.448826 
L 946.94385 934.190963 
L 941.297583 936.759075 
L 935.468924 939.165333 
L 929.48004 941.421906 
L 921.283938 944.218864 
L 912.89495 946.800201 
L 904.365623 949.194766 
L 893.586663 951.969274 
L 880.615343 955.052301 
L 869.890477 957.436323 
L 863.522092 958.671582 
L 857.216093 959.650573 
L 853.051789 960.116394 
L 848.922768 960.401616 
L 844.832052 960.479557 
L 840.782662 960.323536 
L 836.777621 959.906873 
L 832.819952 959.202885 
L 828.912675 958.184892 
L 825.058813 956.826213 
L 821.261438 955.105659 
L 817.524069 953.052019 
L 813.850464 950.720756 
L 810.244384 948.167587 
L 804.9701 944.043637 
L 799.868902 939.733797 
L 785.578955 927.359579 
L 780.91627 923.660396 
L 776.116635 920.199363 
L 772.784003 918.030024 
L 769.305317 915.975097 
L 765.646499 914.03801 
L 761.773477 912.22219 
L 757.652173 910.531064 
L 753.255471 908.964305 
L 741.760837 905.114595 
L 737.391153 903.330678 
L 733.377605 901.265523 
L 729.740042 898.910455 
L 726.452831 896.286693 
L 723.490271 893.415498 
L 720.826658 890.318134 
L 718.436288 887.015863 
L 716.29346 883.529947 
L 714.372469 879.88165 
L 712.647613 876.092234 
L 711.09319 872.182962 
L 709.683496 868.175096 
L 707.784096 862.024947 
L 705.51822 853.678122 
L 701.31148 836.936083 
L 696.064274 816.135361 
L 693.244036 805.822796 
L 690.813645 797.628739 
L 688.179963 789.49288 
L 685.312482 781.423177 
L 682.209642 773.427954 
L 678.873403 765.515576 
L 675.305731 757.694412 
L 671.508587 749.97283 
L 667.483934 742.359196 
L 663.233736 734.861878 
L 658.759955 727.489243 
L 654.064554 720.249659 
L 649.149497 713.151494 
L 644.016745 706.203114 
L 638.668263 699.412887 
L 633.106012 692.78918 
L 627.331957 686.340362 
L 621.348059 680.074798 
L 615.160575 673.995466 
L 608.797929 668.077496 
L 600.65247 660.855413 
L 590.687781 652.358915 
L 565.627036 631.207447 
L 557.466928 623.956385 
L 551.088504 618.007205 
L 544.88164 611.889524 
L 540.36047 607.170333 
L 535.970808 602.323056 
L 531.727583 597.333532 
L 523.434707 587.337962 
L 520.550357 584.281776 
L 517.51977 581.499462 
L 514.301817 579.054118 
L 510.908298 576.916319 
L 507.367506 575.027809 
L 503.707736 573.330323 
L 498.056902 571.014811 
L 486.544783 566.477406 
L 482.82463 564.717468 
L 479.290846 562.671236 
L 477.619123 561.509202 
L 476.024332 560.237726 
L 474.514642 558.847041 
L 473.087252 557.343527 
L 470.452753 554.046214 
L 468.06757 550.442223 
L 465.878438 546.627996 
L 462.845811 540.723428 
L 458.137282 530.952032 
L 453.744729 521.337956 
L 449.608683 511.809722 
L 444.900285 500.388501 
L 439.628671 486.925078 
L 433.696266 471.115268 
L 429.280918 458.838144 
L 427.250002 452.603294 
L 425.459604 446.340618 
L 424.445072 442.163513 
L 423.605607 437.994251 
L 422.968475 433.840912 
L 422.550655 429.709737 
L 422.23096 423.542818 
L 421.744227 409.1379 
L 421.148869 402.89223 
L 420.254665 396.59514 
L 419.126558 390.255937 
L 417.370815 381.754239 
L 411.840769 356.119797 
L 410.739418 349.729988 
L 409.878855 343.365984 
L 409.277735 337.027365 
L 408.904519 330.703167 
L 408.725005 324.381864 
L 408.727849 315.938044 
L 409.006638 305.320075 
L 410.528543 261.777296 
L 410.517628 252.979356 
L 410.28324 244.202344 
L 409.930303 237.646438 
L 409.401768 231.123773 
L 408.67625 224.643548 
L 407.732367 218.214965 
L 406.548733 211.847225 
L 405.103966 205.549528 
L 403.376681 199.331076 
L 401.345496 193.201069 
L 399.811978 189.168078 
L 398.127976 185.181479 
L 396.29314 181.247814 
L 394.311063 177.376127 
L 392.185415 173.575518 
L 389.919871 169.855086 
L 387.518102 166.223931 
L 384.983782 162.691151 
L 382.320583 159.265847 
L 379.532178 155.957116 
L 376.62224 152.774059 
L 373.594442 149.725774 
L 370.452456 146.821361 
L 367.200324 144.067119 
L 363.843606 141.45787 
L 360.388246 138.985492 
L 356.840192 136.641861 
L 351.357317 133.35005 
L 345.699329 130.302234 
L 339.886297 127.471 
L 333.93829 124.828937 
L 327.875378 122.348631 
L 319.647441 119.2458 
L 309.197904 115.604134 
L 269.309874 102.114464 
L 259.033368 98.257899 
L 250.921532 95.005171 
L 242.92294 91.574557 
L 235.052388 87.939267 
L 227.32467 84.072513 
L 221.631516 81.004434 
L 216.03327 77.779787 
L 210.536175 74.38727 
L 205.14647 70.815582 
L 199.870399 67.053422 
L 194.714896 63.090441 
L 189.694872 58.927269 
L 184.830343 54.571557 
L 180.141409 50.031072 
L 175.648169 45.31358 
L 171.370722 40.426849 
L 167.329168 35.378646 
L 163.543607 30.176737 
L 160.034138 24.828889 
L 157.077982 19.8 
L 157.077982 19.8 
" clip-path="url(#p4caedf6d38)" style="fill: none; stroke: #ff0000; stroke-width: 0.072"/>
   </g>
   <g id="LineCollection_3">
    <path d="M 19.8 19.8 
L 1603.8 19.8 
L 1603.8 1603.8 
L 19.8 1603.8 
L 19.8 19.8 
" clip-path="url(#p4caedf6d38)" style="fill: none; stroke: #ff0000; stroke-width: 0.072"/>
   </g>
  </g>
 </g>
 <defs>
  <clipPath id="p4caedf6d38">
   <rect x="0" y="0" width="1623.6" height="1623.6"/>
  </clipPath>
 </defs>
</svg>
